<?xml version="1.0" encoding="UTF-8" standalone="no"?>
<!-- Uploaded to: SVG Repo, www.svgrepo.com, Generator: SVG Repo Mixer Tools -->

<svg
   width="250"
   height="250"
   viewBox="0 0 20 20"
   fill="none"
   version="1.1"
   id="svg19"
   sodipodi:docname="brand-svgrepo-com.svg"
   inkscape:version="1.3.2 (1:1.3.2+202311252150+091e20ef0f)"
   xmlns:inkscape="http://www.inkscape.org/namespaces/inkscape"
   xmlns:sodipodi="http://sodipodi.sourceforge.net/DTD/sodipodi-0.dtd"
   xmlns="http://www.w3.org/2000/svg"
   xmlns:svg="http://www.w3.org/2000/svg">
  <defs
     id="defs19" />
  <sodipodi:namedview
     id="namedview19"
     pagecolor="#ffffff"
     bordercolor="#666666"
     borderopacity="1.0"
     inkscape:showpageshadow="2"
     inkscape:pageopacity="0.0"
     inkscape:pagecheckerboard="0"
     inkscape:deskcolor="#d1d1d1"
     inkscape:zoom="1.9425"
     inkscape:cx="342.08494"
     inkscape:cy="196.139"
     inkscape:window-width="3130"
     inkscape:window-height="1736"
     inkscape:window-x="0"
     inkscape:window-y="0"
     inkscape:window-maximized="1"
     inkscape:current-layer="svg19" />
  <g
     id="g19"
     transform="matrix(0.55669523,0,0,0.55669523,-0.16966765,-0.56613149)">
    <path
       fill-rule="evenodd"
       clip-rule="evenodd"
       d="m 10.57773,6.8345792 3.8134,0.6753 3.4622,-1.8257 3.0608,2.3759 h 3.8886 l 1.6057,3.5262998 3.437,1.7757 -0.2257,3.8765 2.2077,3.1762 -2.0321,3.3262 0.4766,3.8515 -3.3618,2.0008 -1.3798,3.6514 -3.8887,0.2751 -2.9353,2.6009 -3.5374,-1.5756 -3.7884,0.9754 -2.4084001,-3.0261 -3.7884,-0.9004 -0.7024,-3.8264 -2.9103,-2.551 1.1541,-3.7264 -1.3797999,-3.6264 2.7596999,-2.751 0.4766,-3.8515 3.7131,-1.2005 z"
       fill="#2a2941"
       id="path1" />
    <path
       fill-rule="evenodd"
       clip-rule="evenodd"
       d="m 12.55973,11.636379 c 1.2293,-0.4751 2.5088,-0.7002 3.8134,-0.6752 1.3046,0.025 2.5841,0.3251 3.7883,0.8503 1.2043,0.5252 2.258,1.3005 3.1611,2.2509 0.9032,0.9503 1.6057,2.0758 2.0573,3.2762 1.0788,2.4009 1.154,5.152 0.2258,7.6279 -0.9283,2.476 -2.8099,4.4767 -5.1933,5.5771 -1.2293,0.4752 -2.5088,0.7003 -3.8134,0.6753 -1.3046,-0.025 -2.5841,-0.3251 -3.7883,-0.8503 -1.2043,-0.5252 -2.258,-1.3005 -3.1611001,-2.2259 -0.9032,-0.9503 -1.6057,-2.0508 -2.0573,-3.2762 -1.0788,-2.4009 -1.154,-5.152 -0.2258,-7.6279 0.9032,-2.476 2.7848001,-4.5017 5.1933001,-5.6022 z"
       fill="#2a2941"
       id="path2" />
    <path
       fill-rule="evenodd"
       clip-rule="evenodd"
       d="m 30.64833,12.461779 -30.23130001,12.7548 2.65929991,6.4024 30.2564001,-12.7548 z"
       fill="#2a2941"
       id="path3" />
    <path
       d="m 6.4131299,28.967979 -1.2544,0.5253 c -0.0753,0.05 -0.1506,0.05 -0.2258,0.075 -0.0753,0 -0.1506,0 -0.2258,-0.05 -0.0753,-0.0251 -0.1255,-0.0751 -0.1756,-0.1501 -0.0502,-0.075 -0.0753,-0.125 -0.1004,-0.2001 l -1.3798,-3.2512 c -0.0502,-0.1501 -0.0502,-0.3001 0,-0.4502 0.025,-0.075 0.0752,-0.125 0.1505,-0.175 0.0502,-0.0501 0.1254,-0.0751 0.2007,-0.1001 l 1.3798,-0.5752 c 0.1757,-0.075 0.3513,-0.1501 0.5269,-0.1751 0.1505,-0.025 0.301,-0.025 0.4516,0 0.1254,0.025 0.2509,0.0751 0.3512,0.1251 0.1004,0.05 0.2258,0.15 0.3011,0.2251 0.1003,0.1 0.1505,0.225 0.2007,0.3501 0.1003,0.2001 0.1254,0.4252 0.0752,0.6502 -0.0501,0.2251 -0.1505,0.4252 -0.301,0.5753 0.2509,-0.0501 0.5268,0 0.7526,0.125 0.2258,0.1251 0.4014,0.3251 0.5018,0.5752 0.1003,0.2251 0.1505,0.4752 0.1003,0.7253 -0.025,0.2251 -0.1505,0.4502 -0.301,0.6252 -0.1255,0.1251 -0.2509,0.2251 -0.3763,0.3002 z m -0.853,-1.9007 -0.8781,0.3752 0.5268,1.2755 0.9032,-0.3752 c 0.577,-0.2251 0.7527,-0.5752 0.6021,-1.0004 -0.0251,-0.1 -0.0752,-0.175 -0.1505,-0.2501 -0.0753,-0.075 -0.1756,-0.125 -0.276,-0.125 -0.2509,-0.05 -0.5017,0 -0.7275,0.1 z m -1.5806,-1.3755 0.4516,1.1254 0.7777,-0.3251 c 0.1757,-0.05 0.3262,-0.15 0.4516,-0.2501 0.1004,-0.1 0.1506,-0.2251 0.1756,-0.3501 0.0251,-0.1001 0.0251,-0.2001 0,-0.3001 -0.025,-0.1001 -0.0752,-0.1751 -0.1505,-0.2251 -0.0753,-0.05 -0.1505,-0.1001 -0.2509,-0.1001 -0.2509,0.0251 -0.5017,0.0751 -0.7275,0.2001 z"
       fill="#2a2941"
       id="path4" />
    <path
       d="m 10.62793,25.016579 -0.3011,0.125 0.5771,1.3756 c 0.0501,0.15 0.0501,0.3001 0,0.4501 -0.0251,0.0501 -0.0502,0.1251 -0.1004,0.1501 -0.0502,0.05 -0.1004,0.075 -0.1505,0.1 -0.0502,0.025 -0.1255,0.0501 -0.1756,0.0501 -0.0502,0 -0.1255,-0.0251 -0.1757,-0.0501 -0.1254,-0.075 -0.2258,-0.2 -0.2759,-0.3501 l -1.3799001,-3.3263 c -0.0502,-0.15 -0.0502,-0.3001 0,-0.4501 0.0251,-0.0751 0.0753,-0.1251 0.1505,-0.1751 0.0502,-0.05 0.1255,-0.075 0.2008,-0.1 l 1.3798001,-0.5753 c 0.1505,-0.075 0.3261,-0.125 0.4767,-0.175 0.1254,-0.025 0.2759,-0.025 0.4265,0 0.1505,0 0.301,0.05 0.4516,0.1 0.1505,0.075 0.2759,0.1751 0.3763,0.2751 0.1003,0.1251 0.2007,0.2751 0.2509,0.4252 0.1003,0.2751 0.1003,0.6002 0,0.8753 -0.1255,0.3001 -0.3513,0.5752 -0.6272,0.7503 0.2007,0.025 0.4014,0.1 0.577,0.2001 0.2007,0.1 0.4014,0.2251 0.577,0.3501 0.1756,0.1 0.3262,0.2501 0.4516,0.3751 0.0753,0.0751 0.1505,0.1751 0.2258,0.2501 0.0251,0.0751 0.0251,0.1251 0,0.2001 0,0.0751 -0.0502,0.1251 -0.0753,0.2001 -0.0501,0.075 -0.1254,0.125 -0.2007,0.1501 -0.0752,0.025 -0.1756,0.025 -0.2508,0 -0.0753,-0.0251 -0.1757,-0.0501 -0.2258,-0.1001 -0.1004,-0.075 -0.2258,-0.15 -0.3262,-0.2251 l -0.577,-0.4501 c -0.1756,-0.1251 -0.3513,-0.2501 -0.5269,-0.3502 -0.1254,-0.075 -0.2509,-0.1 -0.3763,-0.1 -0.1505,0 -0.276,0.05 -0.4014,0.1 z m -0.276,-2.0008 -0.7777001,0.3252 0.5017001,1.2004 0.7527,-0.3251 c 0.1756,-0.075 0.3261,-0.1501 0.4767,-0.2751 0.1254,-0.075 0.2007,-0.2001 0.2508,-0.3251 0.0502,-0.1251 0.0502,-0.2751 0,-0.4252 -0.0501,-0.1 -0.1254,-0.2001 -0.2257,-0.2751 -0.1004,-0.075 -0.2258,-0.1 -0.3262,-0.1 -0.2258,0.025 -0.4767,0.075 -0.6774,0.175 h 0.0251 z"
       fill="#2a2941"
       id="path5" />
    <path
       d="m 18.33003,23.365879 -0.4265,-0.4502 -1.6809,0.7253 v 0.6252 c 0.0251,0.1751 0.0251,0.3502 0,0.5253 -0.0251,0.05 -0.0502,0.1 -0.0753,0.125 -0.0502,0.05 -0.0752,0.075 -0.1254,0.075 -0.0502,0.025 -0.1004,0.025 -0.1756,0.025 -0.0502,0 -0.1255,0 -0.1757,-0.025 -0.0501,-0.025 -0.1003,-0.05 -0.1505,-0.075 -0.0502,-0.05 -0.0753,-0.075 -0.1003,-0.125 -0.0251,-0.0751 -0.0251,-0.1251 0,-0.2001 0,-0.0751 0,-0.1751 0,-0.3001 l -0.1004,-3.2513 c 0,-0.1 0,-0.2001 0,-0.3501 0,-0.1 0,-0.2251 0,-0.3251 0.0251,-0.1001 0.0502,-0.1751 0.1254,-0.2501 0.0502,-0.1001 0.1506,-0.1501 0.2509,-0.2001 0.1004,-0.025 0.2258,-0.025 0.3262,0 0.1003,0 0.1756,0.05 0.2509,0.1 l 0.2258,0.1751 0.2508,0.3001 2.2329,2.3259 c 0.1254,0.125 0.2258,0.2501 0.3261,0.4252 0.0251,0.05 0.0251,0.1 0.0251,0.15 0,0.05 0,0.1001 -0.0251,0.1501 -0.0251,0.05 -0.0501,0.1 -0.1003,0.15 -0.0502,0.0501 -0.1004,0.0751 -0.1506,0.1001 h -0.2007 c -0.0501,0.025 -0.1003,0.025 -0.1505,0 -0.0753,-0.05 -0.1254,-0.1001 -0.2007,-0.1501 z m -2.1576,-0.5002 1.2544,-0.5252 -1.3798,-1.5256 z"
       fill="#2a2941"
       id="path6" />
    <path
       d="m 20.96423,18.288879 2.6845,1.8507 -1.0537,-2.5509 c -0.0502,-0.1501 -0.0502,-0.3002 0,-0.4252 0.0251,-0.05 0.0502,-0.1 0.0752,-0.1501 0.0502,-0.05 0.0753,-0.075 0.1506,-0.1 0.0502,-0.025 0.1254,-0.025 0.1756,-0.025 0.0502,0 0.1254,0 0.1756,0.025 0.1255,0.075 0.2007,0.2001 0.2509,0.3251 l 1.3798,3.4013 c 0.1506,0.3752 0.0753,0.6253 -0.2258,0.7503 h -0.2257 c -0.0753,0.025 -0.1506,0.025 -0.2008,0 l -0.2257,-0.1 -0.2258,-0.1501 -2.6343,-1.8507 1.0537,2.526 c 0.0502,0.125 0.0502,0.2751 0,0.4251 -0.0251,0.05 -0.0502,0.1001 -0.1003,0.1501 -0.0502,0.05 -0.1004,0.075 -0.1506,0.1 -0.0502,0.025 -0.1254,0.025 -0.1756,0.025 -0.0502,0 -0.1254,-0.025 -0.1756,-0.05 -0.1255,-0.075 -0.2007,-0.2001 -0.2509,-0.3251 l -1.3798,-3.3263 c -0.0502,-0.125 -0.0753,-0.2251 -0.0753,-0.3501 0,-0.1 0.0251,-0.2001 0.0753,-0.3001 0.0501,-0.1001 0.1254,-0.1501 0.2258,-0.2001 0.0752,-0.025 0.1505,-0.025 0.2007,0 0.0501,-0.025 0.1254,-0.025 0.1756,0 0.0752,0.025 0.1254,0.075 0.2007,0.1 z"
       fill="#2a2941"
       id="path7" />
    <path
       d="m 26.05723,15.612879 1.0787,-0.4501 c 0.2509,-0.1001 0.5018,-0.1751 0.7527,-0.2251 0.2258,-0.025 0.4767,0 0.7025,0.075 0.3261,0.1251 0.6021,0.3251 0.853,0.6002 0.2508,0.2752 0.4265,0.5503 0.5268,0.9004 0.1004,0.2251 0.1756,0.4752 0.2258,0.7253 0.0251,0.2251 0.0251,0.4501 0,0.6502 -0.0251,0.2251 -0.0753,0.4252 -0.1505,0.6252 -0.0753,0.1501 -0.1506,0.2752 -0.2509,0.4002 -0.1004,0.125 -0.2258,0.2251 -0.3763,0.3251 l -0.5018,0.2501 -1.0788,0.4752 c -0.1254,0.05 -0.2509,0.075 -0.3763,0.075 -0.1004,-0.025 -0.1756,-0.075 -0.2258,-0.15 -0.0753,-0.1001 -0.1254,-0.2001 -0.1756,-0.3252 l -1.3799,-3.1762 c -0.0501,-0.15 -0.0501,-0.3001 0,-0.4501 0.0502,-0.0751 0.1004,-0.1501 0.1756,-0.2001 0.0502,-0.075 0.1255,-0.1251 0.2008,-0.1251 z m 0.6272,0.5503 1.2042,2.9261 0.6272,-0.2751 0.3261,-0.1501 0.2258,-0.1501 c 0.0753,-0.075 0.1255,-0.15 0.1757,-0.225 0.0752,-0.2251 0.1254,-0.5002 0.1003,-0.7503 -0.0251,-0.2501 -0.1003,-0.5002 -0.2007,-0.7253 -0.1254,-0.3251 -0.3261,-0.6502 -0.577,-0.8753 -0.1756,-0.1501 -0.4014,-0.2251 -0.6272,-0.2001 -0.2509,0.025 -0.4767,0.1 -0.7025,0.2001 z"
       fill="#2a2941"
       id="path8" />
    <path
       fill-rule="evenodd"
       clip-rule="evenodd"
       d="m 12.66003,3.7834792 3.688,0.6252 3.3367,-1.7507 2.9604,2.2759 h 3.7633 l 1.5554,3.3763 3.3368,1.7005998 -0.2258,3.7014 2.1325,3.0512 -1.9569,3.2012 0.4516,3.6764 -3.2364,1.9508 -1.3799,3.5013 -3.7632,0.2501 -2.7597,2.5009 -3.412,-1.4755 -3.6629,0.9253 -2.3081,-2.9261 -3.6628001,-0.8503 -0.6774,-3.6514 -2.7597,-2.4259 1.1289,-3.5764 -1.3798,-3.4763 2.6593,-2.651 0.4767,-3.7013998 3.5876001,-1.1504 z"
       fill="#fec34e"
       id="path9" />
    <path
       fill-rule="evenodd"
       clip-rule="evenodd"
       d="m 12.88583,2.5829792 -0.8028,-0.15 -2.3583001,3.3762 -3.9639,1.2505 -0.5018,4.1265998 -2.9855,2.9511 1.4802,3.8265 -1.2544,3.8764 3.111,2.7511 0.7526,4.0265 4.0392001,0.9504 2.559,3.2012 4.0392,-1.0254 3.7883,1.6506 3.111,-2.751 4.1395,-0.2751 1.4802,-3.8515 3.5625,-2.1508 -0.5017,-4.0515 2.1576,-3.5264 -2.3332,-3.4763 0.2508,-4.1265998 -3.6628,-1.8757 -1.706,-3.7264 h -4.1396 l -3.3116,-2.3759 -3.6629,1.9507 z m -0.2257,1.2755 3.6879,0.6252 3.3367,-1.7506 2.9605,2.2758 h 3.7632 l 1.5554,3.3763 3.3368,1.7006998 -0.2258,3.7014 2.1325,3.0511 -1.9569,3.2012 0.4516,3.6764 -3.2364,1.9508 -1.3798,3.5013 -3.7633,0.2501 -2.7597,2.501 -3.412,-1.4756 -3.6628,0.9254 -2.3082,-2.9262 -3.6628001,-0.9003 -0.6774,-3.6514 -2.7597,-2.4259 1.129,-3.5764 -1.3799,-3.4763 2.6594,-2.626 0.4766,-3.7013998 3.5876001,-1.1504 z"
       fill="#2a2941"
       id="path10" />
    <path
       fill-rule="evenodd"
       clip-rule="evenodd"
       d="m 14.59183,8.3601792 c 1.7813,-0.8503 3.7633,-1.1505 5.7201,-0.8753 1.9569,0.2751 3.7633,1.1504 5.2184,2.4758996 1.4551,1.3255002 2.4837,3.0512002 2.9353,4.9769002 0.4516,1.9007 0.3261,3.9265 -0.3763,5.7522 -0.7025,1.8257 -1.9318,3.4263 -3.5375,4.5517 -1.6056,1.1254 -3.5374,1.7507 -5.4943,1.8007 -1.9569,0.05 -3.9137,-0.5252 -5.5696,-1.6006 -1.6558,-1.0754 -2.9353,-2.626 -3.7130001,-4.4267 -1.0286,-2.3259 -1.1039,-4.9269 -0.2007,-7.3028 C 10.47743,11.336279 12.28373,9.4105792 14.59183,8.3601792 Z"
       fill="#ffffff"
       id="path11" />
    <path
       fill-rule="evenodd"
       clip-rule="evenodd"
       d="m 14.09013,7.1846792 c -2.0823,0.7503 -3.9138,2.1259 -5.1933001,3.9264998 -1.3046,1.8007 -2.0321,3.9515 -2.1074,6.1524 -0.0753,2.2258 0.5269,4.4017 1.7311,6.2774 1.1791,1.8757 2.9102001,3.3512 4.9424001,4.2516 2.0321,0.9003 4.29,1.1504 6.4727,0.7503 2.1827,-0.4002 4.2148,-1.4506 5.7954,-3.0012 1.5806,-1.5506 2.6593,-3.5513 3.1109,-5.7272 0.4516,-2.1758 0.2258,-4.4266 -0.6272,-6.4774 -1.0537,-2.676 -3.136,-4.8268998 -5.7703,-5.9772998 -2.6844,-1.1504 -5.6699,-1.2255 -8.3543,-0.1751 z m 0.5017,1.1755 c 1.7813,-0.8503 3.7633,-1.1504 5.7201,-0.8753 1.9569,0.2751 3.7633,1.1504 5.2184,2.4758996 1.4551,1.3255002 2.4586,3.0762002 2.9353,4.9769002 0.4767,1.9007 0.3262,3.9265 -0.3763,5.7522 -0.7025,1.8257 -1.9318,3.4263 -3.5374,4.5517 -1.6057,1.1254 -3.5375,1.7507 -5.4944,1.8007 -1.9819,0.025 -3.9137,-0.5252 -5.5695,-1.6006 -1.6559,-1.0754 -2.9354,-2.626 -3.7131001,-4.4267 -1.0286,-2.3259 -1.1039,-4.9269 -0.2007,-7.3028 C 10.47743,11.336279 12.28373,9.4355792 14.59183,8.3601792 Z"
       fill="#2a2941"
       id="path12" />
    <path
       fill-rule="evenodd"
       clip-rule="evenodd"
       d="M 32.10343,9.1604792 2.8506299,21.365079 l 2.584,6.1274 29.2278001,-12.2047 z"
       fill="#a694fe"
       id="path13" />
    <path
       fill-rule="evenodd"
       clip-rule="evenodd"
       d="m 36.34333,15.988079 -3.5625,-8.5032998 -31.6111,13.1799998 3.6376999,8.5033 z M 32.10343,9.1103792 2.8506299,21.315079 l 2.5841,6.1273 29.2277001,-12.2046 z"
       fill="#2a2941"
       id="path14" />
    <path
       d="m 8.6459299,24.966579 -1.2293,0.5001 c -0.0753,0.0251 -0.1505,0.0501 -0.2258,0.0501 -0.0752,0 -0.1505,-0.025 -0.2258,-0.0501 -0.1003,0 -0.2007,-0.175 -0.2759,-0.3501 l -1.2545,-3.0762 c -0.0501,-0.15 -0.0501,-0.3001 0,-0.4501 0,-0.1251 0.1506,-0.2001 0.3262,-0.3001 l 1.3046,-0.5252 c 0.1756,-0.0751 0.3261,-0.1251 0.5017,-0.1751 0.1506,-0.025 0.3011,-0.025 0.4516,0 0.1255,0.025 0.2258,0.075 0.3262,0.125 0.1003,0.0501 0.2007,0.1251 0.301,0.2251 0.0753,0.1001 0.1506,0.2001 0.2007,0.3251 0.0753,0.2001 0.1255,0.4002 0.0753,0.6253 -0.0502,0.2001 -0.1505,0.4001 -0.3011,0.5502 0.2509,-0.05 0.5018,0 0.7276,0.125 0.2258,0.1251 0.4014,0.3252 0.4767,0.5503 0.1003,0.225 0.1254,0.4751 0.1003,0.7002 -0.0501,0.2251 -0.1505,0.4502 -0.301,0.6002 -0.1004,0.1001 -0.2258,0.2001 -0.3763,0.2752 -0.2008,0.1 -0.3764,0.2 -0.6022,0.2751 z m -0.8279,-1.8257 -0.853,0.3501 0.5018,1.2005 0.8781,-0.3502 c 0.5268,-0.2251 0.7275,-0.5502 0.577,-0.9503 -0.0251,-0.1001 -0.0753,-0.1751 -0.1505,-0.2501 -0.0753,-0.0751 -0.1506,-0.1001 -0.2509,-0.1251 -0.2509,-0.025 -0.4767,0.025 -0.7025,0.1251 z m -1.5304,-1.3756 0.4516,1.0754 0.7527,-0.3001 c 0.1505,-0.075 0.301,-0.15 0.4516,-0.2501 0.0501,-0.05 0.0752,-0.1 0.1254,-0.15 0.0251,-0.05 0.0502,-0.1251 0.0502,-0.1751 0.0251,-0.1 0.0251,-0.2001 0,-0.3001 -0.1004,-0.2251 -0.2258,-0.3251 -0.3763,-0.3251 -0.2509,0 -0.4767,0.075 -0.7025,0.175 z"
       fill="#2a2941"
       id="path15" />
    <path
       d="m 12.71023,21.189979 -0.2759,0.1001 0.5519,1.3755 c 0.0251,0.075 0.0502,0.15 0.0502,0.2251 0,0.075 -0.0251,0.15 -0.0502,0.2251 -0.0251,0.05 -0.0502,0.1 -0.1004,0.15 -0.0501,0.05 -0.1003,0.075 -0.1505,0.1001 -0.0502,0.025 -0.1003,0.05 -0.1756,0.05 -0.0502,0 -0.1254,-0.025 -0.1756,-0.05 -0.1255,-0.0751 -0.2258,-0.2001 -0.276,-0.3502 l -1.3798,-3.1762 c -0.0502,-0.15 -0.0502,-0.3001 0,-0.4502 0.0752,-0.125 0.2007,-0.225 0.3261,-0.2751 l 1.3799,-0.5502 c 0.1505,-0.075 0.301,-0.125 0.4766,-0.175 0.1255,-0.025 0.276,-0.025 0.4014,0 0.1506,0 0.3011,0.05 0.4265,0.1 0.1255,0.05 0.2509,0.1501 0.3764,0.2501 0.1003,0.125 0.1756,0.2501 0.2508,0.3751 0.1004,0.2751 0.1004,0.5753 0,0.8504 -0.386975,0.07424 -0.391981,0.523715 0,0.8503 0.2007,0.1 0.3764,0.2251 0.5771,0.3501 0.1505,0.1001 0.301,0.2251 0.4265,0.3501 0.0752,0.0751 0.1505,0.1501 0.2007,0.2501 0.0251,0.0501 0.0251,0.1251 0,0.1751 -0.0251,0.075 -0.0502,0.1501 -0.1004,0.2001 -0.0502,0.05 -0.1003,0.1 -0.1756,0.125 -0.0753,0.025 -0.1756,0.025 -0.2509,0 -0.0752,-0.025 -0.1505,-0.05 -0.2258,-0.1 l -0.301,-0.2251 -0.5771,-0.4252 c -0.1505,-0.125 -0.3261,-0.25 -0.5017,-0.3501 -0.1255,-0.05 -0.2509,-0.1 -0.3763,-0.1 -0.1255,0 -0.276,0.025 -0.3764,0.075 z m -0.2509,-1.9507 -0.7526,0.3251 0.4767,1.1504 0.7275,-0.3251 c 0.1756,-0.05 0.3262,-0.15 0.4767,-0.2501 0.1004,-0.075 0.1756,-0.175 0.2258,-0.3001 0.0502,-0.125 0.0502,-0.2751 0,-0.4001 -0.0502,-0.1001 -0.1004,-0.2001 -0.2007,-0.2501 -0.1004,-0.0501 -0.2007,-0.1001 -0.3262,-0.0751 -0.2257,0 -0.4265,0.0501 -0.6272,0.1251 z"
       fill="#2a2941"
       id="path16"
       sodipodi:nodetypes="cccscccscccccccccccccccccsscccccscccccccccccc" />
    <path
       d="m 20.16143,19.614479 -0.4265,-0.4501 -1.6307,0.6752 v 0.6253 c 0.0251,0.175 0.0251,0.3251 0,0.5001 0,0.1001 -0.1004,0.1751 -0.2007,0.2251 -0.0502,0.025 -0.1004,0.025 -0.1506,0.025 -0.0501,0 -0.1003,0 -0.1505,-0.025 -0.0502,-0.025 -0.1003,-0.05 -0.1505,-0.075 -0.0502,-0.025 -0.0753,-0.075 -0.1004,-0.125 -0.025,-0.0751 -0.025,-0.1251 0,-0.2001 0,-0.1001 0,-0.2001 0,-0.3001 l -0.1003,-3.1012 v -0.3251 c -0.0251,-0.1001 -0.0251,-0.2251 0,-0.3252 0.0251,-0.1 0.0502,-0.175 0.1003,-0.2501 0.0753,-0.075 0.1506,-0.15 0.2509,-0.175 0.1004,-0.025 0.2007,-0.025 0.3262,0 0.1003,0 0.1756,0.05 0.2508,0.1 0.0753,0.05 0.1506,0.1001 0.2008,0.1751 l 0.2508,0.2501 2.1576,2.2258 c 0.1255,0.1251 0.2258,0.2501 0.3011,0.4002 0.0251,0.05 0.0251,0.1 0.0251,0.15 0,0.0501 0,0.1001 -0.0251,0.1501 -0.0251,0.05 -0.0502,0.1 -0.1004,0.15 -0.0501,0.0501 -0.1003,0.0751 -0.1505,0.1001 -0.0502,0.025 -0.1254,0.025 -0.1756,0 -0.0502,0 -0.1004,0 -0.1505,0 l -0.1757,-0.1501 z m -2.0823,-0.4751 1.2042,-0.5002 -1.3798,-1.4506 z"
       fill="#2a2941"
       id="path17" />
    <path
       d="m 22.74553,14.737579 2.5841,1.8007 -1.0286,-2.451 c -0.0502,-0.125 -0.0502,-0.2751 0,-0.4001 0.0251,-0.05 0.0502,-0.1001 0.0752,-0.1501 0.0502,-0.05 0.0753,-0.075 0.1255,-0.1 0.0502,-0.025 0.1003,-0.025 0.1756,-0.025 0.0502,0 0.1254,0 0.1756,0.025 0.1255,0.075 0.2007,0.2001 0.2509,0.3251 l 1.3798,3.2512 c 0.1506,0.3502 0.0753,0.6003 -0.2007,0.7253 -0.0752,0.025 -0.1505,0.025 -0.2258,0 -0.0752,0.025 -0.1505,0.025 -0.2007,0 -0.0752,-0.025 -0.1505,-0.05 -0.2007,-0.1 l -0.2007,-0.1501 -2.6844,-1.7506 1.0286,2.4259 c 0.0502,0.125 0.0502,0.2751 0,0.4001 -0.0251,0.0501 -0.0502,0.1001 -0.0753,0.1501 -0.0501,0.05 -0.0752,0.075 -0.1254,0.1 -0.0502,0.025 -0.1003,0.05 -0.1756,0.05 -0.0502,0 -0.1255,-0.025 -0.1756,-0.05 -0.1255,-0.075 -0.2007,-0.175 -0.2509,-0.3251 l -1.405,-3.2012 c -0.0501,-0.1001 -0.0752,-0.2251 -0.1003,-0.3251 0,-0.1001 0.0251,-0.2001 0.0753,-0.2751 0.0501,-0.0751 0.1505,-0.1501 0.2258,-0.2001 h 0.2007 c 0.0501,-0.025 0.1254,-0.025 0.1756,0 0.0752,0.025 0.1254,0.075 0.2007,0.1 z"
       fill="#2a2941"
       id="path18" />
    <path
       d="m 27.66283,12.211679 1.0537,-0.4502 c 0.2509,-0.1 0.4767,-0.175 0.7526,-0.2251 0.2258,-0.025 0.4516,0 0.6523,0.0751 0.3262,0.125 0.6022,0.3001 0.853,0.5252 0.2509,0.2501 0.4265,0.5252 0.5269,0.8503 0.1003,0.2251 0.1756,0.4502 0.2258,0.7003 0.0251,0.2 0.0251,0.4251 0,0.6252 -0.0251,0.2001 -0.0753,0.4002 -0.1505,0.5752 -0.0753,0.1501 -0.1506,0.2751 -0.2509,0.3752 -0.1004,0.125 -0.2258,0.225 -0.3513,0.3001 l -0.4766,0.2501 -1.0537,0.4501 c -0.1004,0.0501 -0.2258,0.0751 -0.3513,0.0751 -0.0502,0 -0.1003,-0.025 -0.1254,-0.05 -0.0502,-0.0251 -0.0753,-0.0501 -0.1004,-0.1001 -0.0752,-0.1 -0.1254,-0.2001 -0.1756,-0.3001 l -1.2795,-3.0512 c -0.0502,-0.15 -0.0502,-0.3001 0,-0.4501 0.0251,-0.0751 0.0753,-0.1251 0.1254,-0.1751 0.0502,-0.05 0.1255,-0.075 0.2008,-0.1 z m 0.577,0.5502 1.1792,2.7511 0.6021,-0.2501 0.3261,-0.1501 c 0.0753,-0.025 0.1506,-0.075 0.2258,-0.1501 0.0753,-0.075 0.1255,-0.15 0.1506,-0.225 0.0752,-0.2251 0.1254,-0.4502 0.1003,-0.7003 -0.0251,-0.2501 -0.1003,-0.4752 -0.2007,-0.6753 -0.1254,-0.3251 -0.3011,-0.6002 -0.5519,-0.8503 -0.1757,-0.15 -0.3764,-0.2001 -0.6022,-0.2001 -0.2258,0.025 -0.4515,0.1001 -0.6773,0.1751 l -0.5269,0.2251 v 0.05 z"
       fill="#2a2941"
       id="path19" />
  </g>
</svg>
