<svg xmlns="http://www.w3.org/2000/svg" xmlns:xlink="http://www.w3.org/1999/xlink" width="500" height="500" viewBox="0 0 132.292 132.292"><path d="M39.74 38.843a43.62 43.62 0 0 0-6.938 6.696 43.37 43.37 0 0 0-5.348 8.169 43.15 43.15 0 0 0-3.413 9.314 43.634 43.634 0 0 0-1.2 10.097H1.376c.025-20.483 9.403-39.299 25.74-51.65L39.74 38.843" fill="#ff9b9b"/><g fill="#fff"><path d="M23.243 54.613a6.68 6.68 0 0 0-6.517-5.124 6.68 6.68 0 0 0-6.516 5.124.602.602 0 1 0 1.172.283 5.48 5.48 0 0 1 5.344-4.201 5.48 5.48 0 0 1 5.344 4.201.604.604 0 0 0 1.173-.283"/><use xlink:href="#a"/><use xlink:href="#a" x="7.285"/></g><path d="M131.004 73.118h-21.465a43.634 43.634 0 0 0-1.2-10.097 43.149 43.149 0 0 0-3.413-9.314 43.4 43.4 0 0 0-5.348-8.169 43.654 43.654 0 0 0-6.939-6.696l12.624-17.374c16.336 12.351 25.714 31.167 25.74 51.65" fill="#91e697"/><g fill="#fff"><path d="M121.727 50.403a.604.604 0 0 0-.728.445 5.48 5.48 0 0 1-5.345 4.201 5.478 5.478 0 0 1-5.343-4.201.604.604 0 0 0-1.173.283 6.68 6.68 0 0 0 6.516 5.125 6.68 6.68 0 0 0 6.517-5.125.602.602 0 0 0-.445-.728"/><use xlink:href="#a" x="98.929"/><path d="M119.297 47.193a1.164 1.164 0 1 0 0-2.328 1.164 1.164 0 0 0 0 2.328"/></g><path d="M103.319 20.052 90.695 37.428c-7.224-4.956-15.696-7.575-24.504-7.575s-17.281 2.62-24.505 7.575L29.062 20.052C39.972 12.421 52.81 8.388 66.191 8.388s26.218 4.033 37.128 11.664" fill="#81defd"/><g fill="#fff"><use xlink:href="#b"/><use xlink:href="#b" x="7.285"/><path d="M72.121 22.018H60.26a.604.604 0 0 0 0 1.206h11.861a.603.603 0 0 0 0-1.206"/></g><path d="M1.396 73.1h21.427a43.663 43.663 0 0 1 1.2-10.082 43.14 43.14 0 0 1 3.414-9.319A43.72 43.72 0 0 1 39.714 38.84L27.113 21.494C10.795 33.839 1.426 52.636 1.396 73.1zm21.632.205H1.191v-.102a65.42 65.42 0 0 1 1.832-15.406 64.637 64.637 0 0 1 5.212-14.078 65.1 65.1 0 0 1 8.16-12.32 65.38 65.38 0 0 1 10.678-10.131l.083-.062L39.997 38.88l-.079.061a42.88 42.88 0 0 0-16.89 34.261v.102m86.53-.204h21.427c-.031-20.463-9.399-39.261-25.717-51.605L92.666 38.839a43.72 43.72 0 0 1 12.277 14.859 43.12 43.12 0 0 1 3.414 9.319 43.676 43.676 0 0 1 1.2 10.082zm21.633.205h-21.838v-.102a42.88 42.88 0 0 0-16.89-34.261l-.079-.061.059-.081 12.783-17.594.083.062a65.38 65.38 0 0 1 10.678 10.131 65.1 65.1 0 0 1 8.16 12.32 64.69 64.69 0 0 1 5.212 14.078 65.42 65.42 0 0 1 1.833 15.406v.102M29.088 20.057 41.69 37.403c7.225-4.951 15.694-7.568 24.501-7.568a43.13 43.13 0 0 1 24.499 7.568l12.603-17.345c-10.904-7.622-23.732-11.65-37.102-11.65s-26.199 4.028-37.103 11.65zm61.651 17.627-.082-.057c-7.208-4.964-15.668-7.588-24.466-7.588s-17.258 2.624-24.466 7.588l-.027.018h-.084l-.031-.042L28.8 20.008l.085-.06C39.842 12.264 52.742 8.202 66.191 8.202s26.348 4.062 37.305 11.746l.085.06-12.842 17.675" fill="#27191c"/><path d="M101.661 55.754a.126.126 0 0 1-.008-.034c.003-.023.006-.029.008-.035l.002-.005.002-.004 5.241-11.471-12.564 1.198a.065.065 0 0 1-.024-.001.113.113 0 0 1-.03-.012c-13.697-13.866-35.162-15.712-51.052-4.402-17.764 12.645-21.929 37.384-9.284 55.148 7.704 10.823 19.9 16.597 32.27 16.599a39.32 39.32 0 0 0 22.877-7.314c15.89-11.311 21.173-32.197 12.562-49.662" fill="#a081d9"/><path d="M88.976 87.263c-1.881 3.053-4.328 5.664-7.273 7.761s-6.214 3.554-9.715 4.331a26.637 26.637 0 0 1-5.789.637 27.04 27.04 0 0 1-4.477-.376 26.715 26.715 0 0 1-17.375-10.881 26.62 26.62 0 0 1-4.331-9.715 26.719 26.719 0 0 1-.261-10.265 26.7 26.7 0 0 1 3.608-9.614 26.61 26.61 0 0 1 7.273-7.761 26.698 26.698 0 0 1 19.98-4.592 26.678 26.678 0 0 1 9.613 3.608c3.054 1.881 5.665 4.327 7.762 7.273s3.554 6.214 4.331 9.714a26.7 26.7 0 0 1-3.347 19.88zm2.69-32.21a31.09 31.09 0 0 0-20.3-12.713 31.69 31.69 0 0 0-5.262-.442c-6.449 0-12.723 1.993-18.082 5.807A31.09 31.09 0 0 0 35.31 68.006a31.09 31.09 0 0 0 5.365 23.345 31.09 31.09 0 0 0 20.301 12.712c1.756.296 3.516.442 5.262.442 6.448 0 12.723-1.992 18.081-5.807 14.059-10.007 17.355-29.586 7.348-43.645" fill="#d4d8f3"/><path d="M92.419 77.621c-1.181 7.012-5.021 13.143-10.813 17.266a26.42 26.42 0 0 1-15.379 4.94 26.9 26.9 0 0 1-4.476-.376 26.44 26.44 0 0 1-17.265-10.813c-4.123-5.792-5.744-12.844-4.563-19.855s5.02-13.143 10.813-17.266a26.47 26.47 0 0 1 15.399-4.923c8.326 0 16.536 3.888 21.721 11.173a26.44 26.44 0 0 1 4.564 19.855" fill="#cfbcf2"/><g fill="#27191c"><path d="M66.104 41.917c-6.445 0-12.715 1.991-18.072 5.804-14.05 10.001-17.345 29.569-7.344 43.619a31.07 31.07 0 0 0 20.289 12.705 31.63 31.63 0 0 0 5.259.442c6.445 0 12.716-1.991 18.072-5.804a31.07 31.07 0 0 0 12.706-20.288 31.07 31.07 0 0 0-5.362-23.33 31.07 31.07 0 0 0-20.289-12.706 31.64 31.64 0 0 0-5.259-.442zm.1 62.773c-1.753 0-3.509-.148-5.261-.443a31.366 31.366 0 0 1-11.3-4.24 31.313 31.313 0 0 1-9.122-8.549 31.29 31.29 0 0 1-5.091-11.419 31.39 31.39 0 0 1-.307-12.065 31.37 31.37 0 0 1 4.24-11.3 31.287 31.287 0 0 1 8.549-9.122 31.3 31.3 0 0 1 11.419-5.091 31.357 31.357 0 0 1 12.065-.307 31.38 31.38 0 0 1 11.3 4.24 31.286 31.286 0 0 1 9.122 8.549 31.28 31.28 0 0 1 5.091 11.418c.882 3.974.985 8.033.307 12.065s-2.105 7.833-4.24 11.3a31.3 31.3 0 0 1-8.549 9.122 31.284 31.284 0 0 1-11.419 5.091 31.36 31.36 0 0 1-6.804.749m-.091-58.092c-5.48 0-10.813 1.693-15.368 4.936-11.949 8.506-14.75 25.146-6.245 37.095a26.42 26.42 0 0 0 17.254 10.805 26.93 26.93 0 0 0 4.472.376c5.481 0 10.813-1.693 15.368-4.936 11.949-8.505 14.75-25.146 6.245-37.095-4.12-5.788-10.248-9.625-17.254-10.805a26.93 26.93 0 0 0-4.472-.376zm.086 53.414a26.92 26.92 0 0 1-4.479-.376 26.72 26.72 0 0 1-9.621-3.61 26.64 26.64 0 0 1-7.767-7.279 26.635 26.635 0 0 1-4.334-9.721 26.71 26.71 0 0 1-.261-10.272 26.727 26.727 0 0 1 3.61-9.621 26.63 26.63 0 0 1 7.278-7.767 26.616 26.616 0 0 1 9.722-4.334 26.72 26.72 0 0 1 10.272-.261 26.727 26.727 0 0 1 17.388 10.888 26.633 26.633 0 0 1 4.334 9.722 26.72 26.72 0 0 1 .261 10.272 26.753 26.753 0 0 1-3.61 9.621c-1.881 3.055-4.33 5.668-7.278 7.767s-6.219 3.556-9.722 4.334a26.69 26.69 0 0 1-5.793.637m.014 12.806a39.8 39.8 0 0 1-6.619-.556 39.477 39.477 0 0 1-14.215-5.334A39.36 39.36 0 0 1 33.902 96.17a39.35 39.35 0 0 1-6.404-14.365c-1.11-5-1.239-10.106-.385-15.179s2.648-9.856 5.334-14.216a39.36 39.36 0 0 1 10.755-11.476 39.458 39.458 0 0 1 12.873-6.043 39.48 39.48 0 0 1 13.677-1.135c9.311.85 18.037 4.961 24.57 11.576.04.04.04.105 0 .145s-.105.04-.145-.001C80.542 31.671 59.154 29.83 43.321 41.101c-17.701 12.6-21.851 37.25-9.251 54.95 7.676 10.784 19.829 16.538 32.154 16.539a39.18 39.18 0 0 0 22.796-7.288c15.833-11.27 21.097-32.082 12.517-49.484-.025-.051-.004-.112.046-.137s.112-.004.137.046c4.112 8.34 5.139 17.93 2.893 27.006a39.45 39.45 0 0 1-5.551 12.551 39.44 39.44 0 0 1-9.925 10.185 39.352 39.352 0 0 1-14.365 6.405 39.48 39.48 0 0 1-8.56.941"/><path d="M101.629 55.876a.09.09 0 0 1-.042-.01c-.051-.023-.074-.084-.051-.136l5.215-11.414-12.492 1.191a.102.102 0 0 1-.02-.204l12.846-1.224-5.363 11.738a.103.103 0 0 1-.094.06"/></g><path d="M71.967 112.742a.238.238 0 0 1-.236.198h-6.903a.24.24 0 0 1-.235-.197L61.33 94.725c2.229-7.974 1.812-12.647 1.579-18.343l-.001.005c-.001-.052-.042-.095-.096-.098s-.105.04-.108.096c0 0-.015.247-.045.686-.158 2.262-.765 10.043-1.97 15.217a27.41 27.41 0 0 1-.46 1.741c-.245.807-.503 1.467-.765 1.962-2.479 4.671-11.122 12.753-12.83 14.325a.24.24 0 0 1-.335-.012l-.46-.484-4.295-4.523-.656-.691a.239.239 0 0 1-.036-.281l7.015-12.572.012-.02L49.296 68.4l.046.017c.156.053.336.08.535.08h.036l9.894-.158c.975-.016 1.982-.004 2.957.007 2.084.025 4.238.049 6.293-.182.249-.028.536-.074.796-.197 1.099 4.324 4.516 18.132 4.724 23.423.195 4.947-2.14 18.656-2.611 21.353" fill="#80bfff"/><path d="M78.199 122.462c-.014.467-.798.988-1.521 1.276-.616.245-1.746.449-3.632.026-1.125-.253-2.556-1.003-4.031-2.114-1.045-.786-2.074-1.732-2.685-2.47l-.08-.099c-.071-.088-.186-.122-.294-.085s-.178.135-.179.248l-.044 4.421a.35.35 0 0 1-.348.344h-.926a.346.346 0 0 1-.347-.351l.072-5.984c.037-1.575.33-2.632.57-3.241a.237.237 0 0 1 .226-.154.24.24 0 0 1 .232.169c.555 1.702 1.678 3.341 3.334 4.873l.339.305c1.969 1.724 4.093 2.798 4.908 2.981.428.097.879.014 1.271-.234a2.01 2.01 0 0 0 .845-1.109l.016.005 1.765.623c.344.162.516.352.51.568" fill="#3897e9"/><path d="M75.713 121.204a1.79 1.79 0 0 1-.76.997 1.46 1.46 0 0 1-1.116.208c-.687-.154-2.806-1.174-4.817-2.936l-.335-.301c-1.631-1.508-2.734-3.119-3.278-4.787a.445.445 0 0 0-.204-.251l-.003-.169-.013-.82h6.061l-.053.82c-.016.692.03 1.685.302 2.724.599 2.284 2.056 3.844 4.215 4.515" fill="#f4c097"/><path d="M43.793 121.44c-.347.313-1.266.109-1.973-.215-.603-.275-1.533-.95-2.533-2.603-.596-.986-1.046-2.539-1.264-4.372-.156-1.299-.185-2.696-.077-3.647l.016-.126a.262.262 0 0 0-.141-.271.263.263 0 0 0-.303.043l-3.222 3.027a.347.347 0 0 1-.488-.013l-.641-.668c-.065-.068-.099-.156-.096-.25s.041-.18.109-.244l4.369-4.089c1.162-1.064 2.128-1.584 2.734-1.831a.24.24 0 0 1 .273.061.24.24 0 0 1 .034.28c-.844 1.579-1.25 3.523-1.209 5.779l.014.456c.118 2.614.813 4.891 1.245 5.606.226.376.598.644 1.048.755a2.01 2.01 0 0 0 1.385-.157l.008.016.771 1.704c.122.361.102.617-.057.761" fill="#3897e9"/><path d="m45.706 109.977-.628.529a10.03 10.03 0 0 0-1.762 2.112c-1.228 2.01-1.342 4.137-.335 6.156a1.807 1.807 0 0 1-1.245.142c-.28-.07-.668-.24-.922-.662-.364-.603-1.095-2.838-1.215-5.509l-.014-.451c-.041-2.221.358-4.132 1.185-5.679a.444.444 0 0 0 .04-.32l.14-.138.583-.576 4.173 4.394" fill="#f4c097"/><path d="m41.533 105.583 4.173 4.394-.628.529-4.128-4.347.583-.576m29.716 7.562-.053.82H65.2l-.013-.82h6.061" fill="#ff9a95"/><path d="M90.382 53.164a1.132 1.132 0 0 0 .031.197.974.974 0 0 0 .121.29c.173.275.485.476.814.478h2.498c.084 0 .18.004.255-.007.552-.08.866-.65.964-1.152l.168-.865.081-.418.147-.756.018-.095-.066-.01-.167-.031c-.256-.051-.571-.208-.696-.443a.487.487 0 0 1-.018-.428c.078-.189.264-.317.572-.391a3.25 3.25 0 0 1 .375-.068.95.95 0 0 1-.137-.046.674.674 0 0 1-.34-.302c-.11-.221-.04-.445.195-.618.074-.055.156-.106.244-.153a.42.42 0 0 1-.339-.292.57.57 0 0 1-.023-.162.71.71 0 0 1 .016-.15.81.81 0 0 1 .123-.285.85.85 0 0 1 .22-.212l-.094.004c-.252 0-.426-.089-.496-.259a.584.584 0 0 1-.026-.328c.092-.557.509-.98 1.275-1.293a2.72 2.72 0 0 1 .39-.126l.073-.016a1.508 1.508 0 0 0-.159-.864c-.124-.228-.333-.43-.584-.462-.092-.012-.187-.005-.279-.005h-1.735c-.1 0-.202-.003-.301.005a1.53 1.53 0 0 0-.721.269c-.513.35-.821.944-.961 1.536l-.082.402-.151.76-.219 1.101-.111.562-.143.718-.257 1.29-.227 1.146-.168.844-.074.373-.005.049-.004.062.003.15" fill="#5b71d8"/><path d="m49.541 72.273.118.421.478 1.582.177.55.062-.43c.01-.055.077-.085.126-.072.058.016.081.071.072.126a7.22 7.22 0 0 0-.098.867c-.001.01-.002.021-.001.031a9.65 9.65 0 0 0 .059 1.622c.089.769.258 1.534.521 2.264a6.36 6.36 0 0 0 .402.905c.019.034.048.072.059.11.008.027 0 .056-.004.083l-.014.103-.046.348-.091.696-.18 1.383c-.021.161-.076.406.074.525s.301-.065.363-.185c.092-.175.16-.368.227-.553l.209-.635a8.66 8.66 0 0 0 .275-1.303l.036-.324c.005-.055.043-.102.102-.102s.102.047.102.102V83.28c0 .162-.013.338.048.491.022.055.06.107.115.132s.131.014.187-.015c.147-.075.202-.234.23-.386.036-.195.046-.397.067-.595l.057-.62v-.006l.002-.02.111-1.58.036-.764c.002-.055.046-.102.102-.102s.105.047.102.102l-.128 2.12-.02.242v.008c0 .167.021.335.042.5l.003.021c.023.18.054.345.096.506l.03.107c.012.028.018.051.025.071l.008.023a.84.84 0 0 0 .047.096l.011.019.012.018.017.023.037.042a.239.239 0 0 0 .161.074.22.22 0 0 0 .063-.008l.022-.007.029-.016.019-.012.007-.004.002-.002.016-.013.015-.014.005-.005.027-.029a.53.53 0 0 0 .059-.098.713.713 0 0 0 .036-.101l.008-.03.009-.027c-.002-.013.004-.025.006-.034l.01-.053.021-.129.036-.245.027-.201.014-.111c.072-.593.11-1.191.119-1.788l-.024-1.194c-.004-.055.049-.102.102-.102s.099.047.102.102l.024.728a.054.054 0 0 1 .009.025l.105.485a4.2 4.2 0 0 0 .273.702c.095.191.19.383.314.557.108.153.255.305.426.371s.35.064.475-.077c.116-.13.13-.337.106-.514-.029-.208-.134-.427-.234-.622l-.335-.695-.368-.822-.178-.414-.087-.21-.045-.108-.027-.061-.008-.027c-.004-.022-.023-.055-.025-.059-.014-.027-.023-.057-.034-.085l-.055-.137-.12-.309-.225-.605-.415-1.221-.453-1.316c-.036-.109-.077-.217-.093-.331l-.047-.348-.154-1.364-.189-2.564-.015-.353-.037-1.527c-.01-1.454.049-2.912.232-4.354l.312-1.845.323-1.222.177-.52.128-.334.051-.125.086-.201.044-.1-6.142-2.482-.13.461-.081.335c-.965 4.213.124 9.813 1.258 13.902m9.179-35.943a1.41 1.41 0 0 1 .447-.122l.005-.001c.116.007 1.217.137 1.371 2.537.273-.506.294-.988.313-1.2.057-.636-.071-.995-.179-1.657.207-.446.589-1.253.895-1.593.076.32.468.801 2.028 1.122l.024.005a3.346 3.346 0 0 1 2.393 2.012l-.212 2.302a2.76 2.76 0 0 1-1.316 2.083l-.155.085-.169.079-.088.036-.072.027.178 2.011c-.398 1.024-.944 1.599-1.625 1.706-1.358.214-2.889-1.462-3.209-1.831.145-.151.477-.55.699-1.226.259-.79.409-2.129-.352-4.016-.005-.015-.008-.019-.01-.023a.11.11 0 0 0-.021-.025c-.016-.013-.02-.016-.025-.017a.11.11 0 0 0-.049-.01h-.003a1.685 1.685 0 0 1-1.215-.387 1.12 1.12 0 0 1-.398-.8c-.025-.513.356-.922.745-1.098" fill="#f4c097"/><path d="m64.072 42.112.109 1.071c-.041-.012-.166-.071-.206-.084-.403-.136-.793-.296-1.176-.479s-.766-.374-1.104-.634a.896.896 0 0 1-.195-.189c-.059-.085-.108-.217-.052-.316.066-.122.215-.12.335-.1.613.107 1.17.42 1.766.583a2.79 2.79 0 0 0 .458.089l.154.015-.089.044m-1.927-2.284c.033.141.208.296.363.377.264.137.715.279.876.107.113-.122.204-.391.184-.544-.008-.056-.017-.066-.146-.087l-.056-.01-.649-.096-.05-.005-.205-.015a.58.58 0 0 0-.085.005.276.276 0 0 0-.202.112.177.177 0 0 0-.031.155" fill="#ff9a95"/><path d="M93.99 53.548c.182 0 .419-.251.5-.671l1.48-7.62a.99.99 0 0 0-.031-.505.533.533 0 0 0-.117-.215c-.071-.069-.161-.059-.253-.059h-1.941c-.567 0-1.099.62-1.265 1.472l-1.4 7.038c-.016.161.023.305.073.368.087.11.192.185.335.193.221.012 2.575 0 2.62 0" fill="#fff"/><path d="M53.791 63.886c-.219 1.449-.297 2.918-.304 4.382l.015 1.356.967.216 8.271 1.469 4.414.421c.169.009.411.042.691.081.922.126 2.465.339 2.909-.218a.493.493 0 0 0 .06-.094c.051-.098.053-.227.055-.341.02-1.061-.083-2.133-.182-3.17l-.138-1.605c-.087-1.305-.068-2.697.061-4.513l.212-2.426.158-1.73.069-.901c.105-1.553.111-2.806.019-3.947-.251-3.156-1.913-5.861-4.676-7.616a11.98 11.98 0 0 0-1.512-.812h-.002l-.027-.013-.508-.21c-.424 1.05-1.014 1.642-1.755 1.758a1.727 1.727 0 0 1-.278.022c-1.454 0-2.92-1.685-3.152-1.963-4.434-.23-7.73 1.881-9.8 6.273-1.428 3.031-1.743 6.164-1.787 6.678l8.025 3.22a.31.31 0 0 0 .405-.183c.936-2.66 2.416-4.839 3.877-6.797a.102.102 0 0 1 .164.122c-1.451 1.946-2.922 4.108-3.848 6.743a.51.51 0 0 1-.484.344.515.515 0 0 1-.191-.037l-.687-.275-.029.055a9.315 9.315 0 0 0-.277.681c-.116.316-.217.638-.307.963-.188.68-.326 1.373-.432 2.07m12.697-18.826.02.012.048.031c6.054 3.513 5.822 9.692 5.558 11.74l1.969.261a.24.24 0 0 0 .258-.164l.255-.797 2.321-7.24a.3.3 0 0 0-.023-.239.306.306 0 0 0-.19-.151c-2.049-.56-6.83-2.167-10.217-3.453" fill="#fc9362"/><path d="m74.823 56.101.825.111c2.521.259 5.076-.183 7.082-.619a48.97 48.97 0 0 0 7.463-2.284 1.64 1.64 0 0 1 .018-.568l.126-.633.206-1.034.251-1.264.186-.938-.111.124-.54.61a.084.084 0 0 1-.035.04l-.318.372a.102.102 0 0 1-.079.037.1.1 0 0 1-.066-.024.103.103 0 0 1-.013-.144l.147-.174-1.862.307-2.885.337-2.754.142a25.95 25.95 0 0 1-2.813-.103 16.481 16.481 0 0 1-2.039-.312l-.589-.146-.206-.059-1.995 6.222" fill="#f4c097"/><g fill="#ffcec7"><path d="m95.537 51.609.221.008c.437-.004.8-.03 1.147-.32.132-.11.246-.251.352-.406-.138.025-.285.03-.418.03l-.178-.002-.068-.001-.557-.021-.353-.031-.145.745M94.729 50.257c.094.176.354.299.556.34l.161.029.168.025a8.82 8.82 0 0 0 .981.061l.07.001c.237.005.576.012.782-.095l.018-.01a.37.37 0 0 0 .085-.066c.062-.066.087-.154.077-.27-.014-.176-.148-.342-.355-.445a1.504 1.504 0 0 0-.452-.127l-.553-.055h-.002l-.252-.007-.182.004a3.46 3.46 0 0 0-.678.092c-.239.057-.38.146-.43.268a.28.28 0 0 0 .008.254m.454-1.229a.478.478 0 0 0 .238.206.81.81 0 0 0 .156.048l.055.012.147.036.085.025.261.061.157.027.458.042.094.014.07.003c.295.012.582-.074.787-.236.158-.124.32-.387.189-.583-.194-.288-.697-.428-1.111-.44h-.061l-.181.007-.3.042-.1.021-.011.003a2.258 2.258 0 0 0-.798.354c-.152.112-.197.234-.133.361m.111-1.033c.036.121.158.15.229.157.15.015.318-.012.48-.039l.193-.029h.006a2.48 2.48 0 0 1 .291-.04c.395-.063.7-.175.939-.341.102-.071.432-.32.426-.556-.004-.148-.178-.236-.516-.262l-.213-.008a2.57 2.57 0 0 0-.743.107l-.101.033-.181.072a2.18 2.18 0 0 0-.279.154l-.122.076c-.125.075-.243.146-.318.255a.6.6 0 0 0-.091.211.43.43 0 0 0 .002.21M95.038 46.913c.071.172.398.132.496.115l.193-.039a2.67 2.67 0 0 0 .3-.088l.189-.076.085-.04.031-.015a1.95 1.95 0 0 0 .41-.284c.197-.178.378-.404.486-.606.053-.1.068-.202.041-.28a.236.236 0 0 0-.134-.14c-.195-.091-.46-.049-.6-.016a2.44 2.44 0 0 0-.359.116c-.694.283-1.07.655-1.15 1.137a.385.385 0 0 0 .013.216"/></g><path d="m48.282 58.371 5.289 2.122c0 .001.373.161.755.323l.128-.334.051-.125.086-.201.044-.1-6.143-2.482-.13.461-.081.335m26.542-2.269.825.111 1.965-6.128-.589-.146-.206-.059-1.995 6.222" fill="#ff9a95"/><g fill="#27191c"><path d="M54.68 59.986c0-.049.003-.02-.009-.002s-.02.042-.029.061l-.045.099-.097.226-.177.456-.305.965a17.695 17.695 0 0 0-.431 2.088c-.214 1.442-.296 2.902-.304 4.359l.198 4.507.165 1.568.087.663c.021.099.061.197.093.293l.147.438.249.715.695 1.982.107.275.054.137c.011.028.065.119.065.145 0 .132.205.132.205 0 0-.077-.064-.179-.092-.251l-.121-.309-.225-.604-.418-1.221-.455-1.323c-.041-.125-.093-.25-.112-.381l-.041-.301-.154-1.37-.24-4.414c-.012-1.458.046-2.92.23-4.368.173-1.372.455-2.756.996-4.033l.088-.201c.027-.058.083-.135.083-.199 0-.132-.205-.133-.205 0m-1.362 22.82a3.17 3.17 0 0 0 .056.375l.042.171c.015.055.027.142.068.184l-.027-.045a1.18 1.18 0 0 0 .108.244c.018.029.04.057.061.085l.032.036.023.022.028.023.039.029a.34.34 0 0 0 .038.021.45.45 0 0 0 .107.036.414.414 0 0 0 .223-.024.58.58 0 0 0 .309-.325l.037-.107.007-.027c.012-.039.016-.066.02-.09l.041-.251a17.08 17.08 0 0 0 .188-2.241l-.023-1.26c-.003-.055-.045-.102-.102-.102s-.106.047-.102.102a17.25 17.25 0 0 1-.014 2.118l-.105 1.053-.072.488-.01.053-.006.031c-.004.023 0 .016.002.007a1.307 1.307 0 0 1-.036.117.45.45 0 0 1-.102.171l-.031.029a.34.34 0 0 1-.028.019.24.24 0 0 1-.073.033l-.023.005h-.056a.29.29 0 0 1-.044-.013c-.012-.005-.008-.002-.025-.012s-.025-.015-.034-.023c-.032-.027.01.01-.01-.01l-.029-.028a.5.5 0 0 1-.051-.068c-.022-.036-.042-.075-.058-.115s-.025-.094-.056-.126l.027.045a2.88 2.88 0 0 1-.132-.63c-.005-.055-.044-.102-.102-.102-.052 0-.107.047-.102.102M53.424 79.915l-.129 2.12-.021.247c-.004.055.051.102.102.102.059 0 .098-.047.102-.102l.114-1.604.036-.764c.002-.055-.049-.102-.102-.102s-.1.047-.102.102"/><path d="M55.142 78.96c0 .031.018.061.029.089l.038.093.085.202.158.368.329.74.335.714c.107.213.227.423.286.656.042.169.055.374-.02.53a.369.369 0 0 1-.177.186.418.418 0 0 1-.232.025c-.403-.072-.631-.497-.803-.834a4.83 4.83 0 0 1-.312-.747 4.16 4.16 0 0 1-.13-.569c-.01-.055-.077-.085-.126-.072-.058.016-.081.071-.072.126l.011-.075c-.021.042-.014.092-.014.137v.152l-.005.286-.025.572-.105 1.133-.073.54-.023.136c-.004.018-.015.046-.014.064.002.024.007-.023-.001.012l-.013.042a.59.59 0 0 1-.092.202c-.01.014-.022.026-.033.038a.292.292 0 0 1-.091.063.205.205 0 0 1-.163 0c-.136-.057-.2-.225-.24-.355a3.75 3.75 0 0 1-.117-.545 3.952 3.952 0 0 1-.054-.585c0-.132-.205-.133-.205 0 0 .184.025.372.049.555s.057.373.107.555c.046.168.109.345.237.469a.43.43 0 0 0 .649-.044.76.76 0 0 0 .134-.245l.02-.067.012-.048.029-.151.041-.29.133-1.208.049-1.363-.014.051a.123.123 0 0 0 .011-.084c-.01-.055-.077-.085-.126-.072-.058.016-.081.071-.072.126.029.171.062.342.111.508a4.54 4.54 0 0 0 .295.745c.194.39.42.84.853 1.004.207.079.445.065.62-.078s.234-.379.228-.594c-.005-.242-.089-.469-.192-.684l-.175-.346-.176-.37-.674-1.526-.039-.092-.019-.046c-.003-.007-.018-.054-.018-.027 0-.132-.205-.133-.205 0"/><path d="m53.274 82.286-.107 1.104c-.018.149-.045.318-.154.429-.094.097-.261.146-.355.021-.085-.111-.087-.277-.087-.409v-3.044c0-.055-.047-.102-.102-.102s-.098.047-.102.102a9.014 9.014 0 0 1-.625 2.539l-.121.277a.432.432 0 0 1-.176.197c-.158.078-.27-.07-.284-.216-.011-.11.009-.222.023-.331l.045-.348.089-.687.182-1.392c.007-.053.031-.126.016-.178-.011-.04-.042-.079-.061-.115l-.109-.209-.199-.449a9.822 9.822 0 0 1-.577-2.219 9.35 9.35 0 0 1-.044-2.495l.048-.31c.01-.055-.015-.111-.072-.126-.05-.014-.117.017-.126.072-.149.845-.146 1.715-.048 2.566.09.791.26 1.577.529 2.327a6.5 6.5 0 0 0 .471 1.04l-.014-.052-.193 1.477-.096.734-.048.366c-.016.118-.035.238-.021.357.025.207.163.411.389.417.232.006.39-.189.478-.38.19-.411.337-.848.458-1.284a8.96 8.96 0 0 0 .288-1.576h-.205v2.494l.002.617c.006.17.031.361.15.493.134.148.344.161.514.069s.264-.267.305-.448c.049-.215.057-.441.081-.66l.061-.666c.005-.055-.051-.102-.102-.102-.059 0-.098.047-.102.102M95.75 51.821a7.46 7.46 0 0 1-.342-.015c-.057-.003-.1-.051-.097-.107s.053-.099.108-.097l.338.014c.437-.004.799-.03 1.147-.32.197-.165.355-.4.51-.647.031-.048.094-.061.141-.031s.062.094.032.141c-.165.261-.332.511-.553.694-.399.333-.814.364-1.277.368"/><path d="M96.011 49.639c-.312 0-.596.031-.861.095-.238.057-.379.146-.43.269a.283.283 0 0 0 .009.254c.094.175.354.299.556.34l.16.029a7.92 7.92 0 0 0 1.15.085l.07.002c.283.005.71.014.885-.171.061-.066.087-.154.077-.269-.015-.176-.148-.342-.356-.445-.159-.079-.337-.114-.555-.141a5.52 5.52 0 0 0-.704-.048zm.827 1.282a7.55 7.55 0 0 1-.179-.003l-.068-.001a8.241 8.241 0 0 1-1.179-.088l-.168-.031c-.255-.052-.57-.209-.696-.444a.486.486 0 0 1-.017-.428c.077-.189.264-.316.572-.39.476-.115 1.012-.132 1.639-.052.206.027.424.064.62.161.273.135.447.364.469.612a.535.535 0 0 1-.132.427c-.195.208-.559.237-.86.237"/><path d="M96.708 48.24c-.496 0-1.036.164-1.391.426-.152.113-.197.234-.133.361a.47.47 0 0 0 .238.206.898.898 0 0 0 .157.048l.055.012.146.036.346.085a5.45 5.45 0 0 0 .777.085c.295.012.583-.074.788-.236.158-.124.32-.388.189-.583-.195-.288-.698-.428-1.111-.44h-.061zm.253 1.466-.066-.001a5.744 5.744 0 0 1-.807-.088 3.385 3.385 0 0 1-.366-.09 1.55 1.55 0 0 0-.132-.032l-.058-.013a1.12 1.12 0 0 1-.193-.061.67.67 0 0 1-.339-.301c-.111-.221-.04-.446.194-.618.404-.298 1.025-.48 1.579-.465.431.012 1.024.158 1.275.531.193.286.025.656-.231.858a1.382 1.382 0 0 1-.857.281"/><path d="M95.195 47.765zm1.936-.887c-.296 0-.585.048-.846.141l-.16.062a2.185 2.185 0 0 0-.299.163l-.122.076c-.124.075-.242.146-.318.255a.6.6 0 0 0-.091.211.42.42 0 0 0 .002.21c.036.121.158.15.229.157.15.015.317-.013.479-.04l.197-.029.292-.041c.393-.062.7-.174.939-.341.101-.07.431-.319.426-.555-.004-.148-.178-.236-.516-.262l-.212-.008zm-1.516 1.485a.994.994 0 0 1-.109-.005c-.206-.02-.354-.13-.405-.303a.642.642 0 0 1-.005-.312.818.818 0 0 1 .122-.284c.101-.146.243-.231.381-.314l.115-.072c.1-.066.211-.126.329-.179l.175-.069c.35-.124.745-.174 1.142-.143.461.036.698.191.705.46.008.318-.318.593-.512.73-.265.184-.6.307-1.025.375l-.299.042-.189.028a2.6 2.6 0 0 1-.424.046"/><path d="M96.844 45.405a1.41 1.41 0 0 0-.31.039 2.44 2.44 0 0 0-.359.116c-.695.283-1.07.655-1.15 1.136a.395.395 0 0 0 .012.216c.072.172.398.133.497.116l.193-.039a2.75 2.75 0 0 0 .605-.219 1.91 1.91 0 0 0 .409-.285 2.34 2.34 0 0 0 .486-.605.37.37 0 0 0 .042-.281.243.243 0 0 0-.134-.139.697.697 0 0 0-.29-.055zm-1.094 1.684zm-.405.161c-.253 0-.426-.089-.497-.26a.59.59 0 0 1-.025-.327c.092-.557.508-.98 1.275-1.293a2.66 2.66 0 0 1 .389-.126c.166-.039.482-.087.733.03a.44.44 0 0 1 .242.26.561.561 0 0 1-.054.441c-.12.225-.313.467-.53.662a2.11 2.11 0 0 1-.453.314c-.194.1-.419.182-.651.236l-.206.042a1.4 1.4 0 0 1-.223.02m-31.057-3.068a.102.102 0 0 1-.102-.093l-.181-2.035.072-.027.089-.036.169-.079.155-.085a2.76 2.76 0 0 0 1.315-2.083l.328-3.55a3.223 3.223 0 0 0-.544-2.11l-.005-.007-.049-.068a3.18 3.18 0 0 0-1.521-1.139l-.156-.052-.154-.046-.088-.024-.306-.068-.198-.031-.151-.016a3.244 3.244 0 0 0-.616.005l-.087.011-.171.029-.066.013-.124.031-.061.017-.166.055-.068.025-.146.061-.141.068-.205.115-.202.134-.13.099-.258.222-.21.212a4.142 4.142 0 0 0-1.052 2.393.103.103 0 0 1-.204-.019 4.348 4.348 0 0 1 1.105-2.512l.221-.223.271-.233.139-.105.214-.142.219-.124.151-.072.15-.064.081-.03.174-.057.06-.017.14-.035.068-.014.184-.031.093-.011a3.28 3.28 0 0 1 .655-.006l.159.016.21.033.319.07.094.026.16.048.163.054a3.39 3.39 0 0 1 1.618 1.211l.051.072.005.008c.447.658.653 1.455.579 2.245l-.328 3.55A2.927 2.927 0 0 1 64.594 42l-.167.092-.182.085-.023.01.167 1.881a.102.102 0 0 1-.093.111m-1.932-4.72zm.099.096a.58.58 0 0 0-.085.005.272.272 0 0 0-.201.113.176.176 0 0 0-.032.154c.034.141.208.296.363.377.264.138.716.279.876.107.113-.121.204-.391.184-.543-.008-.057-.017-.066-.146-.087l-.055-.01-.65-.095-.049-.005-.206-.016zm.686 1.04c-.322 0-.68-.18-.735-.208-.147-.077-.411-.271-.468-.512a.387.387 0 0 1 .064-.322.48.48 0 0 1 .34-.196c.114-.016.234-.002.341.01l.048.005.665.098.051.009c.121.02.287.047.316.263a1.02 1.02 0 0 1-.237.709.507.507 0 0 1-.386.145"/><path d="M59.461 38.832a1.89 1.89 0 0 1-1.221-.443 1.322 1.322 0 0 1-.467-.944c-.026-.527.322-1.048.864-1.295a1.66 1.66 0 0 1 .51-.139c.056-.005.107.035.113.092s-.036.107-.092.112a1.45 1.45 0 0 0-.446.122c-.389.177-.77.585-.745 1.099.015.308.152.585.398.799.313.275.779.423 1.215.387.057-.003.106.038.111.094s-.038.106-.094.111l-.146.005m-1.014-1.26a.102.102 0 0 1-.042-.009.104.104 0 0 1-.051-.136c.213-.471.745-.443 1.001-.43.057.003.1.051.097.108s-.053.098-.107.097c-.389-.02-.675.025-.804.31a.103.103 0 0 1-.094.06"/><path d="M59.203 37.853a.1.1 0 0 1-.028-.004.756.756 0 0 1-.534-.623c-.006-.056.033-.107.09-.113s.107.033.113.089a.546.546 0 0 0 .385.45.102.102 0 0 1-.027.201m4.052.804a.33.33 0 0 1-.058-.005c-.133-.019-.245-.094-.335-.153-.047-.031-.06-.095-.029-.142s.095-.06.142-.029a.665.665 0 0 0 .253.122c.064.009.145-.013.169-.067.026-.06-.014-.15-.053-.228l-.273-.542c-.025-.051-.005-.112.046-.137s.112-.005.137.046l.273.541c.044.087.125.249.057.403-.057.13-.199.191-.328.191m-4.045 5.376a.099.099 0 0 1-.077-.036.102.102 0 0 1 .01-.144c.018-.016 1.771-1.599.36-5.091-.021-.053.004-.112.056-.133s.113.004.134.057c.764 1.893.615 3.235.355 4.027-.285.867-.751 1.278-.771 1.295s-.043.025-.067.025m-8.837 31.396a.103.103 0 0 1-.097-.07l-.334-1.018-.48-1.592-.119-.423c-1.225-4.412-2.395-10.582-1.012-14.917a.102.102 0 0 1 .2.028v.016l-.005.016c-1.368 4.287-.204 10.416 1.014 14.803l.118.421c.154.541.316 1.075.479 1.586l.333 1.014a.102.102 0 0 1-.097.135"/><path d="M55.713 60.43a.51.51 0 0 1-.19-.037l-8.165-3.277.005-.073c.003-.035.241-3.488 1.81-6.822.924-1.963 2.121-3.502 3.56-4.576 1.8-1.344 3.982-1.955 6.483-1.817.057.003.1.052.097.109s-.052.1-.108.096c-4.458-.247-7.771 1.866-9.847 6.276-1.426 3.031-1.741 6.16-1.785 6.674l.274.112 7.752 3.108a.31.31 0 0 0 .241-.005.302.302 0 0 0 .163-.178c.936-2.66 2.417-4.839 3.877-6.797a.102.102 0 0 1 .164.122c-1.452 1.946-2.922 4.109-3.849 6.743a.51.51 0 0 1-.484.342m34.498-10.972-2.148.361-2.853.333-2.743.141a26.26 26.26 0 0 1-2.791-.101 15.33 15.33 0 0 1-2.596-.452l-.301-.087c-.126-.038-.18.159-.055.197.842.256 1.713.411 2.587.509a24.52 24.52 0 0 0 2.803.141l2.773-.117 2.879-.316 2.294-.372.205-.039c.129-.025.074-.222-.055-.197m-13.003 7.035c-.842 0-1.693-.061-2.533-.211-.056-.01-.093-.063-.083-.119s.064-.092.119-.083c2.816.5 5.766.001 8.023-.488a49.175 49.175 0 0 0 7.544-2.315c.053-.021.112.005.133.058s-.005.112-.058.133a49.25 49.25 0 0 1-7.575 2.325c-1.604.348-3.557.701-5.569.701"/><path d="M74.111 57.314a.41.41 0 0 1-.057-.004l-1.971-.261-.942-.129a.102.102 0 0 1 .028-.202l.941.129 1.969.261a.24.24 0 0 0 .259-.165l2.576-8.036a.31.31 0 0 0-.023-.24.312.312 0 0 0-.191-.151c-2.403-.657-8.558-2.752-11.821-4.082h-.005l-.02-.01-.607-.253a.102.102 0 1 1 .08-.189l.599.249.012.005c3.252 1.327 9.414 3.424 11.817 4.081a.51.51 0 0 1 .316.251.508.508 0 0 1 .038.4l-2.576 8.036a.446.446 0 0 1-.422.309"/><path d="M62.312 45.994c-1.549 0-3.111-1.911-3.181-1.997-.036-.044-.029-.109.015-.144s.109-.029.144.015c.018.022 1.752 2.142 3.268 1.903.686-.108 1.236-.689 1.635-1.728.02-.053.079-.079.133-.059s.079.079.059.133c-.427 1.112-1.031 1.737-1.794 1.857a1.872 1.872 0 0 1-.279.021"/><path d="M69.468 72.164c-.557 0-1.163-.083-1.65-.15l-.674-.079-4.431-.422-8.288-1.471-1.045-.234c-.055-.013-.089-.068-.077-.123s.068-.09.123-.077l1.043.234 8.27 1.469 4.414.421c.17.008.411.042.691.08.925.128 2.474.341 2.913-.222a.48.48 0 0 0 .057-.089c.05-.098.053-.227.055-.341.02-1.061-.082-2.133-.182-3.17l-.137-1.606c-.087-1.305-.068-2.697.061-4.513l.212-2.426.158-1.73.07-.902c.105-1.549.111-2.803.019-3.947-.252-3.155-1.913-5.86-4.677-7.616-.48-.305-.991-.578-1.517-.814h-.004l-.025-.012-.598-.249a.102.102 0 1 1 .074-.191l.596.247.021.009a12.27 12.27 0 0 1 1.562.838c2.819 1.79 4.513 4.551 4.771 7.772.092 1.154.086 2.418-.019 3.978l-.07.904-.158 1.732-.212 2.421c-.128 1.806-.148 3.19-.061 4.485l.137 1.601.182 3.193c-.003.13-.005.29-.077.43a.78.78 0 0 1-.079.123c-.27.345-.831.449-1.452.449m20.434-22.112a.103.103 0 0 1-.079-.169l.339-.396.561-.634.359-.403c.038-.042.102-.046.145-.009s.046.102.008.145l-.359.404-.559.632-.336.393a.103.103 0 0 1-.079.037"/><path d="M96.751 45.345c.051-.35.011-.707-.143-1.027-.128-.266-.348-.503-.637-.591-.121-.037-.245-.034-.369-.034H93.849c-.092 0-.185-.003-.277.001a1.69 1.69 0 0 0-.805.246c-.549.33-.908.913-1.09 1.516-.055.184-.09.372-.127.559l-.148.745-.219 1.105-.259 1.301-.262 1.316-.232 1.166-.169.85-.07.355c-.053.308.008.668.185.929.217.321.579.55.972.553h2.501c.102 0 .204.001.306-.014.619-.096.995-.722 1.106-1.288l.163-.837.234-1.202.042-.214c.01-.055-.016-.111-.072-.126s-.115.017-.126.072l-.146.756-.236 1.212-.055.282a1.75 1.75 0 0 1-.32.744c-.162.208-.398.376-.654.406-.084.01-.171.005-.255.005h-2.487a1.01 1.01 0 0 1-.83-.506 1.092 1.092 0 0 1-.137-.496v-.141l.005-.071c0-.004.005-.032 0-.008l.026-.13.126-.637.202-1.018.247-1.24.26-1.308.24-1.207.187-.943.105-.523c.08-.403.21-.789.435-1.135.295-.454.766-.829 1.312-.866.096-.007.193-.003.289-.003H95.551c.092 0 .199-.008.281.007.264.046.46.249.582.485a1.51 1.51 0 0 1 .138.9c-.007.055.014.11.072.126.049.014.118-.016.126-.071m-25.019 67.799h-6.902a.444.444 0 0 1-.437-.365l-3.697-20.417-.008-.007v-.033l-.021-.112h.109a.105.105 0 0 1 .091.033l.044.042-.015.038 3.698 20.419a.24.24 0 0 0 .236.197h6.902a.24.24 0 0 0 .236-.198c.47-2.698 2.806-16.405 2.611-21.353-.168-4.255-2.46-14.201-3.811-19.751-.014-.055.021-.111.075-.124s.111.021.124.076c1.353 5.557 3.648 15.519 3.817 19.791.195 4.968-2.143 18.695-2.614 21.396a.445.445 0 0 1-.438.368"/><path d="M46.473 110.584a.44.44 0 0 1-.322-.138l-5.411-5.699a.44.44 0 0 1-.066-.522l7.003-12.552 1.269-20.877c.004-.057.053-.099.109-.096s.1.052.096.109l-1.272 20.923-.011.021-7.015 12.572a.236.236 0 0 0 .036.281l5.411 5.699a.24.24 0 0 0 .335.012c1.707-1.573 10.35-9.652 12.83-14.325.263-.495.52-1.155.765-1.962a26.46 26.46 0 0 0 .46-1.74l.008-.03c1.2-5.175 1.806-12.931 1.963-15.188l.045-.686c.004-.057.052-.098.109-.096s.1.053.096.109l-.045.687c-.157 2.264-.765 10.049-1.972 15.238v.032l-.01.01a26.61 26.61 0 0 1-.457 1.724c-.249.82-.511 1.492-.78 1.998-2.495 4.703-11.16 12.804-12.872 14.38a.44.44 0 0 1-.3.117m18.627 3.717a.102.102 0 0 1-.102-.101l-.019-1.157c0-.056.044-.103.101-.104s.103.044.104.101l.019 1.157a.103.103 0 0 1-.1.104m10.732 6.935a.097.097 0 0 1-.029-.004c-2.211-.655-3.701-2.226-4.309-4.544a10.155 10.155 0 0 1-.235-3.661c.007-.056.059-.095.115-.087s.095.06.087.116a9.93 9.93 0 0 0 .23 3.58c.597 2.277 2 3.757 4.17 4.399a.103.103 0 0 1-.029.201"/><path d="M64.979 114.279a.238.238 0 0 0-.226.154c-.24.609-.534 1.665-.57 3.241l-.072 5.984a.348.348 0 0 0 .347.351h.926a.35.35 0 0 0 .347-.344l.045-4.421a.26.26 0 0 1 .178-.248.262.262 0 0 1 .294.085l.081.098c.611.737 1.64 1.683 2.685 2.47 1.474 1.111 2.906 1.861 4.03 2.114 1.887.423 3.017.219 3.633-.026.722-.288 1.506-.809 1.52-1.276.007-.215-.165-.406-.509-.568-.317-.149-1.295-.469-1.765-.623l-.015-.005c-.13.444-.441.853-.846 1.109a1.674 1.674 0 0 1-1.271.234c-.815-.183-2.938-1.257-4.907-2.981l-.339-.305c-1.657-1.532-2.779-3.171-3.334-4.873a.24.24 0 0 0-.225-.169zm.405 9.935h-.926a.55.55 0 0 1-.393-.164.546.546 0 0 1-.159-.395l.072-5.984c.037-1.607.338-2.688.584-3.313a.44.44 0 0 1 .43-.284.445.445 0 0 1 .415.309c.544 1.668 1.648 3.279 3.278 4.787l.335.301c2.011 1.762 4.13 2.782 4.817 2.936.48.109.872-.053 1.116-.208.393-.248.686-.655.783-1.089l.025-.11.226.075 1.788.632c.426.2.637.456.627.76-.018.601-.9 1.162-1.649 1.46-.643.256-1.816.47-3.753.035-1.478-.331-3.05-1.352-4.11-2.149s-2.099-1.754-2.72-2.502l-.083-.102c-.024-.03-.055-.024-.067-.02s-.04.018-.04.057l-.045 4.421a.554.554 0 0 1-.552.546m-24.691-17.841a.1.1 0 0 1-.073-.031.103.103 0 0 1 .001-.145l.843-.833a.103.103 0 0 1 .144.146l-.842.833a.102.102 0 0 1-.072.029m2.423 12.549a.102.102 0 0 1-.072-.03l-.011-.011-.008-.015c-1.056-2.046-.956-4.205.29-6.245a10.18 10.18 0 0 1 2.483-2.712.102.102 0 1 1 .12.166 9.93 9.93 0 0 0-2.429 2.653c-1.223 2.002-1.319 4.035-.284 6.042a.103.103 0 0 1-.017.122.104.104 0 0 1-.073.03"/><path d="M37.697 110.175a.265.265 0 0 1 .263.301l-.015.126c-.109.951-.08 2.349.076 3.647.219 1.833.668 3.386 1.265 4.372 1 1.654 1.929 2.329 2.533 2.603.707.323 1.626.527 1.973.215.16-.144.179-.4.057-.761-.112-.331-.557-1.258-.771-1.704l-.008-.016a2.01 2.01 0 0 1-1.385.157 1.677 1.677 0 0 1-1.049-.755c-.432-.715-1.126-2.991-1.245-5.606l-.014-.456c-.041-2.256.366-4.201 1.21-5.779.059-.112.021-.218-.034-.28s-.156-.11-.273-.061c-.606.248-1.572.768-2.734 1.831l-4.369 4.089a.347.347 0 0 0-.013.494l.641.668c.131.137.35.143.488.013l3.221-3.027a.263.263 0 0 1 .181-.073zm5.55 11.626c-.473 0-1.049-.177-1.513-.389-.63-.286-1.596-.985-2.623-2.684-.784-1.296-1.135-3.137-1.293-4.454s-.186-2.728-.076-3.694l.016-.13c.005-.038-.021-.056-.032-.061s-.041-.017-.069.01l-3.222 3.027a.553.553 0 0 1-.776-.02l-.641-.669a.55.55 0 0 1-.154-.397.545.545 0 0 1 .175-.388l4.369-4.09c1.185-1.085 2.174-1.616 2.795-1.871a.444.444 0 0 1 .502.114.45.45 0 0 1 .064.514c-.827 1.547-1.226 3.458-1.186 5.679l.014.451c.121 2.671.851 4.906 1.215 5.509.254.421.641.592.922.662a1.79 1.79 0 0 0 1.328-.189l.096-.059.104.216.781 1.728c.15.445.112.774-.114.978-.165.148-.406.208-.682.208m21.518-84.936a.44.44 0 0 0-.457.419.44.44 0 0 0 .419.457.44.44 0 0 0 .457-.419.44.44 0 0 0-.419-.458m-2.96-.34a.44.44 0 0 0-.458.419.44.44 0 0 0 .419.458.44.44 0 0 0 .458-.419.44.44 0 0 0-.419-.457m5.43 1.624a.38.38 0 0 1-.072-.341 7.25 7.25 0 0 0 .191-2.695 3.004 3.004 0 0 0-.256-.845c-.888-1.948-3.2-2.795-5.164-1.944l-.511.222c.055-.447-.038-.877-.301-1.221-.644-.843-2.056-.844-3.154-.004s-1.465 2.204-.821 3.045a1.54 1.54 0 0 0 .298.294l.25.125c-.666 1.032-.62 2.31-.391 3.474a4.68 4.68 0 0 0 .633 1.598c.376.602.701 1.027 1.341 1.393a10.4 10.4 0 0 0 .821.376l.071-.159-.15-1.607-.309-.896c-.01-.068-.059-.164-.08-.23-.016.023-.203.009-.236.009a1.8 1.8 0 0 1-.484-.079 1.15 1.15 0 0 1-.568-.354c-.077-.092-.157-.179-.218-.283a1.26 1.26 0 0 1-.145-.373 1.184 1.184 0 0 1 .107-.797c.143-.275.386-.493.669-.619a1.56 1.56 0 0 1 .238-.083c.016-.004.156-.029.215-.039l-.043.096s1.219.003 1.381 2.538c.273-.506.294-.989.313-1.2.058-.637-.071-.996-.179-1.658.207-.445.59-1.253.895-1.593.076.321.468.801 2.028 1.122l.024.005a3.343 3.343 0 0 1 2.393 2.013l.626 1.568c.365.818-.247 1.25-.87 1.646-.919.584-.802 1.963-.255 2.531-.019-.046-.634-1.557.9-2.13 1.129-.422 1.334-2.263.816-2.907m-.794 6.896.005.118c2.586 1.642 4.45 4.263 4.724 7.694.105 1.314.07 2.638-.019 3.962l.942.129c.27-1.948.618-8.347-5.652-11.904m-5.655 47.268.478 2.641c2.301-8.112 1.878-12.82 1.642-18.569l-.148.695c-.162 2.325-.766 10.052-1.972 15.233"/></g><defs><path id="a" d="M13.083 47.193a1.163 1.163 0 1 0 0-2.326 1.163 1.163 0 0 0 0 2.326"/><path id="b" d="M62.547 17.39a1.163 1.163 0 1 0 0-2.326 1.163 1.163 0 0 0 0 2.326"/></defs></svg>