<svg xmlns="http://www.w3.org/2000/svg" width="500" height="500" viewBox="0 0 132.292 132.292" xmlns:v="https://vecta.io/nano"><style><![CDATA[.B{fill:#27191c}.C{fill:#fff}.D{fill:#f4c097}.E{fill:#ff9a95}.F{fill:#fc9362}.G{fill:#838ee8}]]></style><path d="M105.221 61.614c0 25.419-20.607 46.026-46.026 46.026S13.168 87.033 13.168 61.614s20.607-46.027 46.027-46.027 46.026 20.607 46.026 46.027" fill="#8662c7"/><path d="M98.246 61.614c0 21.567-17.484 39.05-39.051 39.05s-39.052-17.483-39.052-39.05 17.484-39.052 39.052-39.052 39.05 17.484 39.05 39.052" class="C"/><path d="M71.734 65.542a5.988 5.988 0 0 0-4.362 1.891l-14.71-5.786c.001-.023.007-.046.007-.07l14.703-5.783a5.988 5.988 0 0 0 4.362 1.892 6.019 6.019 0 0 0 0-12.038 6.016 6.016 0 0 0-6.014 5.973l-14.703 5.784a5.987 5.987 0 0 0-4.362-1.892 6.019 6.019 0 1 0 4.26 10.27l14.805 5.823a6.016 6.016 0 0 0 12.033-.045 6.019 6.019 0 0 0-6.019-6.019" fill="#8662c7"/><g class="B"><path d="M59.195 15.692c-25.322 0-45.922 20.6-45.922 45.922s20.6 45.922 45.922 45.922 45.922-20.601 45.922-45.922-20.601-45.922-45.922-45.922zm0 92.052a45.844 45.844 0 0 1-17.956-3.625 45.99 45.99 0 0 1-14.664-9.886A45.977 45.977 0 0 1 16.69 79.57a45.846 45.846 0 0 1-3.625-17.956c0-6.228 1.22-12.269 3.625-17.957a45.977 45.977 0 0 1 9.886-14.663 45.978 45.978 0 0 1 14.664-9.886 45.844 45.844 0 0 1 17.956-3.625c6.227 0 12.269 1.22 17.955 3.625a45.982 45.982 0 0 1 14.664 9.886 45.977 45.977 0 0 1 9.886 14.663 45.834 45.834 0 0 1 3.626 17.957c0 6.227-1.22 12.269-3.626 17.956a45.977 45.977 0 0 1-9.886 14.663 45.993 45.993 0 0 1-14.664 9.886 45.842 45.842 0 0 1-17.955 3.625m-.001-85.078c-21.476 0-38.947 17.472-38.947 38.948s17.471 38.946 38.947 38.946 38.946-17.471 38.946-38.946S80.67 22.666 59.195 22.666zm0 78.103a38.9 38.9 0 0 1-15.241-3.077A39.026 39.026 0 0 1 31.507 89.3a39.026 39.026 0 0 1-8.39-12.446 38.909 38.909 0 0 1-3.078-15.241 38.904 38.904 0 0 1 3.077-15.241 39.029 39.029 0 0 1 8.391-12.447 39.026 39.026 0 0 1 12.447-8.391 38.913 38.913 0 0 1 15.24-3.077 38.913 38.913 0 0 1 15.242 3.077 39.026 39.026 0 0 1 12.446 8.391 39.029 39.029 0 0 1 8.391 12.447 38.908 38.908 0 0 1 3.077 15.24 38.913 38.913 0 0 1-3.077 15.242A39.026 39.026 0 0 1 86.882 89.3a39.026 39.026 0 0 1-12.446 8.39 38.9 38.9 0 0 1-15.241 3.078"/><path d="M50.89 65.66l.063.026 14.87 5.85.001.07c.025 3.236 2.676 5.87 5.91 5.87a5.921 5.921 0 0 0 5.914-5.915 5.921 5.921 0 0 0-5.914-5.915c-1.63 0-3.151.66-4.286 1.86l-.048.05-.066-.026-14.777-5.813.001-.072a.25.25 0 0 1 .005-.047l.002-.021v-.07l.066-.026 14.769-5.81.048.051a5.855 5.855 0 0 0 4.286 1.86 5.921 5.921 0 0 0 5.914-5.916 5.92 5.92 0 0 0-5.914-5.914 5.93 5.93 0 0 0-5.91 5.87v.07l-.066.026-14.768 5.809-.049-.05a5.853 5.853 0 0 0-4.286-1.86 5.921 5.921 0 0 0-5.914 5.915 5.922 5.922 0 0 0 5.914 5.915 5.874 5.874 0 0 0 4.186-1.737zm20.844 12.024a6.076 6.076 0 0 1-4.312-1.779 6.087 6.087 0 0 1-1.805-4.227L50.94 65.905a6.08 6.08 0 0 1-4.285 1.75 6.13 6.13 0 0 1-6.123-6.123 6.13 6.13 0 0 1 6.123-6.123 6.06 6.06 0 0 1 4.39 1.872l14.572-5.732c.03-1.599.67-3.098 1.805-4.228a6.078 6.078 0 0 1 4.312-1.778 6.13 6.13 0 0 1 6.123 6.123 6.13 6.13 0 0 1-6.123 6.124 6.057 6.057 0 0 1-4.389-1.873l-14.482 5.697 14.482 5.696a6.059 6.059 0 0 1 4.39-1.872 6.13 6.13 0 0 1 6.122 6.123 6.13 6.13 0 0 1-6.123 6.123"/></g><path d="M15.208 29.154c.256-.46.793-.387 1.051-.352a.104.104 0 1 1-.028.207 1.468 1.468 0 0 0-.502-.003.562.562 0 0 0 .35.45.104.104 0 0 1-.074.196.77.77 0 0 1-.474-.559.508.508 0 0 0-.141.163.105.105 0 0 1-.142.04.104.104 0 0 1-.04-.142zm3.62 2.009a.251.251 0 0 1 .235-.073l1.433.299a.25.25 0 0 1 .179.348c-.114.249-.37.58-.712.695a.749.749 0 0 1-.237.04.747.747 0 0 1-.357-.094c-.33-.18-.51-.63-.601-.976a.254.254 0 0 1 .06-.24zm1.496-.838c-.063.117-.192.168-.314.168a.413.413 0 0 1-.093-.01c-.133-.032-.24-.117-.328-.184a.104.104 0 1 1 .129-.165.694.694 0 0 0 .246.146c.065.014.148-.002.177-.054.032-.06-.002-.153-.035-.236l-.23-.573a.104.104 0 1 1 .192-.078l.231.573c.037.091.107.263.025.413zm-5.08-.237c.272.25.653.391 1.042.385h.004l.015.001.01.003c.01.002.018.006.026.011l.01.006.01.01.01.012c.005.006.01.012.012.02a4.64 4.64 0 0 1 .423 1.4l.012.117.034.372c.072 1.114-.371 2.3-1.218 3.27l3.017 3.226a.45.45 0 0 1 .115.387l-.12.677a42.185 42.185 0 0 1 1.517 2.335 24.516 24.516 0 0 1 1.673 3.36c.152-.987.228-1.985.222-2.984-.006-.92-.08-1.84-.232-2.744-.117-.704-.28-1.4-.493-2.082a13.992 13.992 0 0 0-.415-1.146h-.001v-.001l-.002-.005v-.002l-.003-.004-.005-.013-.016-.036-.055-.127-.26-.53-.001-.001v-.001l-.002-.002-.003-.004-.005-.009-.003-.009-.001-.001-.002-.005v-.004l-.002-.004v-.004l-.002-.004v-.003l-.001-.008v-.005l-.035-.27v-.008l.036-1.28.01-.066.064-.019a4.025 4.025 0 0 0 .27-.094 2.837 2.837 0 0 0 .67-.393l.06-.048.06-.054a2.624 2.624 0 0 0 .175-.17l.047-.05.045-.05.008-.011.058-.071a1.34 1.34 0 0 0 .048-.062c.01-.011.017-.022.028-.038a1.413 1.413 0 0 0 .049-.07l.034-.053a1.1 1.1 0 0 0 .059-.096l.013-.022a1.99 1.99 0 0 0 .08-.15l.021-.047.003-.006.021-.045.041-.097a2.724 2.724 0 0 0 .154-.544l.631-3.575c.184-.975-.134-2.048-.83-2.8-.972-1.05-2.62-1.402-3.919-.834-.628.275-1.183.769-1.605 1.428a4.303 4.303 0 0 0-.613 1.56.071.071 0 0 1-.007.021.085.085 0 0 1-.025.036l-.011.01h-.001l-.017.01a.106.106 0 0 1-.019.006.111.111 0 0 1-.02.002h-.01c-.547.015-1.034.328-1.216.779-.178.442-.044.971.333 1.317" class="D"/><path d="M18.97 31.348c.066.251.22.696.498.846a.53.53 0 0 0 .43.04c.26-.087.483-.356.588-.584a.038.038 0 0 0-.002-.034.046.046 0 0 0-.03-.024l-1.434-.298-.01-.001a.04.04 0 0 0-.03.014.042.042 0 0 0-.01.041m1.677 3.061L20.56 35.5c-.04-.019-.153-.101-.191-.121a10.76 10.76 0 0 1-1.09-.696c-.348-.254-.698-.515-.989-.837a.923.923 0 0 1-.16-.225c-.045-.095-.07-.236.005-.325.089-.11.238-.082.354-.04.595.22 1.095.636 1.661.908.142.07.289.128.442.173l.152.043a2.32 2.32 0 0 1-.097.028" class="E"/><path d="M6.743 117.02a.352.352 0 0 0 .352.359l.943.005h.001c.192 0 .35-.156.354-.349l.062-4.499a.268.268 0 0 1 .183-.252.268.268 0 0 1 .299.088l.081.1c.62.753 1.664 1.72 2.724 2.525 1.497 1.136 2.95 1.906 4.095 2.167 1.918.437 3.07.234 3.698-.012.736-.29 1.536-.818 1.553-1.293.007-.22-.167-.414-.517-.58-.32-.152-1.314-.482-1.792-.64l-.018-.008a2.047 2.047 0 0 1-.865 1.126 1.71 1.71 0 0 1-1.294.233c-.829-.19-2.986-1.292-4.984-3.055l-.343-.311c-1.68-1.566-2.816-3.24-3.375-4.974a.245.245 0 0 0-.23-.172.24.24 0 0 0-.237.156c-.247.619-.55 1.693-.593 3.295l-.097 6.092m9.871-3.694c.477.376 1.024.68 1.63.909l.023-1.663a.268.268 0 0 1 .183-.252.266.266 0 0 1 .298.087l.082.101c.62.753 1.664 1.72 2.724 2.524 1.497 1.137 2.95 1.907 4.095 2.167 1.918.438 3.07.235 3.698-.011.736-.29 1.536-.818 1.553-1.293.007-.22-.167-.415-.517-.58-.32-.153-1.314-.482-1.79-.64l-.02-.007a2.052 2.052 0 0 1-.865 1.126c-.4.25-.86.333-1.294.232-.829-.189-2.986-1.29-4.984-3.054a19.044 19.044 0 0 1-.343-.311c-1.68-1.566-2.816-3.24-3.375-4.974a.246.246 0 0 0-.25-.173.241.241 0 0 0-.217.156c-.247.619-.55 1.693-.593 3.296l-.038 2.36" fill="#3897e9"/><path d="M31.98 63.509c-.762.161-3.545.542-4.581.67l.023-1.24.585-7.994.438-3.987.485-3.844.078-1.324c2.116 6.398 2.776 14.202 2.972 17.719" class="F"/><path d="M4.764 83.256c.18.249.39.422.665.557a13.277 13.277 0 0 0 .411.195 16.31 16.31 0 0 0 1.986.747 24.02 24.02 0 0 0 5.063.95 30.566 30.566 0 0 0 4.17.044c2.013-.109 4.018-.392 5.993-.78a58.4 58.4 0 0 0 3.62-.823l1.042-.287c.171-.05.384-.08.529-.189.17-.128.215-.323.176-.523l-.26-1.267a46.837 46.837 0 0 1-.397-2.484c-.46-3.443-.575-6.922-.592-10.392l.023-4.675a.101.101 0 0 1 .002-.067c.038-1.947.117-3.892.275-5.835.146-1.8.333-3.596.521-5.391.184-1.75.48-3.484.666-5.233.09-.862.15-1.728.153-2.595-1.665-4.763-4.178-8.626-7.965-9.136a7.2 7.2 0 0 1 .121.25c.192.417.357.846.5 1.281.218.66.387 1.335.513 2.017.165.894.258 1.803.282 2.711a19.113 19.113 0 0 1-.281 3.762c-.008.045-.059.077-.101.077-.049 0-.084-.033-.1-.077a25.135 25.135 0 0 0-1.1-2.423 28.137 28.137 0 0 0-1.319-2.245 46.814 46.814 0 0 0-.764-1.146l-2.868 17.64-.984 7.486a1.583 1.583 0 0 1-.403.892c.895.82 2.064 1.651 2.979 2.095.17.082.334.144.477.2.38.145.682.26.694.6a.634.634 0 0 1-.22.483 1.389 1.389 0 0 1-.99.338c-.232-.02-.447-.101-.645-.207.491.668.914 1.497 1.26 2.474.05.137.097.284.087.44-.011.19-.116.355-.267.419-.17.073-.374.02-.605-.155a3.616 3.616 0 0 1-.726-.738 10.32 10.32 0 0 1 .243 1.475c.015.17.024.336-.03.499-.068.202-.229.345-.411.364h-.04a.51.51 0 0 1-.384-.195.992.992 0 0 1-.05.147c-.087.2-.293.405-.55.405-.015 0-.03 0-.046-.002-.176-.016-.347-.135-.456-.318a1.146 1.146 0 0 1-.107-.257c-.094.133-.197.213-.313.242a.41.41 0 0 1-.108.014.47.47 0 0 1-.248-.075c-.478-.292-.818-1.419-1.02-2.313a.805.805 0 0 0-.341-.497c-1.01-.662-1.81-2.03-2.195-3.723l-.444-.676-4.24.643-.178 2.192-.408 5.02-.406 5.005c-.062.764-.147 1.53-.187 2.297-.015.28.139.542.298.763" class="C"/><path d="M5.902 84.264l.075.939 1.764 22.073a.454.454 0 0 1 .358.31c.547 1.7 1.664 3.344 3.318 4.886l.34.308c2.04 1.8 4.193 2.847 4.892 3.007.488.112.888-.05 1.137-.207.372-.233.657-.606.777-1.012a5.213 5.213 0 0 1-.236-.08h-.001c-.01 0-.018-.005-.026-.009l-.058-.02a6.306 6.306 0 0 1-1.79-.995l-.018-.014-.029-.024c-1.589-1.303-2.141-3.188-2.324-4.545-.199-1.478-.015-2.668-.013-2.677l1.955-13.838.785-5.56.12-.842-1.58.043c-3.188.008-6.508-.44-9.446-1.743m10.329 8.127l1.32 14.922a.455.455 0 0 1 .36.311c.547 1.7 1.664 3.343 3.318 4.885l.34.308c2.041 1.801 4.193 2.847 4.892 3.007.488.113.887-.05 1.136-.206a1.84 1.84 0 0 0 .778-1.012c-2.852-.898-3.925-3.108-4.323-4.814a10.412 10.412 0 0 1-.172-3.549l2.573-20.962.11-.893-1.018.252c-2.758.657-5.57 1.154-8.404 1.313l-.909 6.438" class="D"/><path d="M40.424 40.052a.24.24 0 0 1-.175.147l-1.735.369a.245.245 0 0 1-.256-.107l-4.856-7.538-.151-.236a.242.242 0 0 1 .002-.267l.85-1.267a.24.24 0 0 1 .202-.108.24.24 0 0 1 .202.107l1.422 2.091.004.007.004.007.006.009.002.002 3.098 4.559.01.014 1.347 1.984c.047.068.056.15.024.227" fill="#fed9c7"/><path d="M37.973 40.404a33.657 33.657 0 0 1-4.41 2.869 1.578 1.578 0 0 0-.82 1.32l-.68 17.022c-.277-3.649-.902-9.072-2.295-14.044a40.042 40.042 0 0 0-.751-2.405c-.002-.007-.004-.015-.008-.022-1.853-5.314-4.351-8.383-7.446-9.148 1.28-.07 2.729-.148 3.913-.338 2.057-.33 4.208-.993 6.769-2.086l1.032-.458 4.696 7.29" class="F"/><path d="M36.17 33.23l2.99 4.398a10.018 10.018 0 0 0 .64-.541c2.703-2.437 6.583-7.645 6.624-7.702l.016-.022.024-.011c1.69-.79 2.725-1.77 3.165-2.997a1.01 1.01 0 0 1 .509-.566c1.094-.538 1.79-1.051 1.904-1.408a.243.243 0 0 0-.009-.198c-.049-.093-.182-.163-.393-.21l-2.328 1.138a.104.104 0 1 1-.092-.188l2.352-1.148.018-.009.02-.01c.135-.065.274-.133.378-.234s.157-.228.141-.338c-.023-.165-.199-.28-.36-.309a1.093 1.093 0 0 0-.414.026l-.102.058c-.774.423-1.578.812-2.391 1.157a.103.103 0 0 1-.137-.055.104.104 0 0 1 .055-.137 26.62 26.62 0 0 0 2.373-1.148c.038-.021.074-.04.107-.06a.816.816 0 0 0 .205-.16c.077-.091.108-.204.078-.29-.037-.107-.166-.166-.27-.175-.13-.01-.267.03-.407.078a10.86 10.86 0 0 0-2.05.95 3.57 3.57 0 0 1-.524.324l-.103-.18c.166-.108.332-.211.497-.31a3.46 3.46 0 0 0 1.093-1.364c.084-.192.095-.331.033-.416-.059-.078-.176-.097-.267-.08a.938.938 0 0 0-.33.155c-1.104.72-1.942 1.5-2.487 2.321l-.398 1.195a.104.104 0 1 1-.198-.066l.404-1.21.004-.009c.159-.363.36-.815.295-1.247a1.18 1.18 0 0 0-.468-.74c-.122-.08-.24-.105-.35-.074-.187.05-.22.243-.271.64-.021.157-.044.336-.087.529-.187.855-.534 1.673-.87 2.465-.166.392-.338.798-.488 1.202l-.008.022-.017.017c-.05.047-4.534 4.345-7.392 6.438a19.904 19.904 0 0 1-.713.498" class="D"/><path d="M9.761 67.143l-4.432.674.928-7.116c.967 2.16 2.073 4.114 2.92 5.503l.584.939" class="F"/><path d="M5.637 58.653a36.569 36.569 0 0 0 .307.784c1.062 2.61 2.416 5.026 3.411 6.659l.662 1.059.01.016.193.297-.006-.041a.105.105 0 0 1 .086-.12c.057-.01.11.028.12.085.369 2.242 1.387 3.623 2.218 4.168a1.01 1.01 0 0 1 .431.626c.268 1.19.605 1.985.925 2.181.068.041.131.054.194.038.103-.027.202-.139.296-.334l-.562-2.53a.105.105 0 0 1 .08-.124.105.105 0 0 1 .124.079l.567 2.554.004.017.005.026c.032.146.066.297.14.422s.184.206.295.216c.167.016.32-.128.385-.278a1.08 1.08 0 0 0 .07-.41l-.031-.111a26.893 26.893 0 0 1-.567-2.596.104.104 0 0 1 .205-.034 26.61 26.61 0 0 0 .564 2.575c.038.143.073.26.142.355s.171.153.261.144c.114-.012.201-.124.234-.222.041-.125.033-.267.02-.415a10.903 10.903 0 0 0-.447-2.216 3.603 3.603 0 0 1-.192-.583l.2-.06.184.558a3.471 3.471 0 0 0 1.073 1.38c.167.126.3.17.396.129.09-.039.136-.149.141-.241a.939.939 0 0 0-.074-.357c-.444-1.247-1.01-2.246-1.685-2.968l.14-.155c.315.24.708.54 1.143.579.278.025.635-.097.83-.281.105-.101.157-.21.153-.325-.007-.193-.186-.27-.559-.412l-.494-.208c-.974-.472-2.185-1.338-3.105-2.199l-.007-.006-.002-.001-.002-.003a9.879 9.879 0 0 1-.54-.541l-.01-.012-.01-.014-.006-.013-.002-.004a49.147 49.147 0 0 1-1.209-3.387 42.224 42.224 0 0 1-1.129-4.295l-.068-.343-.09-.479-5.412 1.372" class="D"/><path d="M13.366 56.37a.241.241 0 0 1-.169.153l-7.716 1.955-.02.005-2.428.615c-.08.02-.16 0-.223-.054a.241.241 0 0 1-.078-.215l.247-1.758a.245.245 0 0 1 .182-.202l.007-.002 9.015-2.05a.245.245 0 0 1 .075-.005h.002l.013.002c.063.01.122.043.161.097l.9 1.232a.24.24 0 0 1 .032.226" fill="#fed9c7"/><path d="M18.56 39.272l-.126.719-.001.007-.001.002-2.911 17.89-.985 7.491c-.032.289-.155.56-.348.774a9.407 9.407 0 0 1-.455-.462 48.612 48.612 0 0 1-1.199-3.357 40.685 40.685 0 0 1-1.283-5.105l1.997-.506a.451.451 0 0 0 .254-.705l-.9-1.231a.452.452 0 0 0-.228-.165 22.986 22.986 0 0 1-.091-4.734c.104-1.22.368-2.423.623-3.585l.218-1.006a.105.105 0 0 0-.204-.042l-.217 1.003-.628 3.613a23.147 23.147 0 0 0 .087 4.736.334.334 0 0 0-.025.005l-7.599 1.728-1.311.298c-1.532-8.858.076-15.262 4.652-18.523 2.598-1.852 5.445-2.233 6.91-2.295a9.61 9.61 0 0 1 .674-.004l3.036 3.246a.238.238 0 0 1 .06.208" class="F"/><path d="M17.14 85.953l-.118.843h.002l.092-.005c1.925-.104 3.933-.366 6.137-.798l3.2-.712.11-.892-1.018.251c-2.757.657-5.57 1.155-8.404 1.313M5.902 84.264l.075.939 1.543.55a25.14 25.14 0 0 0 5.284.99l2.46.1 1.545-.037.118-.842-1.579.043c-3.188.008-6.508-.44-9.446-1.743M36.17 33.23l2.99 4.398a10.018 10.018 0 0 0 .64-.541l-2.813-4.142v-.111l-.103-.103a19.86 19.86 0 0 1-.713.498M5.637 58.653a36.569 36.569 0 0 0 .307.784l5.263-1.334-.068-.342-.09-.479-5.412 1.371" class="E"/><g class="B"><path d="M24.458 28.029a6.439 6.439 0 0 0-.005-.447 2.62 2.62 0 0 0-.079-.512 2.219 2.219 0 0 0-.026-.16c-.268-1.281-1.27-2.114-2.411-2.639a7.536 7.536 0 0 0-2.04-.602 4.538 4.538 0 0 0-.953-.035c-.094.007-.873.065-.888.15.08-.431.018-.857-.212-1.214-.582-.908-2.015-1.028-3.2-.269s-1.67 2.113-1.088 3.021a1.71 1.71 0 0 0 .102.139 3.03 3.03 0 0 0-.548.487c-.335.376-.486.853-.65 1.32v.001a8.421 8.421 0 0 1-.13.35c-.424 1.055-1.564 1.587-1.729 2.809-.056.425.004.893-.241 1.245-.223.319-.62.445-.896.707-.777.738-1.537 3.098-1.627 4.183-.04.49-.039.98-.019 1.469 2.673-1.906 5.631-2.257 6.967-2.314.243-.02.48-.026.708-.021l.018.019c1.127-1.484 1.064-1.989 1.099-2.148a5.36 5.36 0 0 0 .129-.922 3.234 3.234 0 0 0-.027-.598v-.006l-.001-.004a3.016 3.016 0 0 0-.077-.36c-.1-.365-.225-.596-.308-.965v-.002s-.006-.047-.015-.084v-.003c-.007-.024-.014-.045-.023-.047h-.061a1.09 1.09 0 0 1-.114-.006h-.005a.946.946 0 0 1-.065-.008h-.006l-.057-.009-.05-.01h-.001c-.02-.003-.038-.008-.057-.013a1.602 1.602 0 0 1-.973-.71l-.02-.035a1.203 1.203 0 0 1-.16-.53 1.216 1.216 0 0 1 .027-.291v-.004c.03-.136.082-.267.157-.386.17-.268.433-.469.731-.572a1.55 1.55 0 0 1 .25-.064 9.73 9.73 0 0 1 .267-.021l-.02.074s1.253.018 1.108 2.709c.32-.491.382-.98.419-1.191.112-.64.012-1.016-.043-1.697.247-.435.703-1.221 1.042-1.54.05.331.408.85 1.963 1.308l.024.007a3.403 3.403 0 0 1 2.259 2.243l.114.376v.002l.052.176.338 1.089.158-.28a6.786 6.786 0 0 0 .892-3.166m-3.517 6.274a2.922 2.922 0 0 0 .754-.455l.001-.003a2.934 2.934 0 0 0 .195-.179l.05-.052.049-.053.049-.055.007-.01.06-.072.047-.062a.814.814 0 0 0 .047-.065l.033-.049a1.191 1.191 0 0 0 .073-.114l.025-.041.174.497c.224.683-.29 1.305-.773 2.024l-.203.28-.87.05-.034-.277.034-1.266.097-.03.184-.068"/><path d="M21.659 28.801a.447.447 0 1 1-.114.886.447.447 0 0 1 .114-.886m-2.975-.594a.447.447 0 1 1-.113.886.447.447 0 0 1 .113-.886M5.444 67.89l-.192 2.356-.416 5.123-.409 5.031-.13 1.592c-.022.278-.081.581.01.851s.255.513.441.723c.204.23.432.36.706.491a16.64 16.64 0 0 0 2.352.91c1.64.499 3.338.8 5.047.942 3.43.285 6.887-.077 10.254-.738a53.8 53.8 0 0 0 4.765-1.14c.293-.086.577-.162.713-.465.14-.311-.008-.667-.073-.98a44.231 44.231 0 0 1-.457-2.591c-.514-3.5-.648-7.044-.674-10.577-.026-3.588-.004-7.177.279-10.756.145-1.84.337-3.675.528-5.51.186-1.789.488-3.562.677-5.35a25.62 25.62 0 0 0 .154-2.613c0-.134-.208-.134-.209 0-.006 1.781-.253 3.545-.509 5.303s-.411 3.535-.59 5.304c-.183 1.814-.337 3.63-.43 5.45-.09 1.76-.1 3.52-.109 5.283-.018 3.46.007 6.927.314 10.376.151 1.692.37 3.38.687 5.048.08.419.213.846.26 1.269.051.468-.422.552-.767.651a49.46 49.46 0 0 1-2.211.574c-3.322.79-6.721 1.345-10.143 1.351-3.375.006-6.9-.503-9.95-2.017-.435-.217-.925-.773-.896-1.289.003-.059.01-.118.014-.177l.098-1.21.376-4.615.426-5.251.26-3.19.012-.16c.011-.133-.198-.132-.208 0m13.003-27.827a42.166 42.166 0 0 1 1.532 2.356 24.514 24.514 0 0 1 1.8 3.675c.016.044.05.076.1.076.042 0 .093-.032.1-.076a19.34 19.34 0 0 0 .288-3.397 17.613 17.613 0 0 0-.237-2.787 15.634 15.634 0 0 0-.498-2.103 12.671 12.671 0 0 0-.516-1.374 8.328 8.328 0 0 0-.178-.376c-.027-.052-.052-.11-.085-.16l-.003-.004c.014.033.014.033 0 0a.102.102 0 0 0-.018-.024c-.095-.094-.242.053-.147.149h.001a3.11 3.11 0 0 0-.027-.046c.017.048.047.09.07.134a7.565 7.565 0 0 1 .265.564l.012.027c.003.008.02.048.006.016l.032.078.06.146a13.21 13.21 0 0 1 .264.73c.215.654.382 1.322.508 1.997.163.88.253 1.772.276 2.668a18.77 18.77 0 0 1-.274 3.707h.201a25.647 25.647 0 0 0-1.108-2.452 28.074 28.074 0 0 0-1.33-2.267 53.702 53.702 0 0 0-.914-1.363c-.032-.046-.092-.067-.143-.037-.046.027-.07.096-.037.142"/><path d="M5.086 68.064l1.012-7.759a.104.104 0 1 1 .207.026l-.976 7.486 4.592-.699a.104.104 0 1 1 .031.206l-4.866.74m13.45-28.054h.001zm-4.345 26.395a.106.106 0 0 1-.075-.032.105.105 0 0 1 .003-.148c.233-.223.382-.522.417-.844l.986-7.49 2.91-17.89.002-.01.126-.719a.24.24 0 0 0-.061-.208l-3.081-3.295a.104.104 0 1 1 .15-.145l.018.02.153.163 2.912 3.115a.45.45 0 0 1 .115.387l-.125.709-.002.01-2.911 17.894-.984 7.482c-.042.37-.212.715-.481.972a.104.104 0 0 1-.072.029m6.474-30.359l-.007-.104v-.104l.864-.048 3.922-.338c2.04-.327 4.175-.986 6.72-2.072a36.84 36.84 0 0 0 1.108-.494.104.104 0 1 1 .088.19l-1.115.496c-2.56 1.093-4.711 1.756-6.768 2.086-1.193.192-2.654.27-3.944.34l-.868.048M32.09 63.695h-.005a.104.104 0 0 1-.1-.108l.758-18.994a1.578 1.578 0 0 1 .82-1.32 33.68 33.68 0 0 0 4.486-2.927.104.104 0 1 1 .127.165 33.833 33.833 0 0 1-4.514 2.945 1.37 1.37 0 0 0-.71 1.145l-.758 18.994a.104.104 0 0 1-.105.1"/><path d="M27.293 64.402a.104.104 0 0 1-.013-.208l4.785-.705a.105.105 0 0 1 .05.203c-.643.156-3.846.593-4.81.709h-.012"/><path d="M32.09 63.695a.104.104 0 0 1-.105-.099c-.342-6.223-2.169-26.602-11.336-27.548l-.037-.004-.024-.024a.104.104 0 0 1 .07-.182h.04l.006.005c3.955.43 7.005 4.374 9.064 11.728 1.673 5.974 2.238 12.597 2.426 16.014a.104.104 0 0 1-.099.11h-.006m2.216-32.65a.24.24 0 0 0-.202.108l-.85 1.267a.242.242 0 0 0-.002.267l5.007 7.774a.244.244 0 0 0 .255.107l1.736-.369a.24.24 0 0 0 .151-.375l-5.893-8.672a.24.24 0 0 0-.202-.107zm4.159 9.736a.454.454 0 0 1-.381-.207L33.075 32.8a.452.452 0 0 1 .005-.497l.85-1.266a.451.451 0 0 1 .374-.2h.001a.45.45 0 0 1 .374.198l5.894 8.672a.452.452 0 0 1-.28.696l-1.736.369a.424.424 0 0 1-.093.01M15.298 29.31a.104.104 0 0 1-.091-.155c.257-.46.794-.388 1.052-.353a.104.104 0 0 1-.028.207c-.393-.053-.686-.031-.841.247a.105.105 0 0 1-.091.054"/><path d="M16.042 29.659a.096.096 0 0 1-.036-.007.768.768 0 0 1-.49-.677.104.104 0 0 1 .101-.108.102.102 0 0 1 .108.1c.008.21.156.416.353.49a.104.104 0 0 1-.036.202m3.968.834a.413.413 0 0 1-.093-.01c-.133-.032-.24-.117-.328-.184a.105.105 0 0 1 .129-.165.693.693 0 0 0 .246.146c.065.014.148-.002.177-.054.032-.06-.002-.153-.035-.236l-.23-.573a.104.104 0 1 1 .193-.078l.23.573c.037.092.107.263.025.413-.063.117-.192.168-.314.168m-1 .8a.04.04 0 0 0-.03.014.042.042 0 0 0-.01.041c.066.251.22.696.498.846a.53.53 0 0 0 .43.04c.26-.087.483-.356.587-.584a.04.04 0 0 0 0-.034.046.046 0 0 0-.031-.024l-1.434-.298zm.716 1.178a.748.748 0 0 1-.357-.093c-.33-.178-.509-.63-.6-.976a.252.252 0 0 1 .294-.312l1.433.298c.076.016.14.065.175.134a.247.247 0 0 1 .004.215c-.114.249-.37.58-.711.695a.755.755 0 0 1-.238.04m-11.201.214a.104.104 0 0 1-.063-.187l.369-.26c.364-.247.708-.481.927-.843.14-.232.17-.505.202-.792.021-.187.043-.38.096-.562.114-.386.315-.764.617-1.158.398-.52.892-.958 1.37-1.382a35.997 35.997 0 0 0 .56-.507.104.104 0 0 1 .144.152l-.217.2-.349.31c-.47.418-.956.85-1.342 1.353-.286.374-.477.73-.582 1.09a3.07 3.07 0 0 0-.09.526c-.033.299-.067.606-.23.877-.243.402-.622.66-.99.909l-.36.253a.106.106 0 0 1-.062.021m6.968 3.114a.104.104 0 0 1-.077-.173c.85-.94 1.298-2.102 1.227-3.188a10.31 10.31 0 0 0-.032-.366l-.01-.089c-.068-.68-.404-1.353-.407-1.36a.104.104 0 0 1 .186-.094c.014.028.348.697.426 1.404v.001l.012.117.034.373c.074 1.142-.393 2.36-1.282 3.342a.103.103 0 0 1-.077.034"/><path d="M16.26 30.681c-.432 0-.853-.159-1.158-.439-.44-.404-.595-1.026-.385-1.549.214-.53.782-.896 1.414-.91h.003c.056 0 .103.047.104.103a.104.104 0 0 1-.102.106c-.55.012-1.043.325-1.225.78-.178.442-.045.97.332 1.316.267.246.636.385 1.017.385h.025a.106.106 0 0 1 .106.102.105.105 0 0 1-.102.106h-.029"/><path d="M20.658 36.047a.105.105 0 0 1-.103-.092l-.036-.283v-.008l.035-1.274.006-.07.069-.02a3.505 3.505 0 0 0 .27-.095 2.794 2.794 0 0 0 .669-.392l.058-.047.062-.054a2.658 2.658 0 0 0 .27-.276l.086.061-.08-.066.058-.073.045-.058a.553.553 0 0 0 .045-.062l.033-.049a1.112 1.112 0 0 0 .093-.149l.014-.023a2.086 2.086 0 0 0 .078-.146.818.818 0 0 0 .024-.05 2.582 2.582 0 0 0 .125-.317 2.7 2.7 0 0 0 .094-.375l.373-2.115.26-1.46h-.002c.184-.975-.134-2.048-.83-2.8-.972-1.051-2.62-1.403-3.919-.835-.628.275-1.183.769-1.604 1.428a4.303 4.303 0 0 0-.614 1.56.104.104 0 0 1-.205-.037 4.515 4.515 0 0 1 .643-1.635c.444-.694 1.03-1.215 1.697-1.507 1.377-.603 3.125-.23 4.156.884.75.812 1.08 1.926.881 2.98l-.257 1.453v.007l-.373 2.113a2.869 2.869 0 0 1-.236.744.612.612 0 0 1-.027.055 2.26 2.26 0 0 1-.083.156l-.013.024a4.197 4.197 0 0 1-.135.212l-.022.03a7.11 7.11 0 0 1-.138.177l-.005.005a4.987 4.987 0 0 1-.054.063l-.051.055-.054.055a2.91 2.91 0 0 1-.2.184l-.064.052a2.99 2.99 0 0 1-.91.492l-.027.009-.032 1.183.033.269a.104.104 0 0 1-.09.116l-.013.001m15.366-2.743a.104.104 0 0 1-.087-.047.105.105 0 0 1 .031-.145c2.627-1.689 7.806-6.628 8.146-6.953.149-.4.319-.8.483-1.189.332-.782.675-1.591.858-2.428.04-.184.064-.358.084-.511.053-.404.094-.723.421-.814a.634.634 0 0 1 .521.1c.275.178.51.55.56.884.034.23.006.458-.052.675.536-.633 1.244-1.237 2.112-1.803.122-.08.255-.159.407-.186.188-.033.373.03.47.162.111.149.108.359-.008.624-.14.319-.326.614-.55.878a10.48 10.48 0 0 1 1.38-.58c.16-.055.32-.102.491-.088.213.02.389.142.45.315a.511.511 0 0 1-.118.493 1.28 1.28 0 0 1-.37.268c-.774.423-1.579.812-2.391 1.157a.104.104 0 1 1-.082-.192 26.605 26.605 0 0 0 2.373-1.148c.13-.071.235-.133.312-.222s.108-.202.078-.287c-.037-.107-.166-.167-.27-.176-.13-.01-.267.03-.408.078-.67.224-1.358.543-2.05.95a3.51 3.51 0 0 1-.523.324l-.104-.18a17.42 17.42 0 0 1 .498-.31c.472-.352.857-.829 1.093-1.364.084-.192.095-.331.032-.416-.058-.078-.176-.097-.266-.08a.937.937 0 0 0-.33.155c-1.11.722-1.948 1.507-2.494 2.331l-.182-.1c.16-.363.36-.815.295-1.246a1.18 1.18 0 0 0-.466-.741c-.123-.08-.241-.104-.352-.074-.186.051-.219.244-.27.64a6.51 6.51 0 0 1-.087.53c-.187.854-.534 1.672-.87 2.464-.166.393-.338.798-.488 1.202l-.008.022-.018.017c-.054.052-5.474 5.246-8.194 6.995a.104.104 0 0 1-.057.016"/><path d="M49.266 25.121a.105.105 0 0 1-.046-.198l2.39-1.166c.135-.066.274-.134.378-.235s.157-.228.141-.338c-.024-.165-.199-.28-.36-.309-.147-.026-.3 0-.43.03a.104.104 0 1 1-.046-.203 1.3 1.3 0 0 1 .512-.032c.228.04.491.209.53.485.026.176-.05.369-.202.518-.128.123-.29.202-.432.27l-2.39 1.168a.108.108 0 0 1-.045.01"/><path d="M39.136 37.882a.104.104 0 0 1-.063-.187c2.664-2.017 7.305-8.248 7.352-8.31l.015-.022.024-.011c1.689-.79 2.724-1.77 3.165-2.997.09-.248.27-.449.508-.566 1.095-.538 1.79-1.051 1.905-1.408a.243.243 0 0 0-.009-.198c-.052-.098-.196-.17-.428-.216a.104.104 0 1 1 .04-.205c.3.06.488.165.572.324.058.108.066.23.024.36-.173.533-1.19 1.126-2.012 1.53a.8.8 0 0 0-.403.45c-.46 1.276-1.522 2.291-3.25 3.104-.301.404-4.768 6.356-7.378 8.331a.101.101 0 0 1-.062.021m7.094-13.047a.104.104 0 0 1-.099-.137l.404-1.21a.104.104 0 1 1 .198.066l-.403 1.21a.104.104 0 0 1-.1.07M16.147 74.585a.524.524 0 0 1-.412-.231 1.278 1.278 0 0 1-.174-.422 26.955 26.955 0 0 1-.567-2.596.104.104 0 0 1 .206-.034 26.6 26.6 0 0 0 .562 2.575c.039.143.074.26.142.355s.173.153.262.144c.114-.012.2-.124.234-.222.041-.125.033-.267.02-.415a10.902 10.902 0 0 0-.447-2.216 3.605 3.605 0 0 1-.192-.583l.2-.06a13.92 13.92 0 0 1 .184.557 3.468 3.468 0 0 0 1.072 1.38c.167.127.3.17.397.13.09-.039.135-.149.14-.241a.934.934 0 0 0-.074-.357c-.443-1.247-1.01-2.246-1.684-2.968l.14-.155c.315.24.708.54 1.143.579a1.19 1.19 0 0 0 .829-.281c.106-.101.158-.21.154-.325-.007-.193-.186-.27-.56-.412-.147-.057-.315-.121-.493-.208-1.187-.575-2.727-1.735-3.662-2.757a.104.104 0 0 1 .154-.142c.904.99 2.451 2.155 3.598 2.712.17.082.334.144.478.2.381.145.682.26.693.6a.632.632 0 0 1-.219.483 1.39 1.39 0 0 1-.99.338 1.67 1.67 0 0 1-.645-.208c.491.669.914 1.498 1.26 2.475.05.137.096.284.087.438-.011.192-.116.357-.267.42-.17.073-.374.021-.605-.154a3.603 3.603 0 0 1-.726-.74 10.51 10.51 0 0 1 .243 1.477c.015.17.024.336-.03.499-.068.202-.23.345-.411.363a.381.381 0 0 1-.04.002"/><path d="M15.163 74.94l-.046-.001c-.176-.017-.347-.136-.455-.318-.09-.154-.13-.329-.164-.483l-.576-2.597a.104.104 0 0 1 .204-.045l.576 2.597c.032.146.066.297.14.422s.184.206.295.216c.166.015.32-.128.385-.278.06-.137.07-.292.071-.425 0-.057.047-.103.104-.103h.002c.057 0 .103.049.103.106a1.307 1.307 0 0 1-.089.505c-.087.2-.293.405-.55.405"/><path d="M14.133 74.62a.47.47 0 0 1-.248-.075c-.478-.293-.818-1.42-1.02-2.313a.803.803 0 0 0-.342-.498c-1.123-.737-1.987-2.347-2.31-4.307a.105.105 0 0 1 .086-.12c.058-.01.11.028.12.085.37 2.242 1.388 3.623 2.219 4.168.22.145.373.366.431.626.268 1.19.605 1.985.925 2.181.067.041.13.054.194.038.108-.028.212-.151.31-.366a.104.104 0 1 1 .19.087c-.127.278-.274.435-.448.48a.434.434 0 0 1-.107.014"/><path d="M10.425 68.072a.105.105 0 0 1-.087-.047 52.674 52.674 0 0 1-1.161-1.821C8.064 64.379 6.505 61.58 5.4 58.617a.104.104 0 0 1 .196-.073c1.099 2.948 2.65 5.734 3.759 7.552a53.33 53.33 0 0 0 1.156 1.814.104.104 0 0 1-.086.162m3.218-2.216a.105.105 0 0 1-.097-.066 48.97 48.97 0 0 1-1.21-3.391 40.918 40.918 0 0 1-1.307-5.227.104.104 0 0 1 .205-.036 40.704 40.704 0 0 0 1.3 5.2l1.206 3.376a.104.104 0 0 1-.097.144"/><path d="M12.238 54.811a.237.237 0 0 0-.054.007l-9.018 2.05a.245.245 0 0 0-.187.203l-.247 1.758a.242.242 0 0 0 .3.27l10.165-2.576a.24.24 0 0 0 .17-.154.24.24 0 0 0-.033-.226l-.9-1.231a.243.243 0 0 0-.196-.1zm-9.265 4.503a.452.452 0 0 1-.448-.514l.247-1.758a.453.453 0 0 1 .347-.377l9.018-2.051a.452.452 0 0 1 .466.175l.9 1.231a.452.452 0 0 1-.255.705L3.084 59.3a.435.435 0 0 1-.111.014"/><path d="M12.28 54.815a.105.105 0 0 1-.104-.092 23.17 23.17 0 0 1-.101-4.85c.106-1.234.371-2.444.628-3.613l.217-1.004a.104.104 0 0 1 .204.043l-.217 1.005-.624 3.586a22.971 22.971 0 0 0 .1 4.807.105.105 0 0 1-.09.117h-.014m-4.635 52.663a.104.104 0 0 1-.104-.098L5.68 84.105a.105.105 0 0 1 .096-.113.105.105 0 0 1 .113.096l1.86 23.28v.005a.104.104 0 0 1-.105.104m11.046 7.125h-.016l-.015-.005a7.117 7.117 0 0 1-.348-.114l-.07-.025a6.295 6.295 0 0 1-1.797-1l-.039-.033c-1.589-1.302-2.14-3.187-2.324-4.545a10.315 10.315 0 0 1-.012-2.679l2.877-20.363a.106.106 0 0 1 .118-.089.105.105 0 0 1 .088.118l-2.877 20.366c-.008.048-.698 4.648 2.3 7.06l.008.009a6.15 6.15 0 0 0 1.798.984l.07.025.266.086a.105.105 0 0 1 .077.101.104.104 0 0 1-.104.105"/><path d="M8.727 112.269c.08 0 .157.036.21.103l.081.1c.62.753 1.664 1.72 2.724 2.525 1.497 1.135 2.951 1.905 4.095 2.166 1.919.438 3.07.236 3.698-.012.736-.29 1.536-.817 1.552-1.293.008-.219-.166-.413-.516-.58-.321-.152-1.314-.482-1.792-.64l-.018-.007a2.046 2.046 0 0 1-.864 1.125c-.4.251-.86.334-1.295.234-.829-.19-2.986-1.292-4.983-3.054a18.285 18.285 0 0 1-.344-.313c-1.68-1.566-2.816-3.239-3.375-4.973a.244.244 0 0 0-.23-.173.245.245 0 0 0-.237.156c-.247.62-.55 1.693-.593 3.297l-.097 6.09a.352.352 0 0 0 .352.36l.943.003h.001c.193 0 .35-.156.354-.348l.062-4.5a.268.268 0 0 1 .272-.267zm9.163 5.359c-.573 0-1.267-.072-2.1-.261-1.502-.343-3.099-1.388-4.174-2.204s-2.13-1.794-2.759-2.558l-.084-.104a.058.058 0 0 0-.067-.02.059.059 0 0 0-.042.058l-.063 4.499a.564.564 0 0 1-.562.554h-.002l-.943-.004a.557.557 0 0 1-.4-.17.558.558 0 0 1-.16-.401l.097-6.092c.045-1.634.355-2.735.608-3.369a.45.45 0 0 1 .439-.287c.195.007.36.13.42.317.548 1.7 1.665 3.344 3.32 4.885l.339.308c2.04 1.801 4.193 2.847 4.892 3.007.488.113.888-.05 1.137-.206a1.82 1.82 0 0 0 .801-1.106l.026-.112.232.077 1.816.65c.432.205.646.466.635.776-.02.612-.92 1.18-1.685 1.48-.378.148-.937.283-1.72.283m-.435-10.113a.104.104 0 0 1-.105-.098l-1.329-15.023a.104.104 0 0 1 .208-.018l1.33 15.035a.104.104 0 0 1-.104.104M28.5 114.64a.08.08 0 0 1-.03-.005c-2.923-.878-4.016-3.118-4.417-4.843a10.4 10.4 0 0 1-.172-3.553l2.7-22.003a.106.106 0 0 1 .116-.09c.057.007.098.059.091.116l-2.7 22.006a10.18 10.18 0 0 0 .17 3.483c.566 2.427 2.004 4.003 4.273 4.684a.105.105 0 0 1-.03.205"/><path d="M27.702 117.666c-.573 0-1.267-.072-2.1-.262-1.502-.343-3.099-1.388-4.174-2.204s-2.13-1.794-2.759-2.558a6.899 6.899 0 0 1-.083-.103.06.06 0 0 0-.069-.02.058.058 0 0 0-.041.056l-.026 1.813a.104.104 0 0 1-.104.102h-.002a.104.104 0 0 1-.102-.106l.025-1.811a.267.267 0 0 1 .183-.252.267.267 0 0 1 .299.088l.08.1c.62.754 1.665 1.72 2.725 2.525 1.497 1.136 2.951 1.906 4.095 2.166 1.919.439 3.07.236 3.698-.011.736-.29 1.536-.818 1.552-1.293.008-.22-.166-.414-.516-.58-.32-.153-1.314-.482-1.79-.64l-.02-.006a2.049 2.049 0 0 1-.865 1.125c-.4.25-.859.333-1.294.233-.829-.19-2.986-1.292-4.983-3.055a18.422 18.422 0 0 1-.344-.311c-1.68-1.566-2.816-3.24-3.375-4.974a.248.248 0 0 0-.251-.173.242.242 0 0 0-.216.156c-.247.62-.55 1.694-.593 3.298l-.039 2.41a.105.105 0 0 1-.106.102.104.104 0 0 1-.102-.106l.038-2.411c.044-1.636.355-2.735.608-3.37a.451.451 0 0 1 .4-.287c.21-.01.395.117.46.317.547 1.7 1.664 3.344 3.318 4.885l.34.308c2.04 1.802 4.193 2.848 4.892 3.008.488.112.887-.05 1.136-.207.398-.249.696-.657.8-1.094v-.133l.26.087 1.816.65c.432.204.645.465.635.775-.02.612-.92 1.18-1.685 1.48-.378.149-.937.283-1.72.283M3.142 56.87a.104.104 0 0 1-.102-.086c-.879-5.01-.78-9.24.291-12.572.862-2.678 2.351-4.786 4.427-6.265 2.642-1.884 5.534-2.27 7.022-2.333.459-.019.726-.004.737-.003a.104.104 0 0 1-.012.209c-.003 0-.27-.016-.716.002-1.465.062-4.312.442-6.91 2.295-4.595 3.274-6.197 9.717-4.634 18.631a.105.105 0 0 1-.084.121l-.019.002"/></g><path d="M106.455 28.265c0 9.722-7.882 17.603-17.603 17.603s-17.603-7.881-17.603-17.603 7.88-17.603 17.603-17.603 17.603 7.88 17.603 17.603" class="C"/><path d="M93.352 19.863a2.072 2.072 0 0 0-.206-.11l-.057-.024-.063-.023-.04-.012a.78.78 0 0 0-.04-.011l-.004-.002c-.514-.128-.849.247-1.394 1.064l-.107.016s-.02-1.249-.313-1.934c-.246-.575-.18-1.436.048-1.9-.274.35-.928.986-2.02.902l-.867-.08c-.611-.073-1.308-.197-1.87-.515-.129.244-.564 1.145-.717 2.5v.001l.155 3.2a2.748 2.748 0 0 0 1.656 2.4l.086.037v.001l-.346 1.084-.043.134 1.678 2.05 2.532-1.814c-.434-2.206.092-3.225.139-3.31l.002-.003.483-1.176.01-.03c.076-.212.09-.25.18-.234a1.5 1.5 0 0 0 .302.027c.774-.008 1.398-.57 1.39-1.253-.003-.402-.226-.762-.574-.985" class="D"/><path d="M87.49 25.418l-.306 1.052c.043-.005.179-.04.222-.046a10.65 10.65 0 0 0 1.266-.263c.416-.114.835-.234 1.221-.431a.94.94 0 0 0 .23-.153c.076-.073.149-.196.111-.306-.044-.135-.193-.161-.318-.162-.633-.007-1.249.204-1.874.258a2.838 2.838 0 0 1-.475.004l-.157-.013.08.06" class="E"/><path d="M95.402 31.221l.486 3.483-3.719 5.96a41.365 41.365 0 0 1 2.402-10.883l.583-1.476a2.952 2.952 0 0 0 .077-.202l.714.314 1.359.613-1.902 2.191" fill="#fadb5f"/><path d="M87.934 30.496c-.86 3.555-1.592 10.5-1.95 15.14a17.427 17.427 0 0 1-2.403-.57l.029-.692.483-16.022a9.232 9.232 0 0 1 2.053-1.26l.316 4.63 1.411-1.39.06.164m6.988-2.176a32.23 32.23 0 0 0-.545 1.389 41.585 41.585 0 0 0-2.446 11.338l-.027.043a.104.104 0 0 0 .015.13 39.79 39.79 0 0 0-.093 2.295l-.004.327v.001a27.488 27.488 0 0 1-1.217 1.939 17.778 17.778 0 0 1-2.802.055c.084-4.54.56-11.611 1.147-15.133l.098-.091.78 1.91 3.582-4.822.045.018 1.467.602" class="C"/><path d="m88.963 30.406-.625.58-.301-.814.593-.583.333.817" fill="#9fd3fb"/><path d="M83.89 28.115l-.001.05-.004.133v.004l-.457 15.32-1.935-7.856 1.538-3.161-.905-2.14v-.003l-.008-.017v-.003l-.005-.009-.133-.316c.516-.676 1.128-1.317 1.91-2.002m-.49 16.266l-.025.619a17.55 17.55 0 0 1-4.346-2.125l.085-2.658c.345-3.857 1.317-7.052 2.892-9.499l.797 1.881-1.531 3.144 2.129 8.638m20.718-7.349c-2.72 4.727-7.572 8.072-13.244 8.721a27.38 27.38 0 0 0 1.136-1.82l.005-.01.005-.01a20.82 20.82 0 0 0 .782-1.52 16.42 16.42 0 0 0 .389-.923.105.105 0 0 0-.06-.135.105.105 0 0 0-.136.06 15.137 15.137 0 0 1-.503 1.166c-.14.295-.294.594-.459.897a39.78 39.78 0 0 1 .1-2.346l3.971-6.363-.483-3.463 1.648-1.9c1.009.506 1.87 1.02 2.63 1.57 1.038.755 2.01 1.72 2.81 2.795l.003.003a7.98 7.98 0 0 1 1.406 3.278m-22.962-5.266c-1.2 2.294-1.954 5.123-2.25 8.433a27.41 27.41 0 0 0-.088 2.533 17.71 17.71 0 0 1-4.24-4.162c3.208-2.461 5.261-5.078 6.578-6.804" fill="#fadb5f"/><path d="M88.7 30.934c-.567 3.608-1.023 10.452-1.107 14.89a17.523 17.523 0 0 1-1.403-.156c.348-4.5 1.048-11.188 1.875-14.818l.185.501.45-.417" fill="#9fd3fb"/><path d="M93.213 27.613l-3.334 4.49-.694-1.705-.003-.007-.476-1.17-.867.853-1.2 1.18-.29-4.251.129-.053.012-.005.205-.08.003-.001.208-.075.011-.004.141-.048 1.792 2.188 2.705-1.939a10.89 10.89 0 0 1 1.658.628" fill="#3897e9"/><g fill="#241614"><path d="M92.032 41.184a.105.105 0 0 1-.088-.16l3.944-6.321-.486-3.482 1.99-2.293a.105.105 0 0 1 .148-.01.105.105 0 0 1 .01.147l-1.928 2.221.483 3.464-3.984 6.385a.105.105 0 0 1-.09.049m-8.525 3.291a.105.105 0 0 1-.102-.08l-2.132-8.652 1.53-3.144-1.038-2.456a.104.104 0 0 1 .192-.081l.167.394.908 2.149-1.539 3.16 2.114 8.58a.104.104 0 0 1-.076.126.103.103 0 0 1-.024.004m2.691 1.089h.007l1.391.155c.09-4.394.531-11.143 1.105-14.785l-.45.416-.185-.5c-.81 3.548-1.506 10.06-1.868 14.713zm1.603.377l-.213-.013a17.662 17.662 0 0 1-1.413-.157l-.09-.014-.109-.018.007-.096c.372-4.818 1.108-11.684 1.96-15.18l.08-.33.316.852.667-.618-.05.302c-.582 3.466-1.066 10.64-1.153 15.164l-.002.108"/><path d="M88.706 29.222l1.173 2.88 3.334-4.489a10.846 10.846 0 0 0-1.658-.627l-2.705 1.939-1.792-2.19-.709.267.29 4.252zm1.12 3.302l-1.196-2.935-2.168 2.131-.331-4.851.068-.03.861-.324.069-.023 1.759 2.15 2.624-1.882.058.013a11.23 11.23 0 0 1 1.848.707l.114.055-3.706 4.989"/><path d="M88.25 31.35l-.432-1.168a.104.104 0 0 1 .196-.073l.324.876.678-.628a.104.104 0 0 1 .142.153l-.908.84m14.545 2.444a.102.102 0 0 1-.083-.042 13.284 13.284 0 0 0-2.812-2.795 18.924 18.924 0 0 0-2.7-1.607.104.104 0 0 1 .093-.187c1.05.522 1.943 1.053 2.73 1.624a13.528 13.528 0 0 1 2.857 2.84.105.105 0 0 1-.084.166m-7.738-5.423a.104.104 0 0 1-.04-.009l-1.57-.644-.114-.046a.105.105 0 0 1-.058-.137.104.104 0 0 1 .135-.057l.116.047 1.571.644a.105.105 0 0 1-.04.201"/><path d="M91.925 43.977a.104.104 0 0 1-.104-.106l.004-.356.103-2.442a41.597 41.597 0 0 1 2.448-11.364l.586-1.485.056-.145a2.61 2.61 0 0 1 .063-.16.104.104 0 0 1 .138-.054.105.105 0 0 1 .053.138 1.9 1.9 0 0 0-.057.147l-.061.155-.582 1.475a41.386 41.386 0 0 0-2.436 11.306l-.102 2.431-.004.356a.104.104 0 0 1-.105.104M81.859 30.208a.105.105 0 0 1-.104-.116v-.025l.021-.028c.57-.755 1.254-1.465 2.152-2.232a.104.104 0 0 1 .176.075v.049l-.037.03c-.876.75-1.546 1.442-2.103 2.176v.008l-.031.032a.105.105 0 0 1-.074.03"/><path d="M83.506 44.474h-.004a.104.104 0 0 1-.1-.108l.483-16.068.003-.123.007-.296c.001-.057.047-.106.106-.101.058 0 .104.048.103.106l-.007.295-.003.124-.484 16.07a.104.104 0 0 1-.104.1M97.471 29.1a.1.1 0 0 1-.046-.01 28.095 28.095 0 0 0-1.48-.673l-.814-.363a.103.103 0 0 1-.048-.139.104.104 0 0 1 .14-.048l.805.358 1.49.678a.104.104 0 0 1-.047.198M74.518 38.59a.104.104 0 0 1-.063-.187c3.351-2.575 5.466-5.356 6.73-7.018l.755-.971a.105.105 0 0 1 .147-.014c.044.037.05.103.014.147l-.751.965c-1.27 1.67-3.395 4.465-6.768 7.056a.102.102 0 0 1-.064.021m16.222 7.283a.105.105 0 0 1-.086-.163 27.03 27.03 0 0 0 1.167-1.864l.013-.024a20.3 20.3 0 0 0 .78-1.513l.383-.913a.105.105 0 0 1 .135-.06c.053.02.08.081.06.135a15.166 15.166 0 0 1-.51 1.183l-.653 1.248-.013.023a27.38 27.38 0 0 1-1.19 1.902.104.104 0 0 1-.086.046m13.458-8.876a.105.105 0 0 1-.102-.084 8.007 8.007 0 0 0-1.38-3.154l-.004-.004-.008-.013a13.948 13.948 0 0 0-.137-.182.104.104 0 0 1 .166-.127l.134.18.012.017a8.21 8.21 0 0 1 1.42 3.243.104.104 0 0 1-.102.124"/><path d="M83.579 45.137h-.1a.105.105 0 0 1-.105-.105v-.013l.027-.653a.103.103 0 0 1 .109-.1c.057.002.102.05.1.108l-.031.763m-4.655-2.229a.104.104 0 0 1-.104-.104 28.02 28.02 0 0 1 .087-2.605c.29-3.255 1.028-6.055 2.192-8.322.256-.5.539-.985.84-1.438l.031-.047h.044a.106.106 0 0 1 .097.166 14.89 14.89 0 0 0-.827 1.414c-1.151 2.243-1.881 5.017-2.17 8.245-.08.911-.088 1.819-.085 2.586a.105.105 0 0 1-.104.105m5.065-14.503a.104.104 0 0 1-.066-.185 9.432 9.432 0 0 1 2.275-1.38l.81-.309.334-1.044a2.954 2.954 0 0 1-1.693-2.542l-.176-3.624a3.47 3.47 0 0 1 2.449-3.495c1.475-.45 2.732-.158 3.734.868a4.378 4.378 0 0 1 1.221 2.758c.727.144 1.25.719 1.257 1.394.009.798-.708 1.454-1.596 1.463a1.702 1.702 0 0 1-.258-.016l-.03.084-.013.036-.491 1.195c-.024.052-.086.076-.138.052a.104.104 0 0 1-.052-.138l.487-1.184.01-.03c.076-.212.09-.25.18-.234a1.48 1.48 0 0 0 .302.026c.775-.008 1.398-.57 1.39-1.252-.006-.597-.494-1.104-1.163-1.204l-.084-.013-.004-.085a4.174 4.174 0 0 0-1.167-2.706c-.957-.98-2.11-1.246-3.524-.815a3.262 3.262 0 0 0-2.302 3.286l.176 3.624a2.748 2.748 0 0 0 1.655 2.4l.086.037-.423 1.324-.05.017-.845.318c-.81.348-1.56.803-2.225 1.35a.104.104 0 0 1-.066.024m9.452-7.348a.105.105 0 0 1-.097-.066c-.119-.296-.408-.354-.804-.352a.103.103 0 0 1-.105-.103c0-.057.046-.105.104-.105.262-.002.803-.006 1 .482a.104.104 0 0 1-.098.144"/><path d="M92.661 21.309a.105.105 0 0 1-.024-.206.563.563 0 0 0 .412-.44.104.104 0 0 1 .12-.086c.057.009.095.062.086.12a.77.77 0 0 1-.57.61l-.024.002m-4.001.331c-.137 0-.289-.068-.344-.21-.062-.16.028-.32.076-.407l.301-.539a.105.105 0 0 1 .142-.04c.05.028.068.092.04.142l-.3.539c-.044.078-.089.167-.065.23.022.056.103.082.168.075a.694.694 0 0 0 .263-.113.104.104 0 1 1 .107.18.86.86 0 0 1-.349.14.419.419 0 0 1-.04.002m.033 1.619a1.684 1.684 0 0 1-1.326-.663.105.105 0 0 1 .021-.146.105.105 0 0 1 .146.02c.27.36.719.584 1.167.58s.894-.23 1.16-.593a.104.104 0 0 1 .145-.023c.046.034.057.1.023.146a1.684 1.684 0 0 1-1.326.679h-.01m2.843 3.718a.104.104 0 0 1-.102-.084c-.467-2.303.104-3.336.128-3.38a.105.105 0 0 1 .143-.038c.05.029.067.092.039.142-.007.012-.555 1.021-.105 3.235a.105.105 0 0 1-.103.125"/><path d="M93.932 23.265c1.009-1.589 1.046-3.482.543-5.243a2.623 2.623 0 0 0-.581-1.046c-.3-.33-.681-.575-1.053-.817l-.082-.048.019-.339a1.358 1.358 0 0 0-.127-.45c-.482-1.017-1.561-.868-2.495-.857-.524.006-.956-.14-1.336-.5-.397-.379-.645-.89-1.1-1.213-.696-.493-1.708-.16-2.172.493-.11.155-.194.328-.246.511-.263.93-.16 2.083.43 2.879-.61 1.878-.083 4.168-.083 4.168-.025-1.945.61-3.269.77-3.57.563.317 1.259.442 1.87.515l.867.08c1.096.085 1.75-.554 2.021-.904-.229.463-.296 1.327-.05 1.902.294.686.315 1.935.315 1.935l.106-.017c.677-1.014 1.03-1.346 1.804-.882l.033-.108c.921.568.947 2.61-1.17 2.423-.08-.007-.53 1.218-.734 1.779-.134.368-.108 1.241-.108 1.241.013.045 1.086-.436 1.132-.462.667-.371 1.016-.825 1.427-1.47m-12.698 8.357l-.043.303c-1.307 2.546-1.929 5.464-2.18 8.283-.078.867-.09 1.731-.087 2.596a17.67 17.67 0 0 1-.95-.697c.935-8.081 3.26-10.485 3.26-10.485"/></g><path d="M87.63 20.196a.447.447 0 1 1-.893 0 .447.447 0 0 1 .893 0m3.026-.214a.447.447 0 1 1-.893 0 .447.447 0 0 1 .893 0m-1.804-9.216c-9.65 0-17.499 7.85-17.499 17.499s7.85 17.499 17.499 17.499 17.499-7.85 17.499-17.499-7.85-17.499-17.5-17.499zm0 35.206c-4.73 0-9.177-1.842-12.521-5.187a17.592 17.592 0 0 1-5.187-12.52c0-4.73 1.842-9.177 5.187-12.521a17.59 17.59 0 0 1 12.52-5.186 17.59 17.59 0 0 1 12.522 5.186 17.592 17.592 0 0 1 5.186 12.521 17.59 17.59 0 0 1-5.186 12.52 17.591 17.591 0 0 1-12.521 5.187" class="B"/><path d="M101.372 40.786a17.592 17.592 0 0 1-12.52 5.186 17.59 17.59 0 0 1-12.521-5.186 17.59 17.59 0 0 1-5.187-12.521 17.59 17.59 0 0 1 5.187-12.521 17.592 17.592 0 0 1 12.52-5.186 17.59 17.59 0 0 1 12.521 5.186 17.591 17.591 0 0 1 5.187 12.521 17.59 17.59 0 0 1-5.187 12.521zM88.852 9.39c-10.409 0-18.877 8.467-18.877 18.876s8.468 18.876 18.877 18.876 18.875-8.468 18.875-18.876S99.26 9.39 88.852 9.39" class="G"/><path d="M88.852 9.389c-10.409 0-18.876 8.467-18.876 18.876s8.467 18.876 18.876 18.876 18.875-8.468 18.875-18.876S99.26 9.389 88.852 9.389zm0 37.96a18.96 18.96 0 0 1-13.495-5.59 18.96 18.96 0 0 1-5.59-13.494c0-5.098 1.985-9.89 5.59-13.495a18.958 18.958 0 0 1 13.495-5.59c5.098 0 9.89 1.985 13.494 5.59a18.957 18.957 0 0 1 5.59 13.495 18.96 18.96 0 0 1-5.59 13.495 18.961 18.961 0 0 1-13.494 5.59" class="B"/><path d="M71.249 94.963c0 9.722 7.88 17.603 17.603 17.603s17.603-7.881 17.603-17.603-7.882-17.604-17.603-17.604-17.603 7.882-17.603 17.604" class="C"/><path d="M92.981 90.202l-.004.123a1.192 1.192 0 0 1-.067.295l-.019.048-.03.065a1.25 1.25 0 0 1-.074.13 1.44 1.44 0 0 1-.812.588 1.89 1.89 0 0 1-.21.046l-.024.003a1.75 1.75 0 0 1-.066.007c-.047.005-.095.005-.143.007l-.069-.002h-.01l-.007.001c-.08.011-.085.038-.128.248l-.009.039-.319 1.24a2.04 2.04 0 0 0-.053.22v.003l-.001.005c-.022.12-.328 2.06 1.5 3.427-.32.41-1.801 2.193-3.249 2.064-.732-.065-1.357-.615-1.856-1.637l-.008-.623-.012-1.085-.075-.021-.09-.027a2.55 2.55 0 0 1-.348-.137 2.766 2.766 0 0 1-.758-.53l-.013-.013-.019-.029a1.404 1.404 0 0 0-.273-.313l-.03-.043a1.056 1.056 0 0 1-.033-.05 1.074 1.074 0 0 1-.07-.111l-.006-.01a1.324 1.324 0 0 1-.042-.077.965.965 0 0 1-.062-.119 3.524 3.524 0 0 1-.13-.316 2.657 2.657 0 0 1-.098-.373l-.407-2.158v-.003l.046-.158a3.403 3.403 0 0 1 2.255-2.278c1.55-.475 1.9-1 1.947-1.332.342.316.807 1.096 1.06 1.528v.002l-.077 1.21a2.942 2.942 0 0 0 .035.363l.021.125.003.02.004.02a.28.28 0 0 1 .005.025l.004.024.005.029.012.058a2.793 2.793 0 0 0 .078.318l.02.063a2.157 2.157 0 0 0 .058.162l.032.077a2.376 2.376 0 0 0 .21.387c-.009-2.515.99-2.699.99-2.699l.086.004c.14.001.28.022.414.061l.036.011a1.508 1.508 0 0 1 .287.13l.009.005a1.246 1.246 0 0 1 .45.462l.025.05a1.22 1.22 0 0 1 .081.23l.016.083.012.138" class="D"/><path d="M87.294 96.513l.077-.035c.405-.152.797-.33 1.179-.53s.766-.408 1.1-.684a.91.91 0 0 0 .192-.198c.058-.089.102-.224.042-.324-.072-.12-.223-.115-.345-.089-.62.13-1.175.469-1.776.657a2.85 2.85 0 0 1-.452.104l-.017 1.1m.086-3.716c.13.215.381.457.65.514.15.032.292.002.423-.089.259-.18.36-.639.398-.896a.042.042 0 0 0-.015-.04.04.04 0 0 0-.027-.01l-.014.002-1.39.46a.045.045 0 0 0-.028.026.039.039 0 0 0 .003.033" class="E"/><path d="M81.062 110.753l.314-2.923c.232-1.613.527-3.323 1.118-4.9.234-.626.496-1.185.8-1.709a9.552 9.552 0 0 1 .726-1.088c.846-1.097 1.91-2.05 3.165-2.835.528 1.038 1.195 1.599 1.984 1.67l.17.007c1.568 0 3.048-1.868 3.295-2.195 2.033.044 4.033.62 5.788 1.667 2.459 1.466 4.004 4.483 3.988 7.744a17.565 17.565 0 0 1-13.558 6.375 17.52 17.52 0 0 1-7.48-1.664 84.524 84.524 0 0 0 3.151-1.39c4.996-2.333 8.074-4.464 9.151-6.335a.104.104 0 0 0-.18-.104c-1.055 1.833-4.103 3.936-9.06 6.25a82.32 82.32 0 0 1-3.315 1.458l-.057-.028m-4.996-3.691a17.667 17.667 0 0 0 3.913 3.108l.016-.106.116-.774.021-.144.087-.578c.004-.03.01-.059.013-.088l.046-.303.024-.158.015-.096.016-.109.029-.19a13.907 13.907 0 0 1 .425-1.908 12.7 12.7 0 0 1 .302-.907 25.076 25.076 0 0 1 .093-.242 14.09 14.09 0 0 1 .647-1.423l.061-.116a16.485 16.485 0 0 1 .292-.518l.02-.032a3.64 3.64 0 0 1 .092-.153c.02-.035.041-.067.062-.1a2.16 2.16 0 0 1 .049-.077c.017-.029.035-.056.053-.083a10.73 10.73 0 0 1 .541-.765 43.771 43.771 0 0 1-4.038 3.658 39.485 39.485 0 0 1-2.895 2.104" fill="#6fc8c4"/><g class="B"><path d="M86.14 89.908a.446.446 0 1 0 .12.884.446.446 0 0 0-.12-.884m2.966-.631a.446.446 0 1 0 .123.884.446.446 0 0 0-.123-.884m-4.26 5.355c1.609.432 1.131 2.023 1.116 2.07.5-.627.485-2.036-.502-2.54-.67-.341-1.332-.719-1.041-1.584l.484-1.649a3.403 3.403 0 0 1 2.232-2.27l.024-.008c1.55-.475 1.9-1 1.947-1.332.342.316.807 1.096 1.06 1.528-.046.682-.142 1.058-.022 1.697.04.212.108.699.432 1.186-.01-2.515.99-2.698.99-2.698l.02-.261.03-.007.037.167.246.02c.085.015.169.035.25.063a1.41 1.41 0 0 1 .738.562c.152.235.217.52.184.798a1.281 1.281 0 0 1-.11.391c-.052.112-.126.207-.195.308a1.17 1.17 0 0 1-.542.413c-.153.06-.318.111-.483.127-.033.003-.22.035-.24.014-.013.068-.009.146-.012.217-.083.005-.172.444-.19.51l-.221.843a1.593 1.593 0 0 0-.058.632c.02.146.037.33.11.46l.02.18.05.191c.182-.08.866-.491.902-.517.613-.432.901-.895 1.225-1.541.275-.548.43-1.112.487-1.68.12-1.203.043-2.502-.731-3.483l.24-.151a1.52 1.52 0 0 0 .275-.327c.571-.915.068-2.262-1.125-3.008s-2.625-.608-3.196.308c-.234.374-.286.82-.187 1.267l-.54-.176c-2.072-.675-4.334.407-5.046 2.467a3.092 3.092 0 0 0-.178.88 7.26 7.26 0 0 0 .537 2.922c-.642.548-.295 2.666.983 3.01M79.98 110.17l.982.533a52.415 52.415 0 0 1 .147-1.576 29.432 29.432 0 0 1 .116-.958l.048-.354c.24-1.672.537-3.354 1.123-4.92a11.44 11.44 0 0 1 .808-1.726l-.015-.099-.19.23-.541.765-.053.083-.049.077-.062.1-.093.153-.019.032-.057.098-.176.313-.059.107-.061.116a14.088 14.088 0 0 0-.647 1.423l-.047.12a20.79 20.79 0 0 0-.124.34 12.69 12.69 0 0 0-.263.826l-.139.522-.034.143a13.492 13.492 0 0 0-.213 1.107l-.029.19-.016.108-.015.096-.024.158a48.67 48.67 0 0 0-.046.303l-.013.088-.087.578-.021.144-.116.774-.015.106"/><path d="M80.962 110.807h-.008a.104.104 0 0 1-.096-.113 31.219 31.219 0 0 1 .054-.64v-.015a32.986 32.986 0 0 1 .07-.712l.023-.213.027-.244.043-.36a29.064 29.064 0 0 1 .095-.71c.233-1.624.531-3.348 1.128-4.943a11.53 11.53 0 0 1 .815-1.74l.477-.751.005-.008.26-.353c.882-1.144 1.998-2.135 3.317-2.946l.025-.015h.03a.105.105 0 0 1 .045.198c-1.293.797-2.387 1.77-3.252 2.89a10.6 10.6 0 0 0-.258.352l-.006.009-.462.728a11.282 11.282 0 0 0-.8 1.71c-.59 1.576-.886 3.286-1.118 4.9a28.588 28.588 0 0 0-.094.706l-.043.357a15.645 15.645 0 0 0-.05.454l-.034.334-.035.376-.002.015-.028.335-.024.303a.105.105 0 0 1-.104.097"/><path d="M87.227 97.252a.104.104 0 0 1-.105-.103l-.018-1.577-.015-.004-.008-.003a3.18 3.18 0 0 1-.372-.146 2.97 2.97 0 0 1-.815-.57l-.053-.054-.051-.054a2.923 2.923 0 0 0-.045-.05l-.016-.02a2.118 2.118 0 0 1-.112-.136c-.009-.01-.019-.025-.03-.04l-.02-.027-.034-.048a1.384 1.384 0 0 1-.038-.058 1.075 1.075 0 0 1-.04-.061.99.99 0 0 1-.032-.054l-.007-.01-.047-.085a1.082 1.082 0 0 1-.04-.075.612.612 0 0 1-.027-.057 2.22 2.22 0 0 1-.137-.335 2.747 2.747 0 0 1-.105-.4l-.674-3.566a3.495 3.495 0 0 1 .37-2.33l.005-.01.046-.078a3.439 3.439 0 0 1 1.682-1.453 4.412 4.412 0 0 1 .936-.286c.218-.04.44-.06.653-.057h.013a3.356 3.356 0 0 1 .283.016l.068.007.142.021.07.013.182.041.082.022a3.83 3.83 0 0 1 .552.213 3.378 3.378 0 0 1 .382.217 4.187 4.187 0 0 1 .541.415 4.422 4.422 0 0 1 1.345 2.357c.13.008.259.03.384.066l.021-.002.019.015a1.433 1.433 0 0 1 .494.26 1.4 1.4 0 0 1 .374.436l.029.057a1.312 1.312 0 0 1 .098.277l.018.1a1.327 1.327 0 0 1-.01.449 1.36 1.36 0 0 1-.106.318l-.027.055a1.373 1.373 0 0 1-.134.21 1.66 1.66 0 0 1-.866.584 1.7 1.7 0 0 1-.237.051l-.025.004a1.579 1.579 0 0 1-.23.016l-.019.081a22.475 22.475 0 0 1-.331 1.295c-.02.065-.035.133-.048.203a.104.104 0 0 1-.205-.038c.013-.077.031-.152.053-.224l.32-1.24.008-.038c.043-.21.048-.237.125-.249h.02l.07.001h.002a1.506 1.506 0 0 0 .206-.014l.025-.003a1.597 1.597 0 0 0 .526-.178 1.437 1.437 0 0 0 .494-.454c.03-.045.055-.09.077-.134l.03-.069a1.055 1.055 0 0 0 .085-.339l.003-.12a1.212 1.212 0 0 0-.012-.137l-.015-.082a1.222 1.222 0 0 0-.107-.283 1.217 1.217 0 0 0-.449-.46v-.001l-.01-.006a1.25 1.25 0 0 0-.287-.129l-.02.003-.017-.014a1.53 1.53 0 0 0-.413-.062h-.085l-.017-.084a4.211 4.211 0 0 0-1.529-2.518 4 4 0 0 0-.642-.404 3.11 3.11 0 0 0-.765-.259l-.06-.011a2.814 2.814 0 0 0-.135-.02l-.065-.007a2.594 2.594 0 0 0-.258-.016h-.008a3.236 3.236 0 0 0-.777.085 3.556 3.556 0 0 0-.5.148 4.127 4.127 0 0 0-.394.163 3.23 3.23 0 0 0-1.43 1.3l-.043.073-.005.009a3.288 3.288 0 0 0-.347 2.19l.674 3.565a2.824 2.824 0 0 0 .331.885l.007.01.03.05.036.057.036.053a1.782 1.782 0 0 0 .078.107 1.887 1.887 0 0 0 .107.131l.01.012v.001l.044.048a1.644 1.644 0 0 0 .094.098 2.605 2.605 0 0 0 .192.172l.06.048a2.802 2.802 0 0 0 .853.447l.007.003.085.025.076.021.02 1.733a.104.104 0 0 1-.103.105h-.001m5.276-6.913a.103.103 0 0 1-.09-.053c-.159-.276-.453-.295-.845-.236a.105.105 0 0 1-.118-.089.104.104 0 0 1 .088-.118c.257-.038.794-.117 1.056.34a.105.105 0 0 1-.09.156"/><path d="M91.764 90.696a.104.104 0 0 1-.037-.201.56.56 0 0 0 .346-.493.105.105 0 0 1 .105-.102h.003c.057.001.103.05.101.107a.766.766 0 0 1-.48.682.104.104 0 0 1-.038.007m-3.962.884c-.12 0-.246-.05-.31-.165-.084-.15-.016-.32.02-.413l.223-.575a.104.104 0 0 1 .195.075l-.224.575c-.033.084-.065.178-.032.237.029.052.112.067.176.051.088-.021.168-.086.245-.148a.105.105 0 0 1 .147.016c.036.045.03.11-.016.147-.086.069-.193.155-.326.188a.41.41 0 0 1-.098.011m14.711 14.59a.105.105 0 0 1-.104-.104c-.03-3.2-1.594-6.19-3.987-7.618a11.824 11.824 0 0 0-5.84-1.668h-.033l-.027-.02c-1.975-1.408-1.589-3.476-1.585-3.497a.104.104 0 0 1 .204.041c-.003.02-.357 1.94 1.476 3.268a12.03 12.03 0 0 1 5.913 1.698c1.263.753 2.312 1.915 3.034 3.36a10.198 10.198 0 0 1 1.054 4.434.105.105 0 0 1-.104.106m-21.268 4.778a.105.105 0 0 1-.04-.201 85.125 85.125 0 0 0 3.229-1.422c4.956-2.316 8.004-4.418 9.058-6.25a.104.104 0 0 1 .143-.039c.05.029.067.093.038.142-1.077 1.87-4.155 4.002-9.151 6.336-.999.466-2.088.946-3.237 1.425a.098.098 0 0 1-.04.01m6.159-18.209a.045.045 0 0 0-.028.027.039.039 0 0 0 .003.033c.13.214.381.456.65.513.15.032.293.002.423-.088.259-.181.36-.64.398-.897a.04.04 0 0 0-.015-.04.04.04 0 0 0-.041-.008zm.742.794a.8.8 0 0 1-.16-.016c-.353-.075-.644-.376-.786-.61a.245.245 0 0 1-.02-.214.25.25 0 0 1 .158-.153l1.39-.46a.252.252 0 0 1 .328.277c-.052.355-.177.823-.485 1.038a.728.728 0 0 1-.425.138"/><path d="M89.34 98.975a1.62 1.62 0 0 1-.171-.008c-.815-.072-1.5-.669-2.036-1.774a.105.105 0 0 1 .188-.09c.502 1.033 1.13 1.592 1.866 1.656 1.628.144 3.295-2.123 3.311-2.146a.104.104 0 0 1 .146-.023c.046.034.057.1.023.146-.068.094-1.648 2.239-3.328 2.239m-13.344 8.116a.103.103 0 0 1-.087-.047.104.104 0 0 1 .03-.144c4.515-2.975 7.532-6.4 7.659-6.543l.006-.007a.104.104 0 0 1 .147 0c.04.04.04.106 0 .147-.123.141-3.159 3.587-7.698 6.576a.1.1 0 0 1-.057.018"/><path d="M88.852 77.533c-9.61 0-17.43 7.82-17.43 17.43s7.82 17.429 17.43 17.429 17.429-7.819 17.429-17.43-7.819-17.429-17.43-17.429zm0 35.206a17.663 17.663 0 0 1-12.57-5.206 17.662 17.662 0 0 1-5.207-12.57 17.66 17.66 0 0 1 5.206-12.57 17.661 17.661 0 0 1 12.57-5.207c4.749 0 9.213 1.849 12.57 5.207a17.658 17.658 0 0 1 5.208 12.57 17.66 17.66 0 0 1-17.777 17.776"/><path d="M88.852 77.464c-9.65 0-17.499 7.85-17.499 17.499s7.85 17.498 17.499 17.498 17.499-7.85 17.499-17.498-7.85-17.5-17.5-17.5zm0 35.206a17.59 17.59 0 0 1-12.521-5.186 17.593 17.593 0 0 1-5.187-12.521 17.59 17.59 0 0 1 5.187-12.522 17.593 17.593 0 0 1 12.52-5.186c4.73 0 9.177 1.842 12.522 5.186a17.595 17.595 0 0 1 5.186 12.522 17.59 17.59 0 0 1-5.186 12.52 17.593 17.593 0 0 1-12.521 5.187"/></g><path d="M71.144 94.963a17.59 17.59 0 0 1 5.187-12.522 17.592 17.592 0 0 1 12.52-5.186 17.59 17.59 0 0 1 17.707 17.708 17.59 17.59 0 0 1-5.186 12.52 17.592 17.592 0 0 1-12.52 5.187 17.59 17.59 0 0 1-12.521-5.186 17.591 17.591 0 0 1-5.187-12.521zm-1.169 0c0 10.407 8.468 18.875 18.876 18.875s18.876-8.468 18.876-18.875a18.9 18.9 0 0 0-18.876-18.876c-10.408 0-18.876 8.467-18.876 18.876" class="G"/><path d="M88.852 76.087c-10.409 0-18.876 8.468-18.876 18.876s8.467 18.875 18.876 18.875 18.875-8.467 18.875-18.875-8.467-18.876-18.875-18.876zm0 37.96c-5.098 0-9.89-1.985-13.495-5.59a18.957 18.957 0 0 1-5.59-13.494 18.96 18.96 0 0 1 19.085-19.085c5.098 0 9.89 1.986 13.494 5.59a18.96 18.96 0 0 1 5.59 13.495c0 5.097-1.985 9.89-5.59 13.494a18.958 18.958 0 0 1-13.494 5.59" class="B"/><path d="M130.17 61.614c0 9.721-7.881 17.603-17.603 17.603s-17.603-7.882-17.603-17.603 7.881-17.603 17.603-17.603 17.603 7.88 17.603 17.603" class="C"/><path d="M125.8 70.61a8.554 8.554 0 0 1-.692 3.08l-.001.004a7.31 7.31 0 0 1-.083.189l-.03.065a4.403 4.403 0 0 1-.12.25 17.54 17.54 0 0 1-12.307 5.019 17.519 17.519 0 0 1-10.158-3.225 116.321 116.321 0 0 0 1.48-.59l.217-.09.218-.089a1.59 1.59 0 0 0 .051-.022h.001c4.88-2.018 11.044-5.024 12.693-7.887a.104.104 0 1 0-.181-.104c-.895 1.553-3.286 3.335-7.012 5.248a56.332 56.332 0 0 1-2.114 1.032 87.564 87.564 0 0 1-3.31 1.453l.03-.38a50.475 50.475 0 0 1 .15-1.516l.139-1.08c.173-1.209.383-2.472.725-3.692l.032-.11a17.886 17.886 0 0 1 .2-.646 13.87 13.87 0 0 1 .158-.446l.002-.006c.276-.736.598-1.4.976-2.005a9.817 9.817 0 0 1 .868-1.185 14.517 14.517 0 0 1 .336-.379 8.778 8.778 0 0 1 .388-.4l.082-.079c.037-.037.074-.071.111-.105l.086-.08c.032-.03.064-.06.096-.087a8.573 8.573 0 0 1 .334-.289 12.295 12.295 0 0 1 .216-.177l.017-.014.196-.152.207-.154.02-.014a12.133 12.133 0 0 1 .64-.437l.001-.002a4.926 4.926 0 0 0-.033.203l-.008.072-.01.074a6.693 6.693 0 0 0-.035.564l-.002.086a15.91 15.91 0 0 0 .011.943l.004.1.036.604v.013l.04.493a50.807 50.807 0 0 0 .057.597l.001.023.01.098.032.288.022.186.008.065.032.264c0 .01.002.019.004.028l.018.141.031.24.014.106.048.349.018.123.048.325.008.05.006.04.005.031c.01.058.015.096.017.11l.002.008a.091.091 0 0 0 .013.03l.004.005.002.003.002.002v.002l.008.007.002.002.003.002.002.003.007.004v.001l.005.002.002.001.005.003.006.003.015.006.012.002.016.002.017-.002.016-.004h.002l.006-.003.013-.006.009-.006.003-.003v-.001l.004-.002v-.001l.005-.004.004-.005.005-.006.004-.004.002-.004.004-.007.004-.007.003-.007v-.004a3.43 3.43 0 0 1 .074-.233 5.925 5.925 0 0 1 .366-.816 7.55 7.55 0 0 1 .15-.273l.064-.11a14.65 14.65 0 0 1 .698-1.078c.129-.185.263-.37.401-.555l.09-.119.142-.187.208-.268.329-.411.109-.134.217-.263.108-.129.266-.314.208-.24.1-.115.1-.113a26.468 26.468 0 0 1 .331-.372l.24-.264.099-.108.076-.084.047-.05.067-.073c.02-.023.042-.045.063-.067l.032-.034.061-.066.058-.06.052-.057.103-.107.046-.048a2.6 2.6 0 0 1 .066-.07l.001-.001a11.81 11.81 0 0 1 5.797 1.667c2.53 1.509 4.092 4.66 3.982 8.027m-20.244-3.241v.002c-.049.102-1.3 2.687-1.622 7.784l-1.73.691a17.683 17.683 0 0 1-3.739-3.693 42.667 42.667 0 0 0 4.042-2.46 36.255 36.255 0 0 0 3.049-2.323" fill="#5ed0fa"/><path d="M114.97 55.859c0-.004.004-.018.009-.034.055-.216.065-.256.157-.247.102.01.204.01.303 0 .77-.078 1.342-.693 1.273-1.372-.06-.595-.592-1.056-1.267-1.096l-.084-.005-.023.006s-.15-.8-.865-1.647c-.658-.78-1.418-.815-2.835.01-1.017.59-2.062.872-3.008.632a7.3 7.3 0 0 0-.215 1.684l.447 3.218a2.75 2.75 0 0 0 1.865 2.241l.073.024-.074 1.997v.01a.08.08 0 0 1-.003.03v.001l-.005.012-.003.01c-.363 1.268.094 4.73.27 5.937.935-2.38 4.376-5.975 4.865-6.479l-.513-.956-.55-1.029-.046-.092a2.467 2.467 0 0 1-.217-.526 1.927 1.927 0 0 1 .066-1.107l.38-1.222" class="D"/><path d="M110.729 59.336l-.06 1.094c.04-.014.164-.08.205-.095a10.8 10.8 0 0 0 1.172-.543c.38-.205.762-.417 1.093-.697a1 1 0 0 0 .19-.2c.056-.09.1-.226.038-.325-.073-.12-.225-.112-.346-.085-.62.137-1.17.482-1.768.676a2.87 2.87 0 0 1-.461.111l-.156.023.093.04" class="E"/><g class="B"><path d="M104.244 74.938l.32-3.001c.216-1.497.485-3.078.993-4.565-.048.102-1.3 2.687-1.62 7.784l.3-.123.007-.095m3.317-23.375a2.92 2.92 0 0 0 .515.335c-.022 1.516.389 3.005.389 3.005-.131-1.267.016-2.217.165-2.797.946.24 1.99-.041 3.008-.632 1.417-.825 2.178-.789 2.835-.01.715.848.865 1.647.865 1.647 1.499-.462 2.384 2.568-.212 2.572-.079 0-.418 1.26-.57 1.837-.101.379.22 1.146.22 1.146s6.176-3.46 1.55-9.25c-2.042-2.554-3.752-1.983-5.288-1.485-1.943.63-2.97 1.365-3.732 1.24-.407-.068-.779-.392-.833-.159s-.096 1.594 1.088 2.551"/><path d="M109.898 53.716a.447.447 0 1 0 .08.89.447.447 0 0 0-.08-.89m2.995-.486a.446.446 0 1 0 .079.89.446.446 0 0 0-.08-.89m-7.004 13.837l-.002.006a.107.107 0 0 1-.026.036l-.302.262v.001l-.168.142-.171.143-1.785 1.384-.22.157a36.976 36.976 0 0 1-.705.496 39.381 39.381 0 0 1-1.976 1.28l-.254.153-.51.3-.258.149a51.41 51.41 0 0 1-1.044.578 9.974 9.974 0 0 1-.125-.17 42.281 42.281 0 0 0 4.05-2.462c1.273-.877 2.357-1.712 3.31-2.553l.02-.017a.104.104 0 0 1 .166.115m5.06.745a.13.13 0 0 1-.029-.004.105.105 0 0 1-.072-.128c.689-2.472 4.878-6.76 5.056-6.942a.105.105 0 0 1 .148-.001c.041.04.042.106.001.147s-4.33 4.432-5.005 6.851a.104.104 0 0 1-.1.077"/><path d="M110.947 67.812a.103.103 0 0 1-.102-.088c-.033-.2-.789-4.903-.323-6.47a.105.105 0 0 1 .2.06c-.452 1.52.32 6.328.329 6.377a.105.105 0 0 1-.086.12h-.018m6.122-.497c-1.65 2.863-7.812 5.869-12.693 7.887a1.76 1.76 0 0 1-.052.022l-.219.09a50.833 50.833 0 0 1-.43.175l-1.266.504a15.32 15.32 0 0 1-.202-.145l.298-.117.458-.18.368-.148.33-.134.275-.112.244-.1.01-.004h.001l.001-.001.045-.018.06-.025.155-.065a93.797 93.797 0 0 0 2.742-1.191 76.543 76.543 0 0 0 1.656-.78 73.362 73.362 0 0 0 1.025-.514c3.726-1.913 6.117-3.695 7.012-5.248a.104.104 0 0 1 .181.104m8.94 3.304a8.762 8.762 0 0 1-.698 3.129l-.007.015-.004.01a10.12 10.12 0 0 1-.158.355l-.019-.178c-.081.084-.165.166-.248.249l.058-.12c.02-.043.042-.086.061-.13l.03-.066c.029-.061.056-.125.083-.188l.001-.003a8.553 8.553 0 0 0 .691-3.08c.11-3.368-1.453-6.519-3.982-8.027a11.81 11.81 0 0 0-5.796-1.668l-.032-.001h-.013a.09.09 0 0 1-.04-.01l-.017-.008-.018-.016a.137.137 0 0 1-.016-.024l-.004-.007a.102.102 0 0 1 .022-.112l.001-.002.015-.012.017-.009h.002l.019-.007h.01l.012-.002a12.036 12.036 0 0 1 5.944 1.698c2.593 1.547 4.195 4.77 4.083 8.214"/><path d="M104.337 75.209h-.007a.105.105 0 0 1-.098-.11l.012-.16.32-3.002c.234-1.625.531-3.348 1.13-4.943.407-1.091.916-2.024 1.555-2.852.884-1.146 2-2.137 3.319-2.946a.103.103 0 0 1 .143.034.105.105 0 0 1-.034.143c-1.297.796-2.394 1.771-3.263 2.896-.626.812-1.125 1.727-1.525 2.798-.591 1.576-.887 3.286-1.119 4.9l-.318 2.988-.011.156a.104.104 0 0 1-.104.098"/><path d="M104.323 75.224l-.218.09.017-.174a.103.103 0 0 1 .058-.083l.01-.004.001-.001a.116.116 0 0 1 .045-.005c.057.006.1.057.094.114l-.004.047-.002.015v.001m20.987-1.469l-.007.007-.004.01a9.42 9.42 0 0 1-.159.355l-.018-.178-.023-.206a.096.096 0 0 1 .007-.049l.001-.003a.104.104 0 0 1 .2.03l.003.026v.008M110.62 61.393h-.003a.104.104 0 0 1-.1-.108l.069-1.864a2.956 2.956 0 0 1-1.93-2.385l-.5-3.594a3.47 3.47 0 0 1 2.126-3.7c1.43-.58 2.707-.403 3.797.53a4.375 4.375 0 0 1 1.463 2.638c.737.078 1.31.603 1.378 1.275.08.793-.575 1.512-1.46 1.6-.084.01-.17.011-.258.007l-.022.085-.01.039-.382 1.234a1.72 1.72 0 0 0-.062.989c.042.168.12.32.201.481l.047.093.546 1.022.55 1.03a.104.104 0 1 1-.187.093l-.545-1.023-.55-1.03a4.112 4.112 0 0 0-.047-.09c-.083-.165-.17-.335-.217-.526a1.924 1.924 0 0 1 .067-1.108l.378-1.222.01-.034c.055-.216.064-.256.156-.247.103.01.205.01.303 0 .771-.077 1.342-.693 1.274-1.372-.06-.595-.593-1.056-1.267-1.095l-.085-.005-.012-.085a4.176 4.176 0 0 0-1.405-2.59c-1.04-.89-2.212-1.053-3.583-.496a3.261 3.261 0 0 0-1.998 3.479l.5 3.594a2.748 2.748 0 0 0 1.864 2.24l.073.026-.075 2.019a.105.105 0 0 1-.104.1m5.619-6.935a.104.104 0 0 1-.093-.058c-.145-.283-.437-.316-.832-.278a.104.104 0 1 1-.02-.208c.26-.025.799-.077 1.038.391a.104.104 0 0 1-.046.14.106.106 0 0 1-.047.013"/><path d="M115.484 54.779a.105.105 0 0 1-.033-.204.554.554 0 0 0 .37-.475.105.105 0 0 1 .209.015.768.768 0 0 1-.513.658.11.11 0 0 1-.033.006m-3.984.689c-.127 0-.262-.056-.324-.18-.076-.152 0-.321.04-.413l.251-.562c.024-.053.085-.077.138-.053s.076.085.053.138l-.251.563c-.037.082-.074.175-.044.234s.11.073.174.06c.089-.017.171-.077.251-.135a.105.105 0 0 1 .146.023.105.105 0 0 1-.023.146.872.872 0 0 1-.334.171.417.417 0 0 1-.078.008m.074 1.613a1.69 1.69 0 0 1-1.238-.547.105.105 0 0 1 .156-.14 1.47 1.47 0 0 0 1.213.472c.448-.043.87-.31 1.101-.694a.104.104 0 1 1 .179.107 1.681 1.681 0 0 1-1.41.802m.993-12.966c-9.649 0-17.5 7.85-17.5 17.499s7.851 17.499 17.5 17.499 17.498-7.85 17.498-17.5-7.85-17.498-17.498-17.498zm0 35.206c-4.73 0-9.177-1.842-12.522-5.186a17.595 17.595 0 0 1-5.186-12.521 17.59 17.59 0 0 1 5.186-12.521 17.59 17.59 0 0 1 25.042 0 17.593 17.593 0 0 1 5.187 12.52c0 4.73-1.842 9.177-5.186 12.522a17.593 17.593 0 0 1-12.521 5.186"/></g><path d="M125.088 74.135a17.592 17.592 0 0 1-12.52 5.186c-4.73 0-9.178-1.842-12.522-5.186a17.59 17.59 0 0 1-5.186-12.521 17.59 17.59 0 0 1 5.186-12.521 17.592 17.592 0 0 1 12.521-5.187c4.73 0 9.177 1.842 12.52 5.187a17.59 17.59 0 0 1 5.187 12.52 17.59 17.59 0 0 1-5.186 12.522zm-12.52-31.397c-10.41 0-18.877 8.467-18.877 18.876s8.468 18.875 18.876 18.875 18.876-8.467 18.876-18.875-8.468-18.876-18.876-18.876" class="G"/><path d="M112.567 42.738c-10.408 0-18.876 8.468-18.876 18.876s8.468 18.875 18.876 18.875 18.875-8.467 18.875-18.875-8.467-18.876-18.875-18.876zm0 37.96c-5.098 0-9.89-1.985-13.495-5.59a18.96 18.96 0 0 1-5.59-13.494c0-5.098 1.985-9.89 5.59-13.495a18.958 18.958 0 0 1 13.495-5.59c5.098 0 9.89 1.985 13.494 5.59a18.957 18.957 0 0 1 5.59 13.495 18.96 18.96 0 0 1-5.59 13.494 18.957 18.957 0 0 1-13.494 5.59" class="B"/><path d="M49.258 109.1a.802.802 0 0 1-1.605 0v-2.63a.802.802 0 1 1 1.605 0zm13.268 3.558l-1.293-5.217-1.756-7.084a3.877 3.877 0 0 0-3.77-2.95H41.204a3.877 3.877 0 0 0-3.77 2.95l-1.756 7.084-1.293 5.217a3.859 3.859 0 0 0 3.77 4.818h20.6a3.859 3.859 0 0 0 3.771-4.818" fill="#5ed0fa"/><path d="M61.322 107.441H35.59l.96-3.875.8-3.23a3.971 3.971 0 0 1 3.855-3.015h14.503a3.97 3.97 0 0 1 3.854 3.015l1.761 7.105" fill="#0b69a3"/><path d="M48.455 105.668a.803.803 0 0 0-.802.803v2.629a.803.803 0 0 0 1.605 0v-2.63a.803.803 0 0 0-.803-.802" class="C"/><path d="M54.002 97.234h-1.135a4.607 4.607 0 0 0-4.402-3.29 4.607 4.607 0 0 0-4.403 3.29h-1.135a5.717 5.717 0 0 1 5.538-4.387 5.717 5.717 0 0 1 5.537 4.387" fill="#4450e4"/><g class="B"><path d="M41.204 97.425a3.86 3.86 0 0 0-3.753 2.936l-3.049 12.302a3.841 3.841 0 0 0 .708 3.311 3.843 3.843 0 0 0 3.045 1.484h20.601a3.843 3.843 0 0 0 3.045-1.484 3.84 3.84 0 0 0 .708-3.311l-3.05-12.302a3.859 3.859 0 0 0-3.752-2.936zm17.552 20.242H38.155a4.051 4.051 0 0 1-3.21-1.564 4.05 4.05 0 0 1-.745-3.49l3.049-12.302a4.067 4.067 0 0 1 3.955-3.095h14.503a4.067 4.067 0 0 1 3.955 3.095l3.05 12.301a4.05 4.05 0 0 1-3.956 5.055"/><path d="M52.88 97.216h1.099a5.7 5.7 0 0 0-5.514-4.351 5.7 5.7 0 0 0-5.515 4.351h1.098a4.625 4.625 0 0 1 4.417-3.29 4.625 4.625 0 0 1 4.415 3.29zm1.358.209h-1.515l-.022-.077a4.415 4.415 0 0 0-4.236-3.214 4.416 4.416 0 0 0-4.238 3.214l-.021.077H42.69l.027-.127a5.91 5.91 0 0 1 5.747-4.642 5.907 5.907 0 0 1 5.746 4.642l.027.127m-6.584 10.121H35.59a.104.104 0 1 1 0-.209h12.064a.104.104 0 1 1 0 .209m13.668 0H49.258a.104.104 0 1 1 0-.209h12.064a.104.104 0 1 1 0 .209"/><path d="M48.455 105.772a.7.7 0 0 0-.698.699v2.629a.7.7 0 0 0 1.396 0v-2.63a.7.7 0 0 0-.698-.698zm0 4.235a.908.908 0 0 1-.906-.907v-2.63a.908.908 0 0 1 1.813 0v2.63a.91.91 0 0 1-.907.907"/></g></svg>