<?xml version="1.0" encoding="UTF-8" standalone="no"?>
<!-- Created with Inkscape (http://www.inkscape.org/) -->

<svg
   width="56mm"
   height="13.2mm"
   viewBox="0 0 56 13.2"
   version="1.1"
   id="svg1512"
   inkscape:version="1.2.2 (1:1.2.2+202212051552+b0a8486541)"
   sodipodi:docname="reputebee_logo_Right_text.svg"
   xml:space="preserve"
   xmlns:inkscape="http://www.inkscape.org/namespaces/inkscape"
   xmlns:sodipodi="http://sodipodi.sourceforge.net/DTD/sodipodi-0.dtd"
   xmlns="http://www.w3.org/2000/svg"
   xmlns:svg="http://www.w3.org/2000/svg"><sodipodi:namedview
     id="namedview1514"
     pagecolor="#ffffff"
     bordercolor="#666666"
     borderopacity="1.0"
     inkscape:showpageshadow="2"
     inkscape:pageopacity="0.0"
     inkscape:pagecheckerboard="0"
     inkscape:deskcolor="#d1d1d1"
     inkscape:document-units="mm"
     showgrid="false"
     showguides="true"
     inkscape:zoom="11.313708"
     inkscape:cx="113.57903"
     inkscape:cy="19.533825"
     inkscape:window-width="1452"
     inkscape:window-height="767"
     inkscape:window-x="26"
     inkscape:window-y="23"
     inkscape:window-maximized="0"
     inkscape:current-layer="layer11"><inkscape:grid
       type="xygrid"
       id="grid1613"
       originx="0"
       originy="0" /><sodipodi:guide
       position="13.0049,7.9462612"
       orientation="1,0"
       id="guide2392"
       inkscape:locked="false" /><sodipodi:guide
       position="1.9923618,7.710482"
       orientation="1,0"
       id="guide2701"
       inkscape:locked="false" /><sodipodi:guide
       position="1.0018561,7.4490558"
       orientation="1,0"
       id="guide2749"
       inkscape:locked="false" /><sodipodi:guide
       position="10.609574,12.198555"
       orientation="0,-1"
       id="guide7222"
       inkscape:locked="false" /><sodipodi:guide
       position="6.4905598,11.199088"
       orientation="0,-1"
       id="guide7224"
       inkscape:locked="false" /><sodipodi:guide
       position="5.5397135,0.1858071"
       orientation="0,-1"
       id="guide7226"
       inkscape:locked="false" /><sodipodi:guide
       position="10.23652,1.1821933"
       orientation="0,-1"
       id="guide7228"
       inkscape:locked="false" /><sodipodi:guide
       position="-2.2722128,6.2058531"
       orientation="0,-1"
       id="guide7349"
       inkscape:locked="false" /><sodipodi:guide
       position="6.9949219,13.646484"
       orientation="1,0"
       id="guide7351"
       inkscape:locked="false" /><sodipodi:guide
       position="11.988932,6.3539061"
       orientation="1,0"
       id="guide7355"
       inkscape:locked="false" /><sodipodi:guide
       position="9.8078638,14.792926"
       orientation="1,0"
       id="guide7363"
       inkscape:locked="false" /><sodipodi:guide
       position="11.449406,2.1983319"
       orientation="0,-1"
       id="guide12605"
       inkscape:locked="false" /><sodipodi:guide
       position="8.4248366,3.202449"
       orientation="0,-1"
       id="guide12607"
       inkscape:locked="false" /><sodipodi:guide
       position="5.9861978,21.36901"
       orientation="1,0"
       id="guide15783"
       inkscape:locked="false" /><sodipodi:guide
       position="7.9705729,20.80677"
       orientation="1,0"
       id="guide15812"
       inkscape:locked="false" /><sodipodi:guide
       position="2.5381526,8.1911324"
       orientation="0,-1"
       id="guide15814"
       inkscape:locked="false" /><sodipodi:guide
       position="6.498828,7.0815102"
       orientation="1,0"
       id="guide46124"
       inkscape:locked="false" /><sodipodi:guide
       position="7.5075521,5.990104"
       orientation="1,0"
       id="guide46126"
       inkscape:locked="false" /><sodipodi:guide
       position="4.3821614,12.968489"
       orientation="0,-1"
       id="guide46132"
       inkscape:locked="false" /><sodipodi:guide
       position="3.96875,9.297396"
       orientation="1,0"
       id="guide46134"
       inkscape:locked="false" /></sodipodi:namedview><defs
     id="defs1509"><clipPath
       clipPathUnits="userSpaceOnUse"
       id="clipPath2712"><g
         id="g2716"><path
           d="M 1.0059606,0.23371682 H 11.610068 V 12.450304 H 1.0059606 Z m 0,0"
           clip-rule="nonzero"
           id="path2714"
           style="stroke-width:0.109321" /></g></clipPath><clipPath
       id="406a835b1a"><path
         d="m 382,243.66016 h 97 v 111.75 h -97 z m 0,0"
         clip-rule="nonzero"
         id="path1193" /></clipPath></defs><g
     inkscape:groupmode="layer"
     id="layer8"
     inkscape:label="background"
     style="display:none"><rect
       style="fill:#5c33a1;fill-opacity:1;fill-rule:nonzero;stroke:#ff7342;stroke-width:0.413793;stroke-linecap:round;stroke-linejoin:bevel;stroke-dasharray:none;stroke-dashoffset:0;stroke-opacity:1"
       id="rect23001"
       width="11.586206"
       height="11.586207"
       x="1.1347082"
       y="1.772244" /></g><g
     inkscape:groupmode="layer"
     id="layer9"
     inkscape:label="chumma" /><g
     inkscape:groupmode="layer"
     id="layer10"
     inkscape:label="quote1"
     style="display:inline" /><g
     inkscape:groupmode="layer"
     id="layer6"
     inkscape:label="cloud"
     style="display:none"><path
       style="fill:#bf5632;fill-opacity:1;stroke:#bf5632;stroke-width:0.264583px;stroke-linecap:butt;stroke-linejoin:miter;stroke-opacity:1"
       d="m 1.9837936,6.9737345 c 0.010703,-2.348406 2.6737451,-4.9436656 5.022174,-4.9410421 2.3500061,0.00263 5.0095644,2.6055738 5.0144874,4.9555762 0.005,2.3645353 -2.660026,5.0104984 -5.0245643,5.0073164 C 4.6308676,11.992402 1.973015,9.3387352 1.9837936,6.9737345 Z"
       id="path7359"
       sodipodi:nodetypes="aaaaa" /><path
       style="fill:#bf5632;fill-opacity:1;stroke:#bf5632;stroke-width:0.264583px;stroke-linecap:butt;stroke-linejoin:miter;stroke-opacity:1"
       d="m 7.0113291,11.989772 c 0,0 1.595e-4,0.869909 -0.014018,1.056137 -0.081812,1.074636 2.5677866,-1.807547 3.7071639,-3.040801 -1.4193027,0.829059 -3.6931463,1.984664 -3.6931459,1.984664 z"
       id="path7361"
       sodipodi:nodetypes="cscc" /></g><g
     inkscape:label="Layer 1"
     inkscape:groupmode="layer"
     id="layer1" /><g
     inkscape:groupmode="layer"
     id="layer7"
     inkscape:label="cloud new"
     style="display:inline"><circle
       style="fill:#fb651e;fill-opacity:1;fill-rule:nonzero;stroke:none;stroke-width:1.96734;stroke-linecap:round;stroke-linejoin:bevel;stroke-dasharray:none;stroke-dashoffset:0;stroke-opacity:1"
       id="path16763"
       cx="6.4559374"
       cy="6.0059652"
       r="5.0059652" /></g><path
     style="display:inline;fill:#fb651e;fill-opacity:1;stroke:#fb651e;stroke-width:0.265;stroke-linecap:butt;stroke-linejoin:miter;stroke-dasharray:none;stroke-opacity:1"
     d="m 6.7191924,10.836134 c 0,0 1.595e-4,0.869909 -0.014018,1.056137 C 6.6233624,12.966907 9.2729606,10.084724 10.412338,8.8514702 8.9930356,9.680529 6.719192,10.836134 6.7191924,10.836134 Z"
     id="path7361-7"
     sodipodi:nodetypes="cscc" /><g
     inkscape:groupmode="layer"
     id="layer4"
     inkscape:label="quotes_old"
     style="display:none"><g
       id="g21051"
       style="fill:#ffffff;fill-opacity:1;stroke:none;stroke-opacity:1"><rect
         style="fill:#ffffff;fill-opacity:1;fill-rule:nonzero;stroke:none;stroke-width:7.136;stroke-linecap:round;stroke-linejoin:bevel;stroke-dasharray:none;stroke-dashoffset:0;stroke-opacity:1"
         id="rect15781"
         width="2.645704"
         height="2.9579592"
         x="3.3267341"
         y="4.9899406" /><rect
         style="fill:#ffffff;fill-opacity:1;fill-rule:nonzero;stroke:none;stroke-width:7.136;stroke-linecap:round;stroke-linejoin:bevel;stroke-dasharray:none;stroke-dashoffset:0;stroke-opacity:1"
         id="rect15781-3"
         width="2.645704"
         height="2.9579592"
         x="7.9991884"
         y="4.9830294" /><path
         style="fill:#ffffff;fill-opacity:1;stroke:none;stroke-width:0.264583px;stroke-linecap:butt;stroke-linejoin:miter;stroke-opacity:1"
         d="m 4.8988363,8.054664 c -0.091565,0.5117016 -0.4377093,0.6870832 -0.880934,0.8303145 -0.1054719,0.12654 -0.056713,0.2872688 -0.05409,0.4475622 v 0.4960941 c 0.032849,0.1254074 0.108414,0.083017 0.197808,0.11556 0.2395004,-0.01899 0.4883848,-0.059002 0.672381,-0.20391 C 5.3408322,9.3411263 5.6928726,8.716917 5.8141405,8.0714012 Z"
         id="path15816"
         sodipodi:nodetypes="cccccacc" /><path
         style="fill:#ffffff;fill-opacity:1;stroke:none;stroke-width:0.264583px;stroke-linecap:butt;stroke-linejoin:miter;stroke-opacity:1"
         d="M 9.5708363,8.0404423 C 9.4792713,8.5521439 9.133127,8.7275255 8.6899023,8.8707568 8.5844304,8.9972968 8.6331893,9.1580256 8.6358123,9.318319 v 0.4960941 c 0.032849,0.1254073 0.108414,0.083017 0.197808,0.1155593 0.2395004,-0.01899 0.4883848,-0.059 0.672381,-0.2039093 C 10.012832,9.3269046 10.364872,8.7026953 10.48614,8.0571795 Z"
         id="path15816-6"
         sodipodi:nodetypes="cccccacc" /></g></g><g
     inkscape:groupmode="layer"
     id="layer11"
     inkscape:label="quotes"
     style="display:inline"><path
       style="display:inline;fill:#6639b3;fill-opacity:1;stroke:none;stroke-width:0.0890354px;stroke-linecap:butt;stroke-linejoin:miter;stroke-opacity:1"
       d="M 4.8822669,3.992979 C 6.1982259,3.943686 6.1056199,4.3311116 6.1766359,4.8788618 6.4052069,6.3522043 5.1969389,7.8896442 3.9154269,8.148396 3.6996979,8.186018 3.3456519,7.5398107 3.4919069,7.1625936 4.1143419,7.1076966 5.3834129,5.7427808 4.0285809,5.9115488 3.7845089,5.6265972 3.8379229,4.5690659 3.8873729,4.4194279 3.9368229,4.26979 3.8556229,4.0618243 4.8822669,3.992979 Z"
       id="path45975-5"
       sodipodi:nodetypes="ccccczc" /><path
       style="display:inline;fill:#6639b3;fill-opacity:1;stroke:none;stroke-width:0.0890354px;stroke-linecap:butt;stroke-linejoin:miter;stroke-opacity:1"
       d="M 8.1322669,3.952371 C 9.4482261,3.903078 9.3556191,4.2905036 9.4266361,4.8382538 9.6552071,6.3115963 8.4469389,7.8490362 7.1654269,8.107788 6.9496979,8.14541 6.5956519,7.4992027 6.7419069,7.1219856 7.3643419,7.0670886 8.6334129,5.7021728 7.2785809,5.8709408 7.0345089,5.5859892 7.0879229,4.5284579 7.1373729,4.3788199 7.1868229,4.229182 7.1056229,4.0212163 8.1322669,3.952371 Z"
       id="path45975-5-3"
       sodipodi:nodetypes="ccccczc" /><path
       d="m 17.46276,9.0638216 q -0.5588,0 -0.923572,-0.1629833 Q 16.174416,8.7300939 15.957105,8.4351717 15.739794,8.1402495 15.631138,7.7444329 15.522483,7.3486163 15.483677,6.8907109 h -0.364772 v 2.048933 H 13.419222 V 3.6000003 h 2.196394 q 1.272822,0 1.831622,0.4501444 0.566561,0.4423832 0.566561,1.202972 0,0.4579055 -0.248355,0.8226776 -0.248356,0.3570111 -0.799395,0.5976055 0.03104,0.1707444 0.05433,0.2793999 0.02328,0.1086556 0.06985,0.2405944 0.100894,0.2794 0.248356,0.3880555 0.155222,0.1086556 0.4191,0.1086556 0.170744,0 0.341488,-0.046567 l 0.09313,1.272822 q -0.155223,0.062089 -0.333728,0.1008945 -0.170744,0.046567 -0.395817,0.046567 z M 15.118905,5.8274388 h 0.294922 q 0.574322,0 0.807156,-0.1241777 0.240594,-0.1319389 0.240594,-0.4423833 0,-0.2638777 -0.194028,-0.3802944 -0.194027,-0.1241777 -0.613127,-0.1241777 h -0.535517 z"
       style="font-size:7.76111px;line-height:1.25;font-family:'Paytone One';-inkscape-font-specification:'Paytone One, Normal';fill:#6639b3;stroke-width:0.264583;fill-opacity:1"
       id="path2449" /><path
       d="m 21.040622,7.9151774 q 0.225072,0 0.473427,-0.046567 0.256117,-0.046567 0.519995,-0.1707444 l 0.186266,1.0011832 q -0.287161,0.147461 -0.628649,0.2250721 -0.333728,0.077611 -0.76835,0.077611 -0.783872,0 -1.319389,-0.2561166 -0.527755,-0.2561166 -0.799394,-0.706261 -0.271639,-0.4501444 -0.271639,-1.0399887 0,-0.6053666 0.287161,-1.0555109 0.294922,-0.4501444 0.783872,-0.6984999 0.48895,-0.2483555 1.078794,-0.2483555 0.877006,0 1.342672,0.5510388 0.465667,0.5432777 0.465667,1.5522219 L 20.078244,7.395183 q 0.256117,0.5199944 0.962378,0.5199944 z M 19.954066,6.6811609 21.172561,6.4250443 q -0.03105,-0.2483555 -0.170745,-0.3647722 -0.1397,-0.1241777 -0.34925,-0.1241777 -0.310444,0 -0.496711,0.217311 -0.178505,0.20955 -0.201789,0.5277555 z"
       style="font-size:7.76111px;line-height:1.25;font-family:'Paytone One';-inkscape-font-specification:'Paytone One, Normal';fill:#6639b3;stroke-width:0.264583;fill-opacity:1"
       id="path2451" /><path
       d="M 24.571914,10.165899 22.93432,10.406494 V 5.0513278 h 1.614311 v 0.845961 Q 24.75042,5.4161 25.09967,5.20655 q 0.357011,-0.2095499 0.737305,-0.2095499 0.543278,0 0.970139,0.2561166 0.434622,0.2483555 0.682978,0.6907388 0.256116,0.4423832 0.256116,1.0322276 0,0.5898443 -0.256116,1.0477498 -0.248356,0.4579055 -0.682978,0.7217832 -0.426861,0.2561166 -0.970139,0.2561166 -0.465666,0 -0.776111,-0.2017888 Q 24.75042,8.598155 24.571914,8.2178606 Z m 0.760589,-2.3904216 q 0.333728,0 0.5588,-0.2250722 0.225072,-0.2250722 0.225072,-0.5510388 0,-0.3259666 -0.225072,-0.5510388 -0.225072,-0.2250722 -0.5588,-0.2250722 -0.318205,0 -0.543278,0.2173111 -0.225072,0.20955 -0.225072,0.5432777 0,0.3337277 0.225072,0.566561 0.225073,0.2250722 0.543278,0.2250722 z"
       style="font-size:7.76111px;line-height:1.25;font-family:'Paytone One';-inkscape-font-specification:'Paytone One, Normal';fill:#6639b3;stroke-width:0.264583;fill-opacity:1"
       id="path2453" /><path
       d="m 30.384983,9.0017327 q -0.985661,0 -1.544461,-0.496711 Q 28.289483,8.0005496 28.289483,7.1157831 V 5.0513278 h 1.598789 V 7.185633 q 0,0.3104444 0.131939,0.4579055 0.1397,0.1474611 0.372533,0.1474611 0.225072,0 0.34925,-0.1474611 0.131939,-0.1474611 0.131939,-0.4579055 V 5.0513278 h 1.567744 v 2.0644553 q 0,0.8925276 -0.543278,1.3892386 -0.535516,0.496711 -1.513416,0.496711 z"
       style="font-size:7.76111px;line-height:1.25;font-family:'Paytone One';-inkscape-font-specification:'Paytone One, Normal';fill:#6639b3;stroke-width:0.264583;fill-opacity:1"
       id="path2455" /><path
       d="m 34.839846,9.0017327 q -0.551039,0 -0.900289,-0.1862666 Q 33.598068,8.6291995 33.442846,8.310994 33.287624,7.9927885 33.287624,7.5969719 V 6.0137055 H 32.790913 V 5.0513278 h 0.613127 l 0.721784,-1.2262553 h 0.799394 v 1.2262553 h 0.900289 v 0.9623777 h -0.900289 v 1.3581942 q 0,0.1785055 0.116416,0.2793999 0.116417,0.093133 0.302684,0.093133 0.186266,0 0.372533,-0.093133 l 0.116417,1.0787943 q -0.186267,0.1319389 -0.473428,0.2017889 -0.287161,0.06985 -0.519994,0.06985 z"
       style="font-size:7.76111px;line-height:1.25;font-family:'Paytone One';-inkscape-font-specification:'Paytone One, Normal';fill:#6639b3;stroke-width:0.264583;fill-opacity:1"
       id="path2457" /><path
       d="m 38.728156,7.9151774 q 0.225072,0 0.473428,-0.046567 0.256116,-0.046567 0.519994,-0.1707444 l 0.186267,1.0011832 q -0.287161,0.147461 -0.62865,0.2250721 -0.333728,0.077611 -0.76835,0.077611 -0.783872,0 -1.319389,-0.2561166 -0.527755,-0.2561166 -0.799394,-0.706261 -0.271639,-0.4501444 -0.271639,-1.0399887 0,-0.6053666 0.287161,-1.0555109 0.294922,-0.4501444 0.783872,-0.6984999 0.48895,-0.2483555 1.078795,-0.2483555 0.877005,0 1.342672,0.5510388 0.465666,0.5432777 0.465666,1.5522219 L 37.765778,7.395183 q 0.256117,0.5199944 0.962378,0.5199944 z M 37.641601,6.6811609 38.860095,6.4250443 q -0.03104,-0.2483555 -0.170744,-0.3647722 -0.1397,-0.1241777 -0.34925,-0.1241777 -0.310445,0 -0.496711,0.217311 -0.178506,0.20955 -0.201789,0.5277555 z"
       style="font-size:7.76111px;line-height:1.25;font-family:'Paytone One';-inkscape-font-specification:'Paytone One, Normal';fill:#6639b3;stroke-width:0.264583;fill-opacity:1"
       id="path2459" /><path
       d="M 42.678549,8.9396439 H 40.66066 V 3.6000003 h 2.180872 q 1.280583,0 1.878188,0.357011 0.597606,0.34925 0.597606,0.9701388 0,0.8071554 -0.845961,1.1098387 1.086555,0.2095499 1.086555,1.2805831 0,0.8226776 -0.752827,1.2262554 -0.745067,0.3958166 -2.126544,0.3958166 z M 42.391388,5.7110222 h 0.613127 q 0.310445,0 0.504472,-0.1397 0.194028,-0.1397 0.194028,-0.3725333 0,-0.5355166 -0.729544,-0.5355166 h -0.582083 z m 0.659694,2.1343052 q 0.388055,0 0.597605,-0.1552222 0.20955,-0.1552222 0.20955,-0.4346222 0,-0.3026833 -0.20955,-0.4656666 Q 43.439137,6.619072 43.051082,6.619072 h -0.667456 v 1.2262554 z"
       id="path2461"
       style="font-size:7.76111px;line-height:1.25;font-family:'Paytone One';-inkscape-font-specification:'Paytone One, Normal';fill:#fb651e;stroke-width:0.264583" /><path
       d="m 48.553697,7.9151774 q 0.225072,0 0.473427,-0.046567 0.256117,-0.046567 0.519995,-0.1707444 l 0.186266,1.0011832 q -0.287161,0.147461 -0.62865,0.2250721 -0.333727,0.077611 -0.768349,0.077611 -0.783873,0 -1.319389,-0.2561166 -0.527756,-0.2561166 -0.799394,-0.706261 -0.271639,-0.4501444 -0.271639,-1.0399887 0,-0.6053666 0.287161,-1.0555109 0.294922,-0.4501444 0.783872,-0.6984999 0.48895,-0.2483555 1.078794,-0.2483555 0.877006,0 1.342672,0.5510388 0.465667,0.5432777 0.465667,1.5522219 L 47.591319,7.395183 q 0.256117,0.5199944 0.962378,0.5199944 z M 47.467141,6.6811609 48.685635,6.4250443 q -0.03104,-0.2483555 -0.170744,-0.3647722 -0.1397,-0.1241777 -0.34925,-0.1241777 -0.310444,0 -0.496711,0.217311 -0.178505,0.20955 -0.201789,0.5277555 z"
       id="path2463"
       style="font-size:7.76111px;line-height:1.25;font-family:'Paytone One';-inkscape-font-specification:'Paytone One, Normal';fill:#fb651e;stroke-width:0.264583" /><path
       d="m 52.8611,7.9151774 q 0.225072,0 0.473428,-0.046567 0.256116,-0.046567 0.519994,-0.1707444 l 0.186267,1.0011832 q -0.287161,0.147461 -0.62865,0.2250721 -0.333728,0.077611 -0.76835,0.077611 -0.783872,0 -1.319389,-0.2561166 -0.527755,-0.2561166 -0.799394,-0.706261 -0.271639,-0.4501444 -0.271639,-1.0399887 0,-0.6053666 0.287161,-1.0555109 0.294923,-0.4501444 0.783872,-0.6984999 0.48895,-0.2483555 1.078795,-0.2483555 0.877005,0 1.342672,0.5510388 0.465666,0.5432777 0.465666,1.5522219 L 51.898723,7.395183 Q 52.154839,7.9151774 52.8611,7.9151774 Z M 51.774545,6.6811609 52.993039,6.4250443 q -0.03104,-0.2483555 -0.170744,-0.3647722 -0.1397,-0.1241777 -0.34925,-0.1241777 -0.310445,0 -0.496711,0.217311 -0.178506,0.20955 -0.201789,0.5277555 z"
       id="path2465"
       style="font-size:7.76111px;line-height:1.25;font-family:'Paytone One';-inkscape-font-specification:'Paytone One, Normal';fill:#fb651e;stroke-width:0.264583" /></g><g
     inkscape:groupmode="layer"
     id="layer5"
     inkscape:label="backup" /><g
     inkscape:groupmode="layer"
     id="layer2"
     inkscape:label="grids" /></svg>
