<svg xmlns="http://www.w3.org/2000/svg" xmlns:xlink="http://www.w3.org/1999/xlink" width="500" height="500" viewBox="0 0 132.292 132.292"><path fill="#fce588" d="M63.268 110.576a2.81 2.81 0 0 1-2.807 2.808h-49.87a2.81 2.81 0 0 1-2.807-2.808V24.519a2.81 2.81 0 0 1 2.807-2.807h10.705v3.826c0 1.025.835 1.86 1.86 1.86h24.74c1.025 0 1.86-.835 1.86-1.86v-3.826h10.705a2.81 2.81 0 0 1 2.807 2.807zm2.237-86.965-.052-.249-.063-.247a5.32 5.32 0 0 0-.208-.592l-.103-.228-.084-.166-.184-.321-.099-.151-.146-.206-.152-.193a5.11 5.11 0 0 0-3.954-1.865H10.59a5.13 5.13 0 0 0-5.124 5.124v86.057a5.13 5.13 0 0 0 5.124 5.125h49.87a5.11 5.11 0 0 0 3.954-1.865l.152-.194.142-.2.102-.157.184-.321.085-.167.102-.226c.082-.194.151-.393.208-.592l.063-.244.052-.251a5.21 5.21 0 0 0 .08-.907V24.519a5.22 5.22 0 0 0-.08-.908"/><g fill="#27191c"><path d="M64.791 113.496a5.25 5.25 0 0 0 .377-.657 5.2 5.2 0 0 1-.377.657M40.507 25.047h-9.963a.342.342 0 1 1 0-.684h9.963a.342.342 0 1 1 0 .684M47.308 24.705a.84.84 0 1 1-1.68 0 .84.84 0 1 1 1.68 0"/></g><path fill="#fff" d="M63.072 24.519v86.057a2.614 2.614 0 0 1-2.611 2.612h-49.87a2.614 2.614 0 0 1-2.611-2.612V24.519a2.614 2.614 0 0 1 2.611-2.611H21.1v3.63a2.06 2.06 0 0 0 2.056 2.056h24.74a2.06 2.06 0 0 0 2.056-2.056v-3.63h10.509a2.614 2.614 0 0 1 2.611 2.611"/><path fill="#27191c" d="M10.591 19.394a5.13 5.13 0 0 0-5.124 5.124v86.057a5.13 5.13 0 0 0 5.124 5.125h49.87a5.11 5.11 0 0 0 3.954-1.865l.151-.194.143-.2.101-.157.185-.322.085-.167.102-.226c.082-.193.151-.393.208-.592l.063-.244.052-.251c.053-.302.08-.608.08-.908V24.519a5.28 5.28 0 0 0-.08-.908l-.052-.249-.063-.247a5.23 5.23 0 0 0-.208-.592l-.102-.228-.084-.166-.185-.321-.1-.155-.144-.202-.151-.193a5.11 5.11 0 0 0-3.954-1.865zm49.87 96.502h-49.87a5.33 5.33 0 0 1-5.32-5.321V24.519a5.33 5.33 0 0 1 5.32-5.32h49.87c1.594 0 3.09.706 4.105 1.936l.158.2.148.209.104.16.192.334.087.172.107.237a5.54 5.54 0 0 1 .216.614l.065.256.053.258a5.43 5.43 0 0 1 .083.942v86.057a5.42 5.42 0 0 1-.083.941l-.054.262-.065.254a5.41 5.41 0 0 1-.216.615l-.106.236-.088.174-.191.333-.104.161-.148.209-.159.202a5.307 5.307 0 0 1-4.105 1.936M10.591 21.908a2.614 2.614 0 0 0-2.611 2.611v86.057a2.614 2.614 0 0 0 2.611 2.612h49.87a2.614 2.614 0 0 0 2.611-2.612V24.519a2.614 2.614 0 0 0-2.611-2.611H49.952v3.63a2.06 2.06 0 0 1-2.056 2.056h-24.74a2.06 2.06 0 0 1-2.056-2.056v-3.63zm49.87 91.476h-49.87a2.81 2.81 0 0 1-2.807-2.808V24.519a2.81 2.81 0 0 1 2.807-2.807h10.705v3.826a1.86 1.86 0 0 0 1.86 1.86h24.74c1.025 0 1.86-.834 1.86-1.86v-3.826h10.705a2.81 2.81 0 0 1 2.807 2.807v86.057a2.81 2.81 0 0 1-2.807 2.808"/><path fill="#fff" d="M96.928 33.715v73.605a2.43 2.43 0 0 1-2.429 2.429H13.643a2.43 2.43 0 0 1-2.429-2.429V33.715a2.43 2.43 0 0 1 2.429-2.428h80.855a2.43 2.43 0 0 1 2.429 2.428"/><g fill="#eae2f8"><path d="M18.022 89.65H90.12a1.96 1.96 0 0 0 1.958-1.958V76.094a1.96 1.96 0 0 0-1.958-1.958H18.022a1.96 1.96 0 0 0-1.958 1.958v11.597a1.96 1.96 0 0 0 1.958 1.958m0 16.468H90.12a1.96 1.96 0 0 0 1.958-1.958V93.461a1.96 1.96 0 0 0-1.958-1.958H18.022a1.96 1.96 0 0 0-1.958 1.958v10.699a1.96 1.96 0 0 0 1.958 1.958m42.154-61.276v25.14a1.96 1.96 0 0 0 1.958 1.958H90.12a1.96 1.96 0 0 0 1.958-1.958v-25.14a1.96 1.96 0 0 0-1.958-1.958H62.133a1.96 1.96 0 0 0-1.958 1.958M55.474 42.884H18.022a1.96 1.96 0 0 0-1.958 1.958v25.14a1.96 1.96 0 0 0 1.958 1.958h37.451a1.96 1.96 0 0 0 1.958-1.958v-25.14a1.96 1.96 0 0 0-1.958-1.958"/></g><path fill="#8662c7" d="M96.928 33.715v5.941H11.214v-5.941a2.43 2.43 0 0 1 2.429-2.428h80.855a2.43 2.43 0 0 1 2.429 2.428"/><path fill="#fff" d="M94.422 35.471a.91.91 0 1 1-1.821 0 .91.91 0 1 1 1.821 0m-3.218 0a.91.91 0 1 1-1.821 0 .91.91 0 1 1 1.821 0m-3.218 0a.91.91 0 1 1-1.821 0 .91.91 0 1 1 1.821 0M21.35 34.278h-6.435v-.677h6.435v.677m0 1.531h-6.435v-.677h6.435v.677m0 1.532h-6.435v-.677h6.435v.677"/><g fill="#27191c"><path d="M13.643 31.385a2.333 2.333 0 0 0-2.331 2.33v73.605a2.333 2.333 0 0 0 2.331 2.331h80.855a2.333 2.333 0 0 0 2.331-2.331V33.715a2.333 2.333 0 0 0-2.331-2.33zm80.855 78.462H13.643a2.53 2.53 0 0 1-2.527-2.527V33.715a2.53 2.53 0 0 1 2.527-2.526h80.855a2.53 2.53 0 0 1 2.527 2.526v73.605a2.53 2.53 0 0 1-2.527 2.527"/><path d="M96.928 39.754H11.214a.098.098 0 0 1 0-.196h85.713a.098.098 0 0 1 0 .196"/></g><path fill="#fff" d="m122.47 96.284-2.58 6.165a.188.188 0 0 1-.23.106l-1.618-.523 2.828-6.671 1.289.585.217.099a.184.184 0 0 1 .095.24"/><path fill="#6fc8c4" d="m97.715 95.458 3.702 1.197 1.013.328-2.058-20.1c-.005-.054.033-.102.087-.108s.102.034.107.087l.525 5.128 1.541 15.058.022.213.079.769.847 8.282h7.522l.744-6.078.01-.08.014-.117 1.024-8.368 3.178-25.964c-3.839.826-7.119 1.121-9.843 1.121-5.118 0-8.281-1.04-9.538-1.559l-3.254 23.367a6.257 6.257 0 0 0 4.277 6.825"/><path fill="#aeddff" d="M110.623 114.55v.478H96.722v-.478h13.901"/><path fill="#3895ea" d="M110.623 115.223v.478H96.722v-.478h13.901"/><path fill="#aeddff" d="M110.617 110.716h-6.424a.825.825 0 0 1 .818-.726h4.787c.422 0 .77.318.818.726"/><path fill="#ffcec7" d="M110.387 108.569v1.412a1.01 1.01 0 0 0-.588-.187h-4.787a1.01 1.01 0 0 0-.588.188l-.17-1.413h6.133"/><path fill="#ff9a95" d="M104.193 109.047h6.292v-.576h-6.341l.049.576"/><g fill="#fff"><use xlink:href="#a"/><path d="M101.255 110.865v1.697a.294.294 0 1 1-.588 0v-1.697a.294.294 0 0 1 .588 0"/><use xlink:href="#a" x="3.436"/></g><path fill="#3895ea" d="M110.623 110.911v3.442H96.724a3.58 3.58 0 0 1 .088-.693c.146-.643.47-1.234.948-1.712.292-.292.626-.527.996-.701v1.314a.49.49 0 0 0 .489.489.49.49 0 0 0 .489-.489v-1.611a3.47 3.47 0 0 1 .529-.04h.21v1.65a.49.49 0 0 0 .489.489.49.49 0 0 0 .489-.489v-1.65h.739v1.65a.49.49 0 0 0 .489.489.49.49 0 0 0 .489-.489v-1.65h7.453"/><path fill="#fff" d="M107.597 112.325a1.005 1.005 0 1 1-2.01 0 1.005 1.005 0 0 1 2.01 0m1.11 1.336H96.811a3.54 3.54 0 0 0-.088.693h13.899v-2.499a1.98 1.98 0 0 0-1.916 1.806"/><path fill="#aeddff" d="m128.176 98.73.44.186-5.424 12.799-.44-.187 5.424-12.798"/><path fill="#3895ea" d="m128.796 98.992.44.187-5.424 12.799-.44-.187 5.424-12.799"/><path fill="#aeddff" d="m124.643 97.239-2.507 5.915a.826.826 0 0 1-.349-1.037l1.868-4.408a.825.825 0 0 1 .988-.47"/><path fill="#ffcec7" d="m122.577 96.614 1.3.551a1.009 1.009 0 0 0-.401.469l-1.868 4.408a1.014 1.014 0 0 0-.057.615l-1.367-.395 2.393-5.646"/><path fill="#ff9a95" d="m120.61 102.473 2.445-5.763-.531-.224-2.474 5.838.56.149"/><path fill="#fff" d="m120.458 107.498 1.562.662a.294.294 0 0 1-.229.541l-1.562-.662a.295.295 0 0 1 .23-.541m.669-1.581 1.562.662a.293.293 0 1 1-.229.54l-1.562-.662a.293.293 0 0 1 .229-.541m.671-1.581 1.562.662a.293.293 0 0 1-.229.541l-1.562-.662a.293.293 0 1 1 .229-.54"/><path fill="#3895ea" d="m124.826 97.31 3.169 1.343-5.423 12.798a3.619 3.619 0 0 1-.604-.351 3.52 3.52 0 0 1-1.207-1.541 3.53 3.53 0 0 1-.256-1.19l1.21.513a.49.49 0 0 0 .642-.26.49.49 0 0 0-.26-.642l-1.483-.628a3.49 3.49 0 0 1 .17-.502l.082-.193 1.519.643a.49.49 0 0 0 .641-.26.49.49 0 0 0-.26-.642l-1.519-.644.288-.681 1.519.644a.49.49 0 0 0 .642-.26.49.49 0 0 0-.26-.642l-1.52-.644 2.909-6.862"/><path fill="#fff" d="M124.947 100.647a1.005 1.005 0 1 1-.785 1.851 1.005 1.005 0 0 1 .785-1.851m1.663-.5-4.641 10.953a3.58 3.58 0 0 0 .604.351l5.423-12.798-2.301-.976a1.98 1.98 0 0 0 .916 2.469m-15.532 6.362-.215 1.757a.124.124 0 0 1-.123.108h-6.786a.18.18 0 0 1-.179-.162l-.174-1.703h7.478"/><path fill="#6fc8c4" d="m120.691 95.28-2.836 6.692h-.001l-5.793-1.874 1.012-8.274 7.618 3.456"/><path fill="#838ee8" d="m79.133 44.316.341 1.292.262.994.228.867.404 1.532.23.873.36 1.366.131.478c.13.369.412.672.766.839.217.102.449.136.687.136h2.786c.205 0 .405-.007.604-.068a1.52 1.52 0 0 0 .847-.666 7.48 7.48 0 0 1-1.202-.431l-.322-.158-.283-.157-1.385.168-.71.086-.347.042c-.11.014-.222.031-.333.018-.201-.023-.41-.157-.407-.382.003-.218.181-.363.363-.446.397-.18.82-.318 1.24-.43l.305-.075-1.484-.013c-.213-.002-.449.016-.648-.077a.356.356 0 0 1-.144-.107l-.013-.016v-.001l-.002-.002v-.001l-.003-.003-.014-.018a.354.354 0 0 1-.057-.167c-.018-.172.087-.335.224-.431s.299-.12.456-.138l.219-.022-.143-.027a1.057 1.057 0 0 1-.405-.157.628.628 0 0 1-.108-.091c-.009-.009-.016-.019-.023-.028l-.021-.029a.39.39 0 0 1-.049-.338c.073-.211.273-.32.48-.367.222-.05.452-.07.678-.097l1.397-.131a4.15 4.15 0 0 1-.791-.388 1.97 1.97 0 0 1-.5-.423c-.116-.146-.244-.358-.183-.55.05-.158.21-.241.362-.272.14-.029.283-.027.422.002.27.056.535.151.796.24l1.714.64a.48.48 0 0 0 .076.025l.024.005.006.001.027.001c.011-.006.01-.012.009-.02l-.074-.281-.161-.611-.333-1.264c-.054-.205-.103-.411-.187-.606a2.54 2.54 0 0 0-.707-.942 2.5 2.5 0 0 0-1.044-.51 2.943 2.943 0 0 0-.649-.06h-2.627c-.328.001-.637.14-.852.388a1.12 1.12 0 0 0-.232 1.009"/><path fill="#ffcec7" d="M81.524 49.751a.16.16 0 0 0 .005.045l.005.017c.016.032.017.035.025.045l.016.017a.32.32 0 0 0 .13.073.78.78 0 0 0 .136.027c.097.01.194.009.291.009l.673.006 1.331.012.757.006c.053.001.098.044.098.098s-.045.093-.098.098a8.326 8.326 0 0 0-1.888.382l-.435.152c-.136.052-.278.1-.405.172-.095.053-.202.151-.178.264.009.046.04.082.079.108a.345.345 0 0 0 .168.051c.164.01.334-.025.497-.045l.501-.061 1.017-.124.501-.061.129-.016c.042-.005.097-.022.139-.01.033.009.065.035.095.052l.104.058c.27.149.55.279.837.392a7.21 7.21 0 0 0 1.573.417l.294.037.188.016 1.501-3.159-.422-.178a8.891 8.891 0 0 1-1.051-.55c-.527-.325-.994-.73-1.479-1.111l-.632-.466.061.232.093.351c.009.034.02.068.021.104a.183.183 0 0 1-.148.191c-.123.027-.238-.029-.348-.074l-.365-.142-.974-.36-.91-.297-.154-.038-.061-.012-.028-.002-.057-.004a.711.711 0 0 0-.213.022l-.053.016c-.022.008-.01.003-.031.013a.61.61 0 0 0-.045.025l-.01.008-.022.02a.14.14 0 0 0-.029.046l-.007.026v.011a.209.209 0 0 0 .003.048.7.7 0 0 0 .127.26c.122.168.297.296.471.407.416.262.868.435 1.349.533l.904.02c.053.004.098.042.098.098 0 .05-.045.101-.098.098-.886-.056-1.773.003-2.653.1l-.639.078-.306.051a.543.543 0 0 0-.237.103.305.305 0 0 0-.1.149l-.005.038a.148.148 0 0 0 .005.048c.003.009.004.018.008.026l.002.007c.025.051.031.054.066.088a.787.787 0 0 0 .356.162l.944.156.048-.004h.005l1.53-.095.73-.027c.126-.004.126.192 0 .196l-2.027.105-.216.016-.025.002-.882.076c-.223.022-.548.025-.655.262a.229.229 0 0 0-.022.096"/><path fill="#fc9362" d="M87.943 52.786c.505.307 3.565 2.096 8.102 3.265l2.252.5c4.328.808 8.894.781 12.856-.076.953-.206 1.804-.521 2.547-.944a6.79 6.79 0 0 0 1.901-1.585l.135-.011c2.351-2.847 1.675-7.581-.116-10.186-1.543-2.244-4.188-4.085-5.748-4.823-.83.858-2.233 2.419-4.423 2.419-.072 0-.197.063-.27.06-2.272-.092-2.736-1.482-2.911-2.434-1.591.891-2.918 2.069-3.889 3.462-.807 1.158-1.346 2.502-1.699 4.231l-.003.101h-.018c-.116.583-.211 1.21-.298 1.954a39.976 39.976 0 0 0 5.251-.307c2.015-.254 3.727-.609 5.234-1.085a.098.098 0 0 1 .059.187c-1.517.48-3.241.838-5.268 1.093a40.07 40.07 0 0 1-4.999.31 28.52 28.52 0 0 1-.299-.002l-.088-.001-.853-.017h-.007a43.065 43.065 0 0 1-2.173-.121c-.888-.072-2.046-.183-3.18-.401l-.211.444-1.573 3.309-.313.66"/><path fill="#ffe59d" d="M102.45 38.869c-.041 1.778 1.233 2.429 2.868 2.495 1.996.08 3.301-1.354 4.164-2.303l.105-.116-1.248-.644c-1.885 1.355-3.243 1.819-4.036 1.38-.592-.328-.681-1.051-.69-1.369l-1.162.557"/><path fill="#ffcec7" d="M103.067 31.718a.42.42 0 0 1 .454.382.42.42 0 0 1-.381.454.42.42 0 0 1-.454-.382.42.42 0 0 1 .381-.454zm.409 2.507a.097.097 0 0 1 .138.008 1.38 1.38 0 0 0 1.138.447 1.38 1.38 0 0 0 1.036-.648.098.098 0 0 1 .167.101 1.58 1.58 0 0 1-1.186.742l-.136.006c-.437 0-.874-.191-1.166-.518a.097.097 0 0 1 .008-.138zm2.475-2.118a.42.42 0 0 1-.454-.382.42.42 0 0 1 .381-.453.42.42 0 0 1 .454.381.42.42 0 0 1-.381.454zm-1 1.092a.826.826 0 0 1-.314.161.44.44 0 0 1-.072.007c-.119 0-.247-.053-.304-.17-.071-.144 0-.302.038-.387l.238-.527a.098.098 0 1 1 .179.08l-.238.527c-.035.077-.07.164-.042.221.025.05.102.069.163.057a.634.634 0 0 0 .236-.127c.044-.031.105-.022.137.022s.022.105-.022.136zm3.091-1.171a.098.098 0 0 1 .088-.106c.243-.023.75-.07.973.37a.099.099 0 0 1-.087.142.1.1 0 0 1-.088-.054.46.46 0 0 0-.126-.158.723.723 0 0 1-.466.506.097.097 0 0 1-.124-.063.097.097 0 0 1 .063-.123.53.53 0 0 0 .345-.409 1.384 1.384 0 0 0-.472-.017.097.097 0 0 1-.106-.088zm-6.361-.202.403 2.977a2.58 2.58 0 0 0 1.742 2.109l.073.025v.001l-.076 1.037-.014.196c-.001.009-.058.98.589 1.338.495.274 1.553.26 3.791-1.342-.243-.32-1.049-1.508-.827-2.863a1.95 1.95 0 0 1 .099-.411l.36-1.149a.513.513 0 0 1 .009-.033c.053-.201.063-.238.148-.229.096.009.192.009.285 0 .723-.07 1.261-.646 1.199-1.284-.037-.375-.274-.694-.618-.875a1.88 1.88 0 0 0-.208-.087l-.074-.023-.112-.025-.02-.003c-.482-.067-.763.311-1.202 1.109l-.098.024s-.12-1.166-.45-1.784a2.45 2.45 0 0 1-.108-1.782c-.226.349-.786.999-1.816 1.009a20.23 20.23 0 0 1-.817-.005c-.578-.02-1.239-.079-1.791-.331-.1.237-.435 1.117-.467 2.4"/><path fill="#ffba14" d="m95.557 48.703.608.012.208-1.477-.816 1.465"/><path fill="#fc9362" d="m88.907 60.466.294.339.004.004 2.665 3.066.009.01.123.142c.057.065.147.09.23.063.942-.311 2.454-1.276 3.772-2.409l-.066-4.927-.009-.533a34.659 34.659 0 0 1-3.888-1.26l-3.149 5.335a.143.143 0 0 0 .015.168"/><path fill="#ffcec7" d="M84.785 66.423c.083.053.213.034.388-.057a3.22 3.22 0 0 0 1.208-1.104l.26-.489.176.086a3.388 3.388 0 0 1-.266.501 10.16 10.16 0 0 0-.768 1.988c-.035.134-.065.264-.046.387.015.096.078.213.181.242.081.022.185-.014.264-.092a.715.715 0 0 0 .136-.199l.051-.107c.345-.743.657-1.515.927-2.293.018-.052.074-.078.125-.061s.078.074.061.125l-.935 2.312-.047.099c-.018.12-.031.259.001.39.037.149.155.306.313.318.102.007.219-.05.307-.153s.142-.239.195-.369l.012-.03.931-2.281c.02-.05.078-.074.128-.053s.074.078.053.127l-.92 2.251c.055.195.13.315.221.355a.228.228 0 0 0 .186-.004c.327-.131.764-.813 1.199-1.872a.95.95 0 0 1 .499-.511c.707-.308 1.3-.823 1.803-1.568l.253-.406-2.577-2.966-.429.204-.571.285c-.72.364-1.464.739-2.253.968-.178.052-.344.084-.489.114-.368.073-.547.116-.583.293-.022.106.009.215.091.325a1.11 1.11 0 0 0 .722.391c.405.034.814-.179 1.143-.351l1.122-.461c.051-.021.108.004.128.053s-.004.107-.053.128l-1.096.448c-.735.563-1.414 1.394-2.017 2.471a.886.886 0 0 0-.126.318c-.009.086.016.195.093.245"/><path fill="#ff9a95" d="m89.104 60.99-.429.204.038.044 2.716 3.125.253-.406-2.577-2.966m-1.481-9.056.294.037.188.016 1.501-3.159-.422-.178-1.561 3.284"/><path fill="#fc9362" d="m96.201 61.728-.008 2.917a.28.28 0 0 0 .161.26l.296.132c1.154.492 4.325 1.594 9.576 1.593 2.855 0 6.326-.326 10.421-1.252a.48.48 0 0 0 .371-.532l-1.218-9.172c-1.376.933-4.275 2.149-8.341 2.32-5.147.217-8.713-.534-11.301-1.714-.01-.002-.021-.004-.031-.008l.008.479.067 4.976"/><path fill="#ff9a95" d="m103.801 37-.095 1.024c.039-.012.158-.069.196-.082a9.95 9.95 0 0 0 1.119-.468c.363-.178.728-.364 1.049-.615a.859.859 0 0 0 .185-.181c.056-.082.101-.208.047-.302-.064-.116-.207-.114-.321-.093-.585.107-1.115.411-1.682.572a2.71 2.71 0 0 1-.437.088l-.147.016.085.042"/><g fill="#27191c"><path d="M89.765 48.682a9.454 9.454 0 0 1-1.564-.769c-.521-.325-.982-.729-1.465-1.106l-.42-.319-.211-.144-.109-.065c-.037-.021-.084-.055-.129-.055a.1.1 0 0 0 0 .196h.001l-.05-.014c.267.139.505.327.742.51l.751.6.73.527c.245.156.5.298.761.428a10.84 10.84 0 0 0 .91.399c.049.02.108-.021.12-.068.016-.055-.018-.102-.068-.121m-4.168-.755c-.934-.059-1.87.009-2.798.116l-.678.087c-.211.031-.427.082-.565.258a.405.405 0 0 0-.093.277.42.42 0 0 0 .037.143.35.35 0 0 0 .024.045l.027.037.018.022a.842.842 0 0 0 .441.238c.329.076.668.119 1.002.167.052.008.105-.013.12-.068.013-.046-.016-.113-.068-.121l-.887-.143a1.09 1.09 0 0 1-.351-.116.47.47 0 0 1-.082-.059l-.026-.025c-.033-.033.011.015-.013-.016a.25.25 0 0 1-.027-.042.202.202 0 0 1-.017-.113c.007-.025.012-.045.022-.065.088-.168.299-.204.469-.229l.632-.082 1.334-.119a12.57 12.57 0 0 1 1.48.001c.053.004.098-.048.098-.098 0-.056-.045-.095-.098-.098"/><use xlink:href="#b"/><path d="m85.351 48.999-2.027.105-.236.018c-.053.004-.098.042-.098.098 0 .05.045.102.098.098l1.534-.095.73-.027c.125-.004.126-.2 0-.196"/><use xlink:href="#b"/><path d="M86.839 51.847a1.53 1.53 0 0 1-.955.79 2.081 2.081 0 0 1-.572.055H82.53c-.248 0-.489-.042-.713-.155a1.482 1.482 0 0 1-.742-.861c-.049-.151-.083-.308-.124-.461l-.214-.812-.211-.801-.384-1.46-.253-.959-.323-1.226-.309-1.17-.125-.472a1.12 1.12 0 0 1 .258-1.037c.216-.234.516-.36.832-.36h2.053c.417 0 .849-.03 1.258.069.771.187 1.43.746 1.727 1.484.078.193.125.395.178.595l.209.796.284 1.076.069.259c.003.016-.001.015.004.023.022-.023-.003-.01.018-.014-.026.007-.025.007-.015.005-.025 0-.064-.004-.047-.001-.017-.003-.034-.006-.05-.011a.61.61 0 0 1-.071-.027l-.737-.286-1.005-.362-.772-.229c-.255-.05-.702-.018-.77.301-.043.201.093.411.217.557.142.167.325.298.51.412.424.26.885.435 1.372.532.052.01.106-.014.12-.069.014-.048-.016-.11-.068-.12a3.974 3.974 0 0 1-1.4-.559c-.172-.112-.344-.245-.459-.418a.591.591 0 0 1-.106-.252v-.02c0-.029-.005.016.001-.012.001-.006.014-.043.007-.027.016-.037.021-.041.055-.068a.578.578 0 0 1 .068-.038l.042-.013.06-.016a.81.81 0 0 1 .208-.013l.046.004c.029.004-.02-.004.009.002l.08.016.159.04.921.302.976.363.346.135c.11.044.232.1.353.06.108-.037.14-.142.115-.245-.004-.021-.01-.042-.016-.063l-.095-.36-.137-.521-.35-1.33a3.349 3.349 0 0 0-.269-.732 2.72 2.72 0 0 0-.806-.917 2.67 2.67 0 0 0-1.121-.466 3.59 3.59 0 0 0-.595-.038H81.29c-.363 0-.726-.004-1.088 0a1.32 1.32 0 0 0-1.049.536 1.31 1.31 0 0 0-.209 1.109l.344 1.305.268 1.018.228.865.41 1.558.221.837.375 1.423c.05.19.094.38.177.56.175.375.493.67.873.828.395.164.833.126 1.251.126h2.267c.237 0 .471-.018.696-.099.412-.148.756-.452.953-.843.057-.112-.112-.211-.169-.099"/><path d="m83.086 49.122-1.021.089c-.159.016-.32.037-.463.115a.515.515 0 0 0-.273.403.366.366 0 0 0 .077.249l.011.014a.13.13 0 0 0 .016.018.21.21 0 0 0 .035.031c.036.028.083.067.131.067l-.05-.014c.176.089.382.082.574.083l.673.006 1.332.012.765.007v-.196a8.69 8.69 0 0 0-2.584.623c-.197.08-.41.166-.494.379-.078.195.029.394.215.474a.7.7 0 0 0 .334.043l.35-.041.694-.084 1.583-.192-.05-.014.273.153.287.144.611.257a7.24 7.24 0 0 0 1.264.343 7.47 7.47 0 0 0 .79.096c.053.004.098-.048.098-.098 0-.056-.045-.095-.098-.098a7.146 7.146 0 0 1-2.748-.758l-.21-.112-.091-.051c-.035-.02-.074-.052-.114-.057s-.085.007-.126.012l-.129.016-.25.03-2.026.247c-.135.016-.29.037-.407-.038-.091-.059-.104-.161-.039-.258.072-.108.219-.157.333-.204l.418-.158a8.767 8.767 0 0 1 1.876-.435l.238-.023c.053-.004.098-.042.098-.098s-.045-.098-.098-.098l-2.672-.024c-.116-.002-.232.002-.347-.007a.9.9 0 0 1-.147-.023c-.049-.012-.082-.04-.128-.04l.05.013a.263.263 0 0 1-.063-.041l-.021-.022c.003.006-.018-.025-.009-.011l-.02-.037c-.009-.018.002.018-.001-.004l-.006-.021a.198.198 0 0 1 .002-.084c.029-.119.125-.199.236-.239.12-.043.248-.053.374-.067l.444-.04.504-.041c.053-.004.098-.042.098-.098 0-.05-.045-.102-.098-.098m2.882 19.057a.356.356 0 0 1-.103-.014c-.189-.052-.298-.239-.322-.401s.011-.317.05-.466a9.81 9.81 0 0 1 .459-1.329c-.234.228-.5.421-.789.572-.245.127-.435.142-.583.048-.13-.084-.201-.253-.181-.431a1.06 1.06 0 0 1 .149-.394c.475-.848.997-1.548 1.557-2.09a1.57 1.57 0 0 1-.629.09 1.3 1.3 0 0 1-.863-.469.594.594 0 0 1-.127-.482c.065-.312.362-.371.737-.446l.473-.109c.771-.224 1.508-.595 2.22-.955l1.074-.523c.05-.023.108-.001.13.049s0 .107-.05.129l-1.066.519c-.72.363-1.464.739-2.253.968-.178.052-.344.084-.489.113-.368.074-.547.116-.583.294-.022.105.009.215.091.325a1.11 1.11 0 0 0 .722.39c.409.034.819-.181 1.149-.354l.105.164c-.739.563-1.421 1.397-2.028 2.48a.879.879 0 0 0-.126.318c-.009.086.016.195.093.245.083.053.213.033.388-.057a3.22 3.22 0 0 0 1.208-1.104l.26-.489.176.086a3.31 3.31 0 0 1-.266.501 10.209 10.209 0 0 0-.768 1.988c-.035.134-.065.264-.046.386.015.097.078.214.181.243.081.023.185-.013.264-.091a.73.73 0 0 0 .136-.199l.052-.107a24.87 24.87 0 0 0 .927-2.293.098.098 0 0 1 .125-.06.1.1 0 0 1 .061.125l-.935 2.312-.054.113a.982.982 0 0 1-.174.25.51.51 0 0 1-.35.154"/><path d="m86.832 68.665-.034-.001c-.261-.02-.436-.256-.487-.467a1.216 1.216 0 0 1-.001-.481c.008-.053.059-.09.112-.082s.09.058.082.112c-.02.123-.035.268-.001.405.037.149.155.306.312.318.104.008.219-.05.308-.153a1.36 1.36 0 0 0 .195-.368l.944-2.311c.02-.05.078-.074.128-.054s.074.078.053.128l-.944 2.311c-.056.137-.119.293-.227.421a.594.594 0 0 1-.439.224"/><path d="M87.826 68.53a.4.4 0 0 1-.163-.035c-.155-.07-.266-.238-.339-.515l-.004-.025c0-.054.044-.099.098-.099.047 0 .087.033.096.078.056.21.133.339.228.381a.226.226 0 0 0 .185-.004c.328-.131.765-.812 1.2-1.871a.94.94 0 0 1 .499-.511c.845-.369 1.529-1.034 2.089-2.034.027-.047.086-.064.133-.037s.064.086.038.133c-.582 1.038-1.295 1.73-2.182 2.117a.76.76 0 0 0-.395.406c-.327.795-.82 1.784-1.309 1.979a.46.46 0 0 1-.174.036m-1.039-5.13a.098.098 0 0 1-.038-.188l1.107-.454a.1.1 0 0 1 .128.053.1.1 0 0 1-.053.128l-1.107.453a.097.097 0 0 1-.037.007m23.796 46.8h-.196v-1.63h-6.133l.191 1.594-.194.023-.217-1.813h6.549v1.825m-13.861 4.83h13.901v-.478H96.722zm14.096.196H96.526v-.869h14.292v.869"/><path d="M96.722 115.701h13.901v-.478H96.722zm14.096.196H96.526v-.869h14.292v.869m-11.165-4.933-.034-.193a3.76 3.76 0 0 1 .643-.055h.308v.196h-.308a3.53 3.53 0 0 0-.61.053m11.167 3.585H96.527v-.098a3.71 3.71 0 0 1 1.094-2.642 3.72 3.72 0 0 1 1.194-.803l.076.18a3.53 3.53 0 0 0-1.132.762 3.517 3.517 0 0 0-1.035 2.406h13.899v-3.442h-7.552v-.196h7.748v3.834m-8.531-3.64h-.935v-.196h.935v.196"/><path d="M104.193 110.716h6.424a.824.824 0 0 0-.818-.726h-4.787a.824.824 0 0 0-.818.726zm6.625.196h-6.827v-.098a1.02 1.02 0 0 1 1.02-1.02h4.787a1.02 1.02 0 0 1 1.02 1.02v.098m-11.573-.341a.294.294 0 0 0-.294.294v1.697a.294.294 0 1 0 .588 0v-1.697a.294.294 0 0 0-.294-.294zm0 2.48a.49.49 0 0 1-.489-.489v-1.697a.49.49 0 0 1 .489-.489.49.49 0 0 1 .489.489v1.697a.49.49 0 0 1-.489.489"/><use xlink:href="#c"/><use xlink:href="#c" x="1.718"/><path d="M111.19 106.508h-7.697v-.196h7.697v.196m10.481-3.614-1.754-.507 2.556-6.03 1.68.713-.076.18-1.5-.636-2.393 5.646 1.542.446-.054.188m1.079 8.634.441.187 5.424-12.799-.441-.186zm.544.443-.801-.339 5.577-13.159.801.339-5.577 13.159"/><path d="m123.372 111.791.44.187 5.424-12.799-.44-.187zm.544.443-.801-.339 5.577-13.159.8.339-5.577 13.159m-3.321-4.803-.191-.044a3.71 3.71 0 0 1 .2-.614l.12-.284.18.076-.12.284a3.58 3.58 0 0 0-.189.581m2.082 4.278-.09-.038a3.716 3.716 0 0 1-2.006-2.038 3.73 3.73 0 0 1-.273-1.413h.196c-.001.459.085.91.259 1.339a3.52 3.52 0 0 0 1.811 1.891l5.424-12.798-3.17-1.343-2.947 6.954-.18-.076 3.024-7.134 3.53 1.496-5.577 13.159m-1.468-5.862-.181-.076.365-.86.18.076-.364.86"/><path d="M124.414 97.206a.823.823 0 0 0-.759.503l-1.868 4.408a.826.826 0 0 0 .349 1.037l2.507-5.915a.81.81 0 0 0-.229-.033zm-2.176 6.21-.09-.038a1.02 1.02 0 0 1-.541-1.337l1.868-4.408c.106-.251.304-.445.557-.548a1.01 1.01 0 0 1 .781.007l.09.038-2.664 6.287m-1.896 4.058a.284.284 0 0 0-.11.022.29.29 0 0 0-.16.158.294.294 0 0 0 .155.385l1.562.662a.295.295 0 0 0 .385-.155.294.294 0 0 0-.156-.385l-1.562-.662a.287.287 0 0 0-.114-.023zm1.562 1.446a.48.48 0 0 1-.191-.039l-1.562-.662a.49.49 0 0 1-.26-.642.484.484 0 0 1 .268-.263.49.49 0 0 1 .375.003l1.562.662a.49.49 0 0 1 .26.642.49.49 0 0 1-.451.298M121.014 105.894a.293.293 0 0 0-.273.404.29.29 0 0 0 .157.16l1.562.662a.294.294 0 0 0 .385-.156.29.29 0 0 0-.156-.385l-1.562-.662a.29.29 0 0 0-.114-.023zm1.561 1.445a.49.49 0 0 1-.191-.038l-1.562-.662a.487.487 0 0 1-.259-.642.49.49 0 0 1 .642-.26l1.562.662a.488.488 0 0 1 .26.642.49.49 0 0 1-.451.298m-.892-3.027a.293.293 0 0 0-.116.564l1.562.662a.294.294 0 0 0 .23-.541l-1.562-.662a.29.29 0 0 0-.114-.023zm1.561 1.446a.48.48 0 0 1-.191-.039l-1.562-.662a.49.49 0 0 1-.26-.642.488.488 0 0 1 .643-.26l1.562.662a.49.49 0 0 1-.192.94M118 102.13l-.18-.076 2.909-6.862.18.076L118 102.13"/><path d="M119.719 102.76a.4.4 0 0 1-.12-.02l-7.675-2.482c-.052-.016-.08-.072-.063-.123s.072-.08.123-.063l7.675 2.482a.186.186 0 0 0 .23-.106l2.58-6.165a.186.186 0 0 0-.095-.241l-1.598-.724-7.826-3.55c-.05-.022-.071-.08-.049-.129s.08-.071.129-.049l9.424 4.275a.38.38 0 0 1 .194.494l-2.58 6.165a.38.38 0 0 1-.352.236m-17.174-5.54a.118.118 0 0 1-.031-.005l-4.857-1.571a6.45 6.45 0 0 1-4.411-7.038l3.272-23.491c.006-.048.047-.086.097-.086s.098.044.098.098l-.001.014-3.272 23.493a6.257 6.257 0 0 0 4.278 6.825l4.857 1.571c.052.016.08.072.063.123a.098.098 0 0 1-.093.068m-7.609-9.796a9.969 9.969 0 0 0 .114 2.494 7.41 7.41 0 0 0 .805 2.301 6.69 6.69 0 0 0 .815 1.153c.035.04.103.036.138 0s.035-.099 0-.138a6.55 6.55 0 0 1-1.223-2.072 8.17 8.17 0 0 1-.469-2.353 10.85 10.85 0 0 1 .016-1.385c.004-.053-.048-.098-.098-.098-.056 0-.094.045-.098.098m1.54 1.834a4.64 4.64 0 0 0 1.058 2.329 4.47 4.47 0 0 0 .517.514c.04.034.099.04.138 0 .035-.035.04-.104 0-.138a4.446 4.446 0 0 1-1.367-2.058 4.43 4.43 0 0 1-.158-.698c-.007-.052-.074-.081-.121-.069-.056.016-.076.068-.068.121"/><path d="M110.741 108.569h-6.786a.375.375 0 0 1-.374-.338l-3.209-31.348c-.006-.053.033-.102.087-.107s.102.033.107.087l.262 2.565 2.947 28.783a.18.18 0 0 0 .179.162h6.786a.123.123 0 0 0 .123-.108l5.226-42.697a.1.1 0 0 1 .109-.085.097.097 0 0 1 .085.109l-3.195 26.101-1.038 8.486-.993 8.11a.32.32 0 0 1-.317.281m-7.029-70.308c-.061-.004-.101-.051-.097-.105l.078-1.084a2.77 2.77 0 0 1-1.801-2.244l-.457-3.374a3.254 3.254 0 0 1 2.007-3.466c1.344-.54 2.542-.369 3.561.51a4.104 4.104 0 0 1 1.365 2.48c.691.076 1.227.571 1.288 1.201.073.745-.545 1.417-1.375 1.498-.08.007-.161.009-.242.005l-.021.08-.009.035-.363 1.157a1.607 1.607 0 0 0-.061.928.098.098 0 0 1-.191.046 1.798 1.798 0 0 1 .067-1.039l.359-1.146a.45.45 0 0 1 .009-.031c.052-.199.062-.241.149-.231a1.48 1.48 0 0 0 .284 0c.723-.07 1.261-.646 1.199-1.284-.054-.558-.552-.992-1.185-1.032l-.08-.005-.011-.079a3.916 3.916 0 0 0-1.31-2.436c-.974-.839-2.073-.995-3.361-.477a3.06 3.06 0 0 0-1.887 3.258l.457 3.374a2.577 2.577 0 0 0 1.742 2.109l.072.025-.089 1.234a.098.098 0 0 1-.098.091"/><path d="M109.016 32.434a.097.097 0 0 1-.087-.054c-.135-.267-.41-.298-.78-.264-.053.006-.102-.034-.107-.088s.035-.102.089-.106c.243-.023.75-.07.973.37a.098.098 0 0 1-.088.141"/><path d="M108.306 32.733a.098.098 0 0 1-.03-.191.527.527 0 0 0 .35-.445c.004-.054.05-.094.105-.09s.094.052.09.105a.72.72 0 0 1-.484.616.079.079 0 0 1-.03.005m-3.742.634c-.119 0-.247-.053-.304-.17-.07-.144.001-.302.039-.387l.238-.527c.022-.05.08-.072.129-.05s.071.08.049.13l-.238.527c-.035.077-.069.164-.042.221.025.05.102.069.163.057.084-.016.161-.072.237-.127a.097.097 0 1 1 .114.158.819.819 0 0 1-.314.161.42.42 0 0 1-.072.007m.069 1.514a1.58 1.58 0 0 1-1.165-.518c-.037-.04-.033-.102.008-.138s.102-.033.138.008a1.38 1.38 0 0 0 1.137.447 1.38 1.38 0 0 0 1.036-.649c.028-.046.089-.061.134-.033s.061.088.033.134a1.58 1.58 0 0 1-1.185.742l-.136.006m3.695 3.406a.097.097 0 0 1-.075-.035c-.055-.066-1.345-1.635-.794-3.357.017-.052.072-.08.123-.063s.08.072.063.123c-.519 1.621.744 3.157.757 3.172a.098.098 0 0 1-.075.161"/><path d="M87.943 52.785c.504.307 3.567 2.097 8.107 3.266l2.246.499c4.329.808 8.895.781 12.856-.076 1.906-.412 3.403-1.263 4.448-2.53 2.497-3.022 1.694-7.072.109-9.855-2.031-3.568-6.831-5.575-7.368-5.791-1.887 1.357-3.245 1.822-4.04 1.382-.592-.328-.681-1.051-.69-1.369-2.193.928-4 2.35-5.233 4.119-.807 1.158-1.346 2.502-1.699 4.231a24.48 24.48 0 0 0-.33 2.163l-.01.088-.089-.002a41.705 41.705 0 0 1-3.031-.138c-.888-.072-2.046-.183-3.18-.401zm16.725 4.557a35.03 35.03 0 0 1-6.407-.599 34.87 34.87 0 0 1-2.259-.501c-4.987-1.284-8.205-3.316-8.237-3.336l-.072-.046 2.236-4.707.075.014c1.148.226 2.33.339 3.232.412.975.08 1.96.125 2.93.136a24.46 24.46 0 0 1 .323-2.092c.358-1.756.908-3.124 1.731-4.304 1.279-1.837 3.166-3.305 5.455-4.245l.145-.06-.01.157c0 .01-.056.983.59 1.34.501.277 1.579.258 3.873-1.401l.042-.031.05.019c.053.02 5.341 2.073 7.517 5.896 1.617 2.839 2.432 6.978-.129 10.077h.001c-1.075 1.301-2.608 2.174-4.558 2.596-2.084.45-4.282.676-6.527.676"/><path d="M96.639 48.913a47.8 47.8 0 0 1-.388-.002.098.098 0 0 1 .001-.196h.001a39.904 39.904 0 0 0 5.36-.306c2.015-.254 3.727-.609 5.234-1.086a.098.098 0 0 1 .059.187c-1.518.48-3.241.838-5.268 1.093a40.02 40.02 0 0 1-4.999.31m9.591 17.912c-5.845.001-9.14-1.356-9.959-1.743a.475.475 0 0 1-.273-.441c.037-2.154-.016-5.335-.059-7.892l-.01-.601c-.001-.054.042-.099.096-.1s.099.043.1.097l.01.601.059 7.899a.28.28 0 0 0 .161.26c.813.383 4.076 1.725 9.872 1.725 2.856 0 6.326-.326 10.421-1.253a.48.48 0 0 0 .371-.532l-1.438-10.825c-.007-.053.031-.102.084-.11s.103.03.11.084l1.438 10.825a.675.675 0 0 1-.522.749c-4.106.929-7.591 1.256-10.46 1.256m-1.061-25.383a3.75 3.75 0 0 1-.183-.004c-2.354-.095-2.588-1.605-2.743-2.605-.008-.053.029-.104.082-.112s.103.028.112.082c.153.993.364 2.351 2.558 2.439 1.58.065 3.153-.74 4.677-2.39.037-.04.099-.042.138-.005s.042.099.006.138c-1.506 1.631-3.069 2.456-4.647 2.456m-9.778 7.455a.098.098 0 0 1-.086-.145l.132-.236 1.055-1.896.028-.05h.044c.069-.002.112.042.112.096v.098h-.04l-1.028 1.847-.132.236a.099.099 0 0 1-.085.05"/><path d="M92.164 64.296a.41.41 0 0 1-.31-.142l-3.095-3.561a.34.34 0 0 1-.035-.396l3.189-5.403c.027-.048.087-.064.134-.037s.063.087.037.134l-3.191 5.406a.143.143 0 0 0 .015.168l3.095 3.562c.057.065.147.09.23.063.951-.313 2.481-1.292 3.807-2.437.04-.035.102-.031.138.01s.031.102-.01.138c-1.344 1.161-2.901 2.156-3.874 2.475a.41.41 0 0 1-.129.021m10.902-32.579a.42.42 0 0 1 .454.382.42.42 0 0 1-.381.454.42.42 0 0 1-.454-.382.42.42 0 0 1 .381-.454m2.812-.446a.42.42 0 0 1 .453.382.42.42 0 0 1-.381.454.42.42 0 0 1-.454-.382.42.42 0 0 1 .382-.454m-5.056-5.006a1.53 1.53 0 0 1 .189-.498c.382-.647 1.301-1.042 1.991-.636.452.266.724.723 1.127 1.044.384.307.799.408 1.289.36.872-.085 1.869-.312 2.402.6a1.26 1.26 0 0 1 .155.411 3.43 3.43 0 0 1 .01.318l.08.038c.367.196.743.395 1.051.679a2.45 2.45 0 0 1 .627.931c.613 1.605.731 3.379-.084 4.945-.332.637-.621 1.089-1.215 1.491-.04.027-.934.528-.951.487 0-.001-.164-.779-.069-1.134l.542-1.722c1.995.004 1.806-1.904.898-2.359l-.022.103c-.761-.371-1.064-.032-1.615.971l-.098.024s-.12-1.166-.45-1.784a2.45 2.45 0 0 1-.107-1.782c-.226.348-.786.999-1.817 1.009a20.06 20.06 0 0 1-.817-.005c-.578-.019-1.239-.079-1.791-.33-.125.294-.611 1.584-.43 3.401 0 0-.679-2.099-.26-3.905-.616-.696-.805-1.765-.634-2.657m-4.752 29.975c2.595 1.201 6.183 1.972 11.387 1.753 4.066-.171 6.965-1.387 8.341-2.32l-.191-1.436c-1.066 1.209-2.549 2.025-4.414 2.428a30.861 30.861 0 0 1-6.526.676 34.97 34.97 0 0 1-6.408-.599c-.564-.105-1.629-.367-2.189-.501m4.3 20.641 1.045 19.772 1.013.328z"/></g><path fill="#4450e4" d="M41.563 85.136c.166-.135.392-.203.676-.203.611 0 .996.281 1.154.843l1.387-.322c-.383-1.179-1.228-1.769-2.536-1.769-.76 0-1.356.218-1.789.654s-.649.938-.649 1.509a1.78 1.78 0 0 0 .245.933 1.69 1.69 0 0 0 .658.631c.276.149.647.284 1.112.407.512.14.838.258.978.355s.211.255.211.472a.69.69 0 0 1-.277.563c-.185.148-.451.222-.797.222-.766 0-1.224-.335-1.372-1.005l-1.446.198c.119.687.424 1.201.914 1.543s1.106.512 1.846.512c.865 0 1.532-.213 2.002-.641a2.07 2.07 0 0 0 .703-1.596c0-.396-.085-.732-.255-1.008a1.7 1.7 0 0 0-.73-.643c-.317-.153-.751-.3-1.303-.438-.384-.096-.643-.193-.778-.292s-.203-.244-.203-.435a.61.61 0 0 1 .25-.49m7.883 1.415c-.185.19-.478.285-.877.285h-1.165l.307-1.838h.808c.506 0 .833.089.982.268s.223.373.223.585a.97.97 0 0 1-.277.701zm.604-2.608c-.32-.099-.746-.149-1.278-.149h-2.417l-1.13 6.762h1.557l.424-2.537h1.437c.456 0 .796-.029 1.021-.087s.47-.182.735-.374.471-.456.615-.795a2.6 2.6 0 0 0 .215-1.023c0-.463-.117-.853-.349-1.172s-.51-.527-.83-.627m6.94 1.136.219-1.283h-4.766l-1.129 6.762h4.815l.218-1.283h-3.236l.264-1.585h2.66l.203-1.224H53.58l.232-1.387h3.18m5.795 0 .219-1.283H58.24l-1.129 6.762h4.815l.218-1.283h-3.237l.265-1.585h2.66l.203-1.224h-2.659l.232-1.387h3.179m4.25 3.455c-.268.546-.811.82-1.631.82h-.813l.729-4.364h.694c.948 0 1.422.596 1.422 1.788a3.95 3.95 0 0 1-.401 1.756zm1.595-3.354c-.26-.484-.585-.835-.973-1.055s-.932-.33-1.632-.33h-1.992l-1.129 6.762 2.362.014c.585 0 1.063-.041 1.434-.123s.741-.283 1.107-.6.66-.739.882-1.265a4.35 4.35 0 0 0 .332-1.702c0-.65-.131-1.218-.392-1.701"/><path fill="#ff9b9b" d="M31.828 80.548h12.204a10 10 0 0 1 2.415-6.531L37.9 65.275a22.17 22.17 0 0 0-6.071 15.273m15.883-7.766a9.98 9.98 0 0 1 5.475-2.233V58.322a22.158 22.158 0 0 0-14.024 5.717l8.549 8.742m7.243-14.459V70.55a9.98 9.98 0 0 1 5.475 2.233l8.549-8.742a22.154 22.154 0 0 0-14.024-5.717m15.288 6.953-8.55 8.741a9.997 9.997 0 0 1 2.415 6.531h12.206a22.17 22.17 0 0 0-6.071-15.272"/><g fill="#4450e4"><path d="m61.369 67.862-5.595 11.356a1.775 1.775 0 0 0-1.702-1.27l-.138.006 7.115-10.285c.132-.192.422-.016.319.193"/><path d="M55.847 79.723a1.775 1.775 0 1 1-3.55 0 1.775 1.775 0 0 1 3.55 0"/></g><g fill="#27191c"><path d="M41.563 85.136h.001zm-2.329 3.57c.125.608.412 1.072.854 1.38.471.328 1.074.495 1.789.495.836 0 1.487-.207 1.936-.615s.671-.919.671-1.524c0-.376-.081-.698-.24-.956s-.392-.462-.69-.607c-.311-.15-.743-.295-1.284-.431-.399-.099-.664-.2-.812-.307a.6.6 0 0 1-.243-.514c0-.222.096-.412.286-.566.184-.149.433-.225.738-.225.624 0 1.034.277 1.22.824l1.193-.277c-.385-1.076-1.174-1.6-2.408-1.6-.729 0-1.307.21-1.719.625s-.621.899-.621 1.441a1.69 1.69 0 0 0 .231.883c.154.256.363.456.621.595.268.144.635.278 1.09.398.528.144.858.264 1.009.369.168.116.253.302.253.552a.79.79 0 0 1-.314.64c-.202.162-.491.243-.859.243-.781 0-1.267-.334-1.446-.994zm2.644 2.071c-.757 0-1.397-.178-1.901-.53-.51-.356-.831-.897-.955-1.607l-.017-.1 1.636-.224.02.088c.138.625.556.929 1.276.929.322 0 .57-.067.736-.2a.59.59 0 0 0 .241-.487c0-.185-.055-.313-.168-.392-.09-.062-.328-.172-.948-.341-.471-.124-.852-.264-1.133-.415a1.8 1.8 0 0 1-.696-.667 1.879 1.879 0 0 1-.259-.983c0-.595.228-1.126.677-1.579s1.075-.683 1.858-.683c1.348 0 2.233.618 2.629 1.836l.033.101-1.582.367-.025-.09c-.146-.518-.493-.771-1.06-.771-.26 0-.467.061-.615.181-.144.116-.213.252-.213.414s.053.276.163.356c.125.091.375.184.744.276.555.14 1 .289 1.322.445a1.81 1.81 0 0 1 .771.68c.179.29.27.647.27 1.059 0 .662-.247 1.224-.735 1.669s-1.181.666-2.067.666m7.567-4.224h.001zm-1.926.187h1.049c.37 0 .642-.086.807-.255a.865.865 0 0 0 .249-.632.79.79 0 0 0-.2-.522c-.127-.152-.44-.232-.906-.232h-.725zm1.049.196h-1.28l.339-2.034h.891c.542 0 .887.099 1.057.303a.992.992 0 0 1 .245.647 1.06 1.06 0 0 1-.305.769c-.203.209-.522.315-.947.315zm-3.228 3.525h1.359l.424-2.537h1.52c.446 0 .781-.028.996-.083s.448-.175.704-.359c.25-.179.445-.433.581-.754a2.53 2.53 0 0 0 .208-.984c0-.439-.111-.814-.33-1.114s-.482-.499-.78-.591c-.309-.095-.73-.144-1.249-.144h-2.334zm1.524.196H45.11l1.162-6.958h2.5c.539 0 .979.052 1.307.153.339.105.635.328.88.662s.368.748.368 1.23c0 .354-.075.711-.223 1.06s-.368.636-.647.837-.534.329-.769.39-.576.089-1.045.089H47.29l-.424 2.537m4.564-.197h4.617l.185-1.087h-3.236l.298-1.781h2.659l.171-1.028h-2.659l.264-1.583h3.18l.185-1.087h-4.567zm4.782.196h-5.013l1.162-6.958h4.964l-.251 1.479h-3.18l-.199 1.192h2.659l-.236 1.419h-2.66l-.232 1.389h3.236l-.251 1.479m1.015-.196h4.617l.185-1.087h-3.236l.298-1.781h2.659l.171-1.028h-2.66l.264-1.583h3.18l.185-1.087h-4.567zm4.782.196h-5.013l1.162-6.958h4.964l-.251 1.479h-3.18l-.199 1.192h2.659l-.236 1.419h-2.66l-.232 1.389h3.236l-.251 1.479m2.702-1.4h.697c.786 0 1.291-.25 1.543-.765a3.86 3.86 0 0 0 .392-1.713c0-1.137-.433-1.69-1.324-1.69h-.611zm.697.196h-.928l.762-4.56h.777c1.008 0 1.52.634 1.52 1.886a4.06 4.06 0 0 1-.411 1.799c-.285.58-.863.874-1.719.874zm-2.385 1.009 2.248.014c.574 0 1.05-.04 1.412-.121.354-.078.712-.273 1.064-.578s.642-.72.856-1.23a4.27 4.27 0 0 0 .324-1.664c0-.631-.128-1.188-.38-1.655-.251-.465-.565-.807-.935-1.016s-.905-.317-1.584-.317h-1.909zm2.247.209-2.478-.016 1.162-6.957h2.075c.714 0 1.279.116 1.68.343s.743.596 1.011 1.094c.268.496.403 1.084.403 1.748a4.47 4.47 0 0 1-.339 1.74c-.226.538-.532.976-.908 1.302s-.764.535-1.15.621c-.377.083-.866.126-1.455.126M31.927 80.45h12.009a10.14 10.14 0 0 1 2.38-6.428l-8.415-8.605a22.05 22.05 0 0 0-5.974 15.033zm12.204.196h-12.4v-.098a22.25 22.25 0 0 1 6.098-15.34l.07-.074 8.682 8.879-.058.069a9.94 9.94 0 0 0-2.392 6.467v.098m-4.826-16.603 8.415 8.605a10.053 10.053 0 0 1 5.37-2.19V58.424a22.153 22.153 0 0 0-13.784 5.62zm8.4 8.87-.063-.065-8.62-8.815.076-.068a22.344 22.344 0 0 1 14.085-5.743l.102-.004V70.64l-.089.008a9.86 9.86 0 0 0-5.422 2.21l-.069.057M60.437 72.915l-.069-.057a9.976 9.976 0 0 0-1.089-.777.098.098 0 0 1 .102-.167 10.19 10.19 0 0 1 1.041.735l8.415-8.605a22.154 22.154 0 0 0-13.784-5.62V70.46a10.02 10.02 0 0 1 3.394.944c.048.023.069.082.046.131s-.082.069-.131.046a9.847 9.847 0 0 0-3.415-.933l-.089-.007v-12.42l.101.004a22.35 22.35 0 0 1 14.085 5.743l.076.068-8.682 8.879m3.768 7.536h12.009a22.057 22.057 0 0 0-5.974-15.033l-8.416 8.604a10.14 10.14 0 0 1 2.381 6.429zm12.206.196H64.01v-.098a9.94 9.94 0 0 0-2.392-6.467l-.058-.068 8.684-8.878.07.074a22.257 22.257 0 0 1 6.098 15.34v.098"/><path d="M61.369 67.862h.001zm-7.245 9.989a1.89 1.89 0 0 1 1.663 1.119l5.494-11.151c.037-.074-.023-.114-.035-.121s-.072-.036-.116.026zm1.627 1.635-.071-.24a1.686 1.686 0 0 0-1.608-1.2l-.13.005-.207.018 7.233-10.455c.099-.142.264-.15.376-.084s.189.218.112.376l-5.705 11.581"/><path d="m54.072 78.046-.13.005a1.684 1.684 0 0 0-1.548 1.673 1.68 1.68 0 0 0 1.678 1.677 1.68 1.68 0 0 0 1.608-2.155 1.686 1.686 0 0 0-1.608-1.2zm0 3.551a1.876 1.876 0 0 1-1.874-1.873 1.88 1.88 0 0 1 1.728-1.868l.146-.006a1.881 1.881 0 0 1 1.873 1.874 1.875 1.875 0 0 1-1.873 1.873"/></g><defs><path id="a" d="M99.538 110.865v1.697a.294.294 0 0 1-.588 0v-1.697a.294.294 0 0 1 .588 0"/><path id="b" d="m83.118 49.125-.026-.004h-.001l-.026.004.025-.004c.009-.002.017.003.025.004-.013-.004-.026-.004-.039-.002s-.025.004-.036.012-.021.014-.028.025-.014.021-.017.033a.27.27 0 0 1-.004.026.09.09 0 0 0 .014.05l.015.02c.012.012.027.02.043.025a.202.202 0 0 1 .026.004l.027-.004-.025.003a.234.234 0 0 1-.026-.004c.013.004.026.004.039.002s.025-.004.037-.012.02-.014.027-.025.014-.02.018-.033.002-.017.004-.026a.09.09 0 0 0-.014-.049l-.015-.02a.104.104 0 0 0-.043-.025"/><path id="c" d="M100.962 110.571a.294.294 0 0 0-.294.294v1.697a.294.294 0 0 0 .588 0v-1.697a.294.294 0 0 0-.294-.294zm0 2.48a.49.49 0 0 1-.489-.489v-1.697a.49.49 0 0 1 .489-.489.49.49 0 0 1 .489.489v1.697a.49.49 0 0 1-.489.489"/></defs></svg>