<?xml version="1.0" standalone="no"?>
<!DOCTYPE svg PUBLIC "-//W3C//DTD SVG 20010904//EN"
 "http://www.w3.org/TR/2001/REC-SVG-20010904/DTD/svg10.dtd">
<svg version="1.0" xmlns="http://www.w3.org/2000/svg"
 width="700.000000pt" height="700.000000pt" viewBox="0 0 700.000000 700.000000"
 preserveAspectRatio="xMidYMid meet">
<metadata>
Created by potrace 1.14, written by Peter Selinger 2001-2017
</metadata>
<g transform="translate(0.000000,700.000000) scale(0.100000,-0.100000)"
fill="#000000" stroke="none">
<path d="M3367 6944 c-1 -1 -44 -5 -94 -8 -97 -7 -151 -13 -193 -21 -14 -2
-45 -7 -70 -10 -198 -27 -512 -119 -731 -216 -133 -58 -316 -154 -376 -196
-17 -13 -34 -23 -37 -23 -11 0 -246 -170 -319 -231 -124 -104 -316 -296 -402
-404 -22 -28 -42 -52 -45 -55 -19 -17 -167 -230 -214 -308 -63 -104 -171 -313
-211 -412 -49 -120 -120 -331 -140 -420 -2 -8 -12 -53 -23 -100 -18 -75 -39
-200 -57 -340 -10 -78 -13 -491 -5 -580 8 -81 18 -162 25 -205 13 -83 27 -159
29 -164 2 -3 7 -22 10 -41 12 -70 49 -202 93 -330 122 -359 334 -725 587
-1015 86 -99 258 -267 341 -334 39 -31 72 -59 75 -62 29 -35 450 -308 450
-293 0 4 7 1 15 -6 14 -12 191 -100 200 -100 3 0 29 -11 58 -25 54 -24 330
-119 377 -129 14 -3 43 -10 65 -16 22 -5 56 -13 75 -16 19 -3 38 -8 41 -10 5
-3 92 -18 174 -29 22 -3 49 -7 60 -10 45 -9 219 -19 358 -19 l149 -1 -3 -290
c-4 -313 0 -339 47 -370 141 -92 494 167 1229 901 116 116 240 230 276 254
391 262 692 573 944 972 163 258 338 707 389 998 2 14 9 54 16 90 28 151 35
249 35 505 0 290 -9 397 -50 595 -8 36 -16 79 -19 97 -16 91 -133 448 -174
530 -5 10 -39 79 -76 153 -354 721 -1006 1286 -1776 1540 -162 54 -391 107
-530 124 -25 4 -55 8 -67 10 -60 12 -496 29 -506 20z"/>
</g>
</svg>
