<svg width="1900" height="853.333" xmlns="http://www.w3.org/2000/svg"><defs><clipPath clipPathUnits="userSpaceOnUse" id="g"><path d="M0 640h1425V0H0z" transform="translate(-811.028 -280)"/></clipPath><clipPath clipPathUnits="userSpaceOnUse" id="a"><path d="M0 640h1425V0H0z" transform="translate(-440 -320)"/></clipPath><clipPath clipPathUnits="userSpaceOnUse" id="c"><path d="M0 640h1425V0H0z" transform="translate(-566.068 -334.668)"/></clipPath><clipPath clipPathUnits="userSpaceOnUse" id="d"><path d="M0 640h1425V0H0z" transform="translate(-593.323 -280)"/></clipPath><clipPath clipPathUnits="userSpaceOnUse" id="e"><path d="M0 640h1425V0H0z" transform="translate(-676.757 -309.927)"/></clipPath><clipPath clipPathUnits="userSpaceOnUse" id="f"><path d="M0 640h1425V0H0z" transform="translate(-742.655 -299.796)"/></clipPath><clipPath clipPathUnits="userSpaceOnUse" id="b"><path d="M0 640h1425V0H0z" transform="translate(-336 -320)"/></clipPath><clipPath clipPathUnits="userSpaceOnUse" id="h"><path d="M0 640h1425V0H0z" transform="translate(-837.227 -309.927)"/></clipPath><clipPath clipPathUnits="userSpaceOnUse" id="i"><path d="M0 640h1425V0H0z" transform="translate(-902.76 -295.67)"/></clipPath><clipPath clipPathUnits="userSpaceOnUse" id="j"><path d="M0 640h1425V0H0z" transform="translate(-1025.111 -280)"/></clipPath><clipPath clipPathUnits="userSpaceOnUse" id="k"><path d="M0 640h1425V0H0z" transform="translate(-1095.498 -280)"/></clipPath><clipPath clipPathUnits="userSpaceOnUse" id="l"><path d="M0 640h1425V0H0z" transform="translate(-1163.746 -280)"/></clipPath><clipPath clipPathUnits="userSpaceOnUse" id="m"><path d="M0 640h1425V0H0z" transform="translate(-1196.662 -295.67)"/></clipPath></defs><path d="M0 0c0-66.274-53.726-120-120-120S-240-66.274-240 0s53.726 120 120 120S0 66.274 0 0" style="fill:#ff6154;fill-opacity:1;fill-rule:nonzero;stroke:none" transform="matrix(1.33333 0 0 -1.33333 586.667 426.667)" clip-path="url(#a)"/><path d="M0 0v-.001h-34v36H0V36c9.941 0 18-8.059 18-18S9.941 0 0 0m0 60v-.001L-58 60V-60h24v35.999H0V-24c23.196 0 42 18.804 42 42S23.196 60 0 60" style="fill:#fff;fill-opacity:1;fill-rule:nonzero;stroke:none" transform="matrix(1.33333 0 0 -1.33333 448 426.666)" clip-path="url(#b)"/><path d="M0 0c0 6.6-5.075 10.606-11.666 10.606h-17.671v-21.092h17.671C-5.075-10.486 0-6.48 0 0m-46.068-54.668v80h36.753C7.771 25.332 17.076 13.786 17.076 0c0-13.666-9.42-25.212-26.391-25.212h-20.022v-29.456z" style="fill:#000;fill-opacity:1;fill-rule:nonzero;stroke:none" transform="matrix(1.33333 0 0 -1.33333 754.757 407.109)" clip-path="url(#c)"/><path d="M0 0v58.324h14.956v-7.661c4.125 4.95 11.081 9.071 18.151 9.071V45.128c-1.065.235-2.36.35-4.125.35-4.95 0-11.551-2.825-14.026-6.481V0z" style="fill:#000;fill-opacity:1;fill-rule:nonzero;stroke:none" transform="matrix(1.33333 0 0 -1.33333 791.097 480)" clip-path="url(#d)"/><path d="M0 0c0 8.836-5.19 16.496-14.611 16.496-9.315 0-14.496-7.66-14.496-16.496 0-8.956 5.181-16.611 14.496-16.611C-5.19-16.611 0-8.956 0 0m-44.658 0c0 16.141 11.311 29.807 30.047 29.807C4.24 29.807 15.551 16.141 15.551 0S4.24-29.927-14.611-29.927c-18.736 0-30.047 13.786-30.047 29.927" style="fill:#000;fill-opacity:1;fill-rule:nonzero;stroke:none" transform="matrix(1.33333 0 0 -1.33333 902.343 440.098)" clip-path="url(#e)"/><path d="M0 0v20.146c-2.475 3.771-7.895 6.481-12.846 6.481-8.595 0-14.486-6.716-14.486-16.496 0-9.896 5.891-16.611 14.486-16.611C-7.895-6.48-2.475-3.77 0 0m0-19.796v8.72c-4.48-5.655-10.601-8.72-17.556-8.72-14.256 0-25.212 10.84-25.212 29.927 0 18.496 10.726 29.807 25.212 29.807 6.715 0 13.076-2.826 17.556-8.716v28.982h15.081v-80z" style="fill:#000;fill-opacity:1;fill-rule:nonzero;stroke:none" transform="matrix(1.33333 0 0 -1.33333 990.207 453.605)" clip-path="url(#f)"/><path d="M0 0v8.601C-3.885 4.36-10.716 0-20.022 0c-12.49 0-18.381 6.835-18.381 17.911v40.413h14.957V23.801c0-7.895 4.125-10.485 10.485-10.485 5.775 0 10.371 3.18 12.961 6.48v38.528h14.966V0z" style="fill:#000;fill-opacity:1;fill-rule:nonzero;stroke:none" transform="matrix(1.33333 0 0 -1.33333 1081.37 480)" clip-path="url(#g)"/><path d="M0 0c0 17.436 12.721 29.807 30.162 29.807 11.666 0 18.736-5.065 22.506-10.251l-9.785-9.185c-2.706 4.005-6.831 6.125-12.011 6.125-9.076 0-15.436-6.6-15.436-16.496 0-9.896 6.36-16.611 15.436-16.611 5.18 0 9.305 2.355 12.011 6.245l9.785-9.19c-3.77-5.186-10.84-10.371-22.506-10.371C12.721-29.927 0-17.556 0 0" style="fill:#000;fill-opacity:1;fill-rule:nonzero;stroke:none" transform="matrix(1.33333 0 0 -1.33333 1116.303 440.098)" clip-path="url(#h)"/><path d="M0 0v29.572h-9.421v13.081H0v15.551h14.966V42.653h11.541V29.572H14.966V4.005c0-3.65 1.88-6.36 5.18-6.36 2.236 0 4.365.825 5.181 1.765l3.185-11.426c-2.235-2.005-6.246-3.655-12.491-3.655C5.535-15.671 0-10.251 0 0" style="fill:#000;fill-opacity:1;fill-rule:nonzero;stroke:none" transform="matrix(1.33333 0 0 -1.33333 1203.68 459.105)" clip-path="url(#i)"/><path d="M0 0v34.522h-37.117V0h-16.722v80h16.722V49.133H0V80h16.846V0z" style="fill:#000;fill-opacity:1;fill-rule:nonzero;stroke:none" transform="matrix(1.33333 0 0 -1.33333 1366.815 480)" clip-path="url(#j)"/><path d="M0 0v8.601C-3.885 4.36-10.716 0-20.022 0c-12.49 0-18.381 6.835-18.381 17.911v40.413h14.956V23.801c0-7.895 4.126-10.485 10.486-10.485 5.775 0 10.371 3.18 12.961 6.48v38.528h14.966V0z" style="fill:#000;fill-opacity:1;fill-rule:nonzero;stroke:none" transform="matrix(1.33333 0 0 -1.33333 1460.664 480)" clip-path="url(#k)"/><path d="M0 0v35.817c0 7.896-4.116 10.606-10.486 10.606-5.89 0-10.361-3.3-12.96-6.6V0h-14.957v58.324h14.957v-7.306c3.655 4.24 10.725 8.716 19.916 8.716 12.605 0 18.611-7.066 18.611-18.141V0z" style="fill:#000;fill-opacity:1;fill-rule:nonzero;stroke:none" transform="matrix(1.33333 0 0 -1.33333 1551.662 480)" clip-path="url(#l)"/><path d="M0 0v29.572h-9.421v13.081H0v15.551h14.966V42.653h11.541V29.572H14.966V4.005c0-3.65 1.88-6.36 5.18-6.36 2.236 0 4.365.825 5.19 1.765l3.176-11.426c-2.236-2.005-6.246-3.655-12.491-3.655C5.535-15.671 0-10.251 0 0" style="fill:#000;fill-opacity:1;fill-rule:nonzero;stroke:none" transform="matrix(1.33333 0 0 -1.33333 1595.549 459.105)" clip-path="url(#m)"/></svg>