<?xml version="1.0" encoding="UTF-8" standalone="no"?>
<!-- Created with Inkscape (http://www.inkscape.org/) -->

<svg
   version="1.1"
   id="svg1"
   width="1900"
   height="853.33331"
   viewBox="0 0 1900 853.33331"
   sodipodi:docname="product-hunt-logo-horizontal-orange.svg"
   inkscape:version="1.3 (1:1.3+202307231459+0e150ed6c4)"
   xmlns:inkscape="http://www.inkscape.org/namespaces/inkscape"
   xmlns:sodipodi="http://sodipodi.sourceforge.net/DTD/sodipodi-0.dtd"
   xmlns="http://www.w3.org/2000/svg"
   xmlns:svg="http://www.w3.org/2000/svg">
  <defs
     id="defs1">
    <clipPath
       clipPathUnits="userSpaceOnUse"
       id="clipPath2">
      <path
         d="M 0,640 H 1425 V 0 H 0 Z"
         transform="translate(-440.00001,-320.00001)"
         id="path2" />
    </clipPath>
    <clipPath
       clipPathUnits="userSpaceOnUse"
       id="clipPath4">
      <path
         d="M 0,640 H 1425 V 0 H 0 Z"
         transform="translate(-336.00001,-320.00041)"
         id="path4" />
    </clipPath>
    <clipPath
       clipPathUnits="userSpaceOnUse"
       id="clipPath6">
      <path
         d="M 0,640 H 1425 V 0 H 0 Z"
         transform="translate(-566.06791,-334.66841)"
         id="path6" />
    </clipPath>
    <clipPath
       clipPathUnits="userSpaceOnUse"
       id="clipPath8">
      <path
         d="M 0,640 H 1425 V 0 H 0 Z"
         transform="translate(-593.32291,-280.00001)"
         id="path8" />
    </clipPath>
    <clipPath
       clipPathUnits="userSpaceOnUse"
       id="clipPath10">
      <path
         d="M 0,640 H 1425 V 0 H 0 Z"
         transform="translate(-676.75742,-309.92681)"
         id="path10" />
    </clipPath>
    <clipPath
       clipPathUnits="userSpaceOnUse"
       id="clipPath12">
      <path
         d="M 0,640 H 1425 V 0 H 0 Z"
         transform="translate(-742.65502,-299.79611)"
         id="path12" />
    </clipPath>
    <clipPath
       clipPathUnits="userSpaceOnUse"
       id="clipPath14">
      <path
         d="M 0,640 H 1425 V 0 H 0 Z"
         transform="translate(-811.02775,-280.00001)"
         id="path14" />
    </clipPath>
    <clipPath
       clipPathUnits="userSpaceOnUse"
       id="clipPath16">
      <path
         d="M 0,640 H 1425 V 0 H 0 Z"
         transform="translate(-837.2275,-309.92681)"
         id="path16" />
    </clipPath>
    <clipPath
       clipPathUnits="userSpaceOnUse"
       id="clipPath18">
      <path
         d="M 0,640 H 1425 V 0 H 0 Z"
         transform="translate(-902.76055,-295.6709)"
         id="path18" />
    </clipPath>
    <clipPath
       clipPathUnits="userSpaceOnUse"
       id="clipPath20">
      <path
         d="M 0,640 H 1425 V 0 H 0 Z"
         transform="translate(-1025.1111,-280.00001)"
         id="path20" />
    </clipPath>
    <clipPath
       clipPathUnits="userSpaceOnUse"
       id="clipPath22">
      <path
         d="M 0,640 H 1425 V 0 H 0 Z"
         transform="translate(-1095.4983,-280.00001)"
         id="path22" />
    </clipPath>
    <clipPath
       clipPathUnits="userSpaceOnUse"
       id="clipPath24">
      <path
         d="M 0,640 H 1425 V 0 H 0 Z"
         transform="translate(-1163.7462,-280.00001)"
         id="path24" />
    </clipPath>
    <clipPath
       clipPathUnits="userSpaceOnUse"
       id="clipPath26">
      <path
         d="M 0,640 H 1425 V 0 H 0 Z"
         transform="translate(-1196.6616,-295.6709)"
         id="path26" />
    </clipPath>
  </defs>
  <sodipodi:namedview
     id="namedview1"
     pagecolor="#ffffff"
     bordercolor="#666666"
     borderopacity="1.0"
     inkscape:showpageshadow="2"
     inkscape:pageopacity="0.0"
     inkscape:pagecheckerboard="0"
     inkscape:deskcolor="#d1d1d1"
     inkscape:zoom="1.3005263"
     inkscape:cx="950"
     inkscape:cy="426.7503"
     inkscape:window-width="3130"
     inkscape:window-height="1736"
     inkscape:window-x="0"
     inkscape:window-y="0"
     inkscape:window-maximized="1"
     inkscape:current-layer="layer-MC0">
    <inkscape:page
       x="0"
       y="0"
       inkscape:label="1"
       id="page1"
       width="1900"
       height="853.33331"
       margin="266.66666 266.44 266.66666 266.66666"
       bleed="0" />
  </sodipodi:namedview>
  <g
     id="layer-MC0"
     inkscape:groupmode="layer"
     inkscape:label="Layer 1">
    <path
       id="path1"
       d="m 0,0 c 0,-66.274 -53.726,-120 -120,-120 -66.274,0 -120,53.726 -120,120 0,66.274 53.726,120 120,120 C -53.726,120 0,66.274 0,0"
       style="fill:#ff6154;fill-opacity:1;fill-rule:nonzero;stroke:none"
       transform="matrix(1.3333333,0,0,-1.3333333,586.66667,426.66667)"
       clip-path="url(#clipPath2)" />
    <path
       id="path3"
       d="m 0,0 v -0.001 h -34 v 36 H 0 V 36 C 9.941,36 18,27.941 18,18 18,8.059 9.941,0 0,0 M 0,60 V 59.999 L -58,60 V -60 h 24 v 35.999 H 0 V -24 c 23.196,0 42,18.804 42,42 0,23.196 -18.804,42 -42,42"
       style="fill:#ffffff;fill-opacity:1;fill-rule:nonzero;stroke:none"
       transform="matrix(1.3333333,0,0,-1.3333333,448,426.66613)"
       clip-path="url(#clipPath4)" />
    <path
       id="path5"
       d="m 0,0 c 0,6.6 -5.075,10.606 -11.666,10.606 h -17.671 v -21.092 h 17.671 C -5.075,-10.486 0,-6.48 0,0 m -46.068,-54.668 v 80 H -9.315 C 7.771,25.332 17.076,13.786 17.076,0 c 0,-13.666 -9.42,-25.212 -26.391,-25.212 h -20.022 v -29.456 z"
       style="fill:#000000;fill-opacity:1;fill-rule:nonzero;stroke:none"
       transform="matrix(1.3333333,0,0,-1.3333333,754.7572,407.1088)"
       clip-path="url(#clipPath6)" />
    <path
       id="path7"
       d="m 0,0 v 58.324 h 14.956 v -7.661 c 4.125,4.95 11.081,9.071 18.151,9.071 V 45.128 c -1.065,0.235 -2.36,0.35 -4.125,0.35 -4.95,0 -11.551,-2.825 -14.026,-6.481 V 0 Z"
       style="fill:#000000;fill-opacity:1;fill-rule:nonzero;stroke:none"
       transform="matrix(1.3333333,0,0,-1.3333333,791.0972,480)"
       clip-path="url(#clipPath8)" />
    <path
       id="path9"
       d="m 0,0 c 0,8.836 -5.19,16.496 -14.611,16.496 -9.315,0 -14.496,-7.66 -14.496,-16.496 0,-8.956 5.181,-16.611 14.496,-16.611 C -5.19,-16.611 0,-8.956 0,0 m -44.658,0 c 0,16.141 11.311,29.807 30.047,29.807 18.851,0 30.162,-13.666 30.162,-29.807 0,-16.141 -11.311,-29.927 -30.162,-29.927 -18.736,0 -30.047,13.786 -30.047,29.927"
       style="fill:#000000;fill-opacity:1;fill-rule:nonzero;stroke:none"
       transform="matrix(1.3333333,0,0,-1.3333333,902.3432,440.0976)"
       clip-path="url(#clipPath10)" />
    <path
       id="path11"
       d="m 0,0 v 20.146 c -2.475,3.771 -7.895,6.481 -12.846,6.481 -8.595,0 -14.486,-6.716 -14.486,-16.496 0,-9.896 5.891,-16.611 14.486,-16.611 4.951,0 10.371,2.71 12.846,6.48 m 0,-19.796 v 8.72 c -4.48,-5.655 -10.601,-8.72 -17.556,-8.72 -14.256,0 -25.212,10.84 -25.212,29.927 0,18.496 10.726,29.807 25.212,29.807 6.715,0 13.076,-2.826 17.556,-8.716 v 28.982 h 15.081 v -80 z"
       style="fill:#000000;fill-opacity:1;fill-rule:nonzero;stroke:none"
       transform="matrix(1.3333333,0,0,-1.3333333,990.20667,453.6052)"
       clip-path="url(#clipPath12)" />
    <path
       id="path13"
       d="M 0,0 V 8.601 C -3.885,4.36 -10.716,0 -20.022,0 -32.512,0 -38.403,6.835 -38.403,17.911 v 40.413 h 14.957 V 23.801 c 0,-7.895 4.125,-10.485 10.485,-10.485 5.775,0 10.371,3.18 12.961,6.48 V 58.324 H 14.966 L 14.966,0 Z"
       style="fill:#000000;fill-opacity:1;fill-rule:nonzero;stroke:none"
       transform="matrix(1.3333333,0,0,-1.3333333,1081.3703,480)"
       clip-path="url(#clipPath14)" />
    <path
       id="path15"
       d="m 0,0 c 0,17.436 12.721,29.807 30.162,29.807 11.666,0 18.736,-5.065 22.506,-10.251 l -9.785,-9.185 c -2.706,4.005 -6.831,6.125 -12.011,6.125 -9.076,0 -15.436,-6.6 -15.436,-16.496 0,-9.896 6.36,-16.611 15.436,-16.611 5.18,0 9.305,2.355 12.011,6.245 l 9.785,-9.19 C 48.898,-24.742 41.828,-29.927 30.162,-29.927 12.721,-29.927 0,-17.556 0,0"
       style="fill:#000000;fill-opacity:1;fill-rule:nonzero;stroke:none"
       transform="matrix(1.3333333,0,0,-1.3333333,1116.3033,440.0976)"
       clip-path="url(#clipPath16)" />
    <path
       id="path17"
       d="M 0,0 V 29.572 H -9.421 V 42.653 H 0 V 58.204 H 14.966 V 42.653 H 26.507 V 29.572 H 14.966 V 4.005 c 0,-3.65 1.88,-6.36 5.18,-6.36 2.236,0 4.365,0.825 5.181,1.765 l 3.185,-11.426 C 26.277,-14.021 22.266,-15.671 16.021,-15.671 5.535,-15.671 0,-10.251 0,0"
       style="fill:#000000;fill-opacity:1;fill-rule:nonzero;stroke:none"
       transform="matrix(1.3333333,0,0,-1.3333333,1203.6807,459.10547)"
       clip-path="url(#clipPath18)" />
    <path
       id="path19"
       d="M 0,0 V 34.522 H -37.117 V 0 h -16.722 v 80 h 16.722 V 49.133 L 0,49.133 V 80 H 16.846 V 0 Z"
       style="fill:#000000;fill-opacity:1;fill-rule:nonzero;stroke:none"
       transform="matrix(1.3333333,0,0,-1.3333333,1366.8147,480)"
       clip-path="url(#clipPath20)" />
    <path
       id="path21"
       d="M 0,0 V 8.601 C -3.885,4.36 -10.716,0 -20.022,0 -32.512,0 -38.403,6.835 -38.403,17.911 v 40.413 h 14.956 V 23.801 c 0,-7.895 4.126,-10.485 10.486,-10.485 5.775,0 10.371,3.18 12.961,6.48 V 58.324 H 14.966 L 14.966,0 Z"
       style="fill:#000000;fill-opacity:1;fill-rule:nonzero;stroke:none"
       transform="matrix(1.3333333,0,0,-1.3333333,1460.6644,480)"
       clip-path="url(#clipPath22)" />
    <path
       id="path23"
       d="m 0,0 v 35.817 c 0,7.896 -4.116,10.606 -10.486,10.606 -5.89,0 -10.361,-3.3 -12.96,-6.6 V 0 h -14.957 v 58.324 h 14.957 v -7.306 c 3.655,4.24 10.725,8.716 19.916,8.716 12.605,0 18.611,-7.066 18.611,-18.141 L 15.081,0 Z"
       style="fill:#000000;fill-opacity:1;fill-rule:nonzero;stroke:none"
       transform="matrix(1.3333333,0,0,-1.3333333,1551.6616,480)"
       clip-path="url(#clipPath24)" />
    <path
       id="path25"
       d="M 0,0 V 29.572 H -9.421 V 42.653 H 0 V 58.204 H 14.966 V 42.653 H 26.507 V 29.572 H 14.966 V 4.005 c 0,-3.65 1.88,-6.36 5.18,-6.36 2.236,0 4.365,0.825 5.19,1.765 l 3.176,-11.426 C 26.276,-14.021 22.266,-15.671 16.021,-15.671 5.535,-15.671 0,-10.251 0,0"
       style="fill:#000000;fill-opacity:1;fill-rule:nonzero;stroke:none"
       transform="matrix(1.3333333,0,0,-1.3333333,1595.5487,459.10547)"
       clip-path="url(#clipPath26)" />
  </g>
</svg>
